<svg width="1165" height="741" viewBox="0 0 1165 741" fill="none" xmlns="http://www.w3.org/2000/svg">
<rect x="472.081" y="21.5" width="413" height="203" rx="16.5" fill="#F2F2F2" stroke="#00D563" stroke-width="7"/>
<path d="M593.172 100.75C593.172 98.6501 593.592 96.7801 594.432 95.1401C595.292 93.5001 596.512 92.2301 598.092 91.3301C599.672 90.4101 601.532 89.9501 603.672 89.9501C605.512 89.9501 607.152 90.3001 608.592 91.0001C610.052 91.6801 611.232 92.6501 612.132 93.9101C613.052 95.1701 613.662 96.6401 613.962 98.3201H606.942C606.622 97.6201 606.162 97.0801 605.562 96.7001C604.982 96.3001 604.312 96.1001 603.552 96.1001C602.432 96.1001 601.542 96.5201 600.882 97.3601C600.242 98.2001 599.922 99.3301 599.922 100.75C599.922 102.17 600.242 103.3 600.882 104.14C601.542 104.98 602.432 105.4 603.552 105.4C604.312 105.4 604.982 105.21 605.562 104.83C606.162 104.43 606.622 103.88 606.942 103.18H613.962C613.662 104.86 613.052 106.33 612.132 107.59C611.232 108.85 610.052 109.83 608.592 110.53C607.152 111.21 605.512 111.55 603.672 111.55C601.532 111.55 599.672 111.1 598.092 110.2C596.512 109.28 595.292 108 594.432 106.36C593.592 104.72 593.172 102.85 593.172 100.75ZM629.98 108.19H622.9L621.85 111.4H614.86L622.63 90.1601H630.31L638.05 111.4H631.03L629.98 108.19ZM628.36 103.18L626.44 97.2701L624.52 103.18H628.36ZM665.093 90.1601V111.4H658.463V100.81L655.193 111.4H649.493L646.223 100.81V111.4H639.563V90.1601H647.723L652.403 102.91L656.963 90.1601H665.093ZM685.468 97.4501C685.468 98.7901 685.158 100.01 684.538 101.11C683.918 102.19 682.998 103.05 681.778 103.69C680.578 104.33 679.118 104.65 677.398 104.65H674.758V111.4H668.098V90.1601H677.398C679.998 90.1601 681.988 90.8201 683.368 92.1401C684.768 93.4601 685.468 95.2301 685.468 97.4501ZM676.648 99.4001C678.028 99.4001 678.718 98.7501 678.718 97.4501C678.718 96.1501 678.028 95.5001 676.648 95.5001H674.758V99.4001H676.648ZM701.201 108.19H694.121L693.071 111.4H686.081L693.851 90.1601H701.531L709.271 111.4H702.251L701.201 108.19ZM699.581 103.18L697.661 97.2701L695.741 103.18H699.581ZM717.444 90.1601V111.4H710.784V90.1601H717.444ZM733.472 97.4201C733.212 97.0001 732.842 96.6801 732.362 96.4601C731.882 96.2201 731.302 96.1001 730.622 96.1001C729.342 96.1001 728.352 96.5201 727.652 97.3601C726.952 98.1801 726.602 99.3101 726.602 100.75C726.602 102.41 726.992 103.65 727.772 104.47C728.552 105.29 729.752 105.7 731.372 105.7C732.912 105.7 734.152 105.08 735.092 103.84H729.782V99.1301H740.612V105.79C739.692 107.37 738.422 108.73 736.802 109.87C735.182 110.99 733.132 111.55 730.652 111.55C728.452 111.55 726.532 111.1 724.892 110.2C723.272 109.28 722.022 108 721.142 106.36C720.282 104.72 719.852 102.85 719.852 100.75C719.852 98.6501 720.282 96.7801 721.142 95.1401C722.022 93.5001 723.272 92.2301 724.892 91.3301C726.512 90.4101 728.412 89.9501 730.592 89.9501C733.372 89.9501 735.632 90.6201 737.372 91.9601C739.132 93.3001 740.172 95.1201 740.492 97.4201H733.472ZM763.38 111.4H756.72L749.67 100.72V111.4H743.01V90.1601H749.67L756.72 101.02V90.1601H763.38V111.4ZM608.407 161.98V161.71C604.237 157.42 602.107 151.51 602.107 145.42C602.107 139.3 604.237 133 608.857 128.65V128.38H606.007C601.747 132.31 599.467 138.64 599.467 145.42C599.467 152.17 601.747 158.23 605.557 161.98H608.407ZM627.76 148.15C627.76 142.96 624.13 139.69 619.45 139.69C614.8 139.69 611.14 142.96 611.14 148.15C611.14 153.37 614.68 156.67 619.33 156.67C624.01 156.67 627.76 153.37 627.76 148.15ZM613.93 148.15C613.93 144.01 616.54 142.06 619.42 142.06C622.24 142.06 624.97 144.01 624.97 148.15C624.97 152.32 622.18 154.27 619.33 154.27C616.48 154.27 613.93 152.32 613.93 148.15ZM634.08 143.02V134.2H631.35V156.4H634.08V153.37C635.1 155.17 637.23 156.67 640.23 156.67C644.64 156.67 648.03 153.22 648.03 148.12C648.03 142.99 644.67 139.69 640.23 139.69C637.32 139.69 635.13 141.19 634.08 143.02ZM645.24 148.12C645.24 151.99 642.69 154.27 639.66 154.27C636.69 154.27 634.08 152.02 634.08 148.15C634.08 144.34 636.69 142.06 639.66 142.06C642.69 142.06 645.24 144.25 645.24 148.12ZM653.093 137.29C654.113 137.29 654.923 136.48 654.923 135.43C654.923 134.38 654.113 133.57 653.093 133.57C652.073 133.57 651.263 134.38 651.263 135.43C651.263 136.48 652.073 137.29 653.093 137.29ZM651.713 139.96V159.91C651.713 161.35 651.143 161.89 649.643 161.89H648.503V164.2H650.093C652.883 164.2 654.443 162.94 654.443 159.97V139.96H651.713ZM666.054 142C668.874 142 671.274 143.77 671.244 146.98H660.864C661.164 143.77 663.384 142 666.054 142ZM673.734 151.33H670.794C670.194 153.1 668.634 154.36 666.174 154.36C663.384 154.36 661.044 152.53 660.834 149.2H673.974C674.034 148.63 674.064 148.15 674.064 147.55C674.064 143.05 670.944 139.69 666.174 139.69C661.374 139.69 658.044 142.96 658.044 148.15C658.044 153.37 661.494 156.67 666.174 156.67C670.254 156.67 672.894 154.33 673.734 151.33ZM676.648 148.15C676.648 153.37 679.978 156.67 684.658 156.67C688.738 156.67 691.408 154.39 692.248 151.12H689.308C688.708 153.19 687.088 154.36 684.658 154.36C681.658 154.36 679.438 152.23 679.438 148.15C679.438 144.13 681.658 142 684.658 142C687.088 142 688.738 143.26 689.308 145.24H692.248C691.408 141.79 688.738 139.69 684.658 139.69C679.978 139.69 676.648 142.99 676.648 148.15ZM696.491 151.9C696.491 155.2 698.141 156.4 701.051 156.4H703.511V154.09H701.501C699.821 154.09 699.221 153.52 699.221 151.9V142.21H703.511V139.96H699.221V135.82H696.491V139.96H694.361V142.21H696.491V151.9ZM706.818 156.4H709.548V139.96H706.818V156.4ZM708.228 137.29C709.218 137.29 710.028 136.48 710.028 135.43C710.028 134.38 709.218 133.57 708.228 133.57C707.178 133.57 706.368 134.38 706.368 135.43C706.368 136.48 707.178 137.29 708.228 137.29ZM712.251 139.96L718.701 156.4H721.881L728.331 139.96H725.421L720.321 153.88L715.191 139.96H712.251ZM738.008 142C740.828 142 743.228 143.77 743.198 146.98H732.818C733.118 143.77 735.338 142 738.008 142ZM745.688 151.33H742.748C742.148 153.1 740.588 154.36 738.128 154.36C735.338 154.36 732.998 152.53 732.788 149.2H745.928C745.988 148.63 746.018 148.15 746.018 147.55C746.018 143.05 742.898 139.69 738.128 139.69C733.328 139.69 729.998 142.96 729.998 148.15C729.998 153.37 733.448 156.67 738.128 156.67C742.208 156.67 744.848 154.33 745.688 151.33ZM748.751 161.98V161.71C752.921 157.42 755.051 151.51 755.051 145.42C755.051 139.3 752.921 133 748.301 128.65V128.38H751.151C755.411 132.31 757.691 138.64 757.691 145.42C757.691 152.17 755.411 158.23 751.601 161.98H748.751Z" fill="black"/>
<rect x="193.549" y="374.382" width="419.776" height="108.329" rx="54.1647" fill="#00D563"/>
<path d="M366.306 411.482H359.226L358.176 414.692H351.186L358.956 393.452H366.636L374.376 414.692H367.356L366.306 411.482ZM364.686 406.472L362.766 400.562L360.846 406.472H364.686ZM384.739 393.452C386.959 393.452 388.899 393.902 390.559 394.802C392.239 395.702 393.529 396.952 394.429 398.552C395.329 400.152 395.779 401.972 395.779 404.012C395.779 406.032 395.329 407.852 394.429 409.472C393.529 411.092 392.239 412.372 390.559 413.312C388.899 414.232 386.959 414.692 384.739 414.692H375.889V393.452H384.739ZM384.139 408.752C385.639 408.752 386.829 408.342 387.709 407.522C388.589 406.702 389.029 405.532 389.029 404.012C389.029 402.492 388.589 401.322 387.709 400.502C386.829 399.682 385.639 399.272 384.139 399.272H382.549V408.752H384.139ZM411.592 414.902C409.052 414.902 406.952 414.312 405.292 413.132C403.652 411.932 402.762 410.182 402.622 407.882H409.702C409.802 409.102 410.342 409.712 411.322 409.712C411.682 409.712 411.982 409.632 412.222 409.472C412.482 409.292 412.612 409.022 412.612 408.662C412.612 408.162 412.342 407.762 411.802 407.462C411.262 407.142 410.422 406.782 409.282 406.382C407.922 405.902 406.792 405.432 405.892 404.972C405.012 404.512 404.252 403.842 403.612 402.962C402.972 402.082 402.662 400.952 402.682 399.572C402.682 398.192 403.032 397.022 403.732 396.062C404.452 395.082 405.422 394.342 406.642 393.842C407.882 393.342 409.272 393.092 410.812 393.092C413.412 393.092 415.472 393.692 416.992 394.892C418.532 396.092 419.342 397.782 419.422 399.962H412.252C412.232 399.362 412.082 398.932 411.802 398.672C411.522 398.412 411.182 398.282 410.782 398.282C410.502 398.282 410.272 398.382 410.092 398.582C409.912 398.762 409.822 399.022 409.822 399.362C409.822 399.842 410.082 400.242 410.602 400.562C411.142 400.862 411.992 401.232 413.152 401.672C414.492 402.172 415.592 402.652 416.452 403.112C417.332 403.572 418.092 404.212 418.732 405.032C419.372 405.852 419.692 406.882 419.692 408.122C419.692 409.422 419.372 410.592 418.732 411.632C418.092 412.652 417.162 413.452 415.942 414.032C414.722 414.612 413.272 414.902 411.592 414.902ZM428.692 398.762V401.372H435.292V406.382H428.692V409.382H436.192V414.692H422.032V393.452H436.192V398.762H428.692ZM455.382 393.452V398.732H449.742V414.692H443.082V398.732H437.502V393.452H455.382ZM249.143 445.04C247.967 443.912 247.061 442.478 246.425 440.738C245.801 438.998 245.489 437.132 245.489 435.14C245.489 433.1 245.825 431.174 246.497 429.362C247.181 427.55 248.183 426.056 249.503 424.88H251.627V425.078C250.247 426.35 249.209 427.874 248.513 429.65C247.817 431.426 247.469 433.256 247.469 435.14C247.469 436.952 247.793 438.704 248.441 440.396C249.089 442.088 250.031 443.57 251.267 444.842V445.04H249.143ZM261.008 439.136H255.77L254.87 441.692H252.728L257.21 429.164H259.586L264.068 441.692H261.908L261.008 439.136ZM260.432 437.462L258.398 431.648L256.346 437.462H260.432ZM268.051 429.182V437.156C268.051 438.104 268.297 438.818 268.789 439.298C269.293 439.778 269.989 440.018 270.877 440.018C271.777 440.018 272.473 439.778 272.965 439.298C273.469 438.818 273.721 438.104 273.721 437.156V429.182H275.773V437.12C275.773 438.14 275.551 439.004 275.107 439.712C274.663 440.42 274.069 440.948 273.325 441.296C272.581 441.644 271.759 441.818 270.859 441.818C269.959 441.818 269.137 441.644 268.393 441.296C267.661 440.948 267.079 440.42 266.647 439.712C266.215 439.004 265.999 438.14 265.999 437.12V429.182H268.051ZM282.53 429.182C283.862 429.182 285.026 429.44 286.022 429.956C287.03 430.46 287.804 431.192 288.344 432.152C288.896 433.1 289.172 434.21 289.172 435.482C289.172 436.754 288.896 437.858 288.344 438.794C287.804 439.73 287.03 440.45 286.022 440.954C285.026 441.446 283.862 441.692 282.53 441.692H278.444V429.182H282.53ZM282.53 440.018C283.994 440.018 285.116 439.622 285.896 438.83C286.676 438.038 287.066 436.922 287.066 435.482C287.066 434.03 286.676 432.896 285.896 432.08C285.116 431.264 283.994 430.856 282.53 430.856H280.496V440.018H282.53ZM293.258 429.182V441.692H291.206V429.182H293.258ZM298.004 430.838V434.51H302.324V436.184H298.004V440.018H302.864V441.692H295.952V429.164H302.864V430.838H298.004ZM315.67 441.692H313.618L307.444 432.35V441.692H305.392V429.164H307.444L313.618 438.488V429.164H315.67V441.692ZM317.68 435.41C317.68 434.186 317.962 433.088 318.526 432.116C319.102 431.144 319.876 430.388 320.848 429.848C321.832 429.296 322.906 429.02 324.07 429.02C325.402 429.02 326.584 429.35 327.616 430.01C328.66 430.658 329.416 431.582 329.884 432.782H327.418C327.094 432.122 326.644 431.63 326.068 431.306C325.492 430.982 324.826 430.82 324.07 430.82C323.242 430.82 322.504 431.006 321.856 431.378C321.208 431.75 320.698 432.284 320.326 432.98C319.966 433.676 319.786 434.486 319.786 435.41C319.786 436.334 319.966 437.144 320.326 437.84C320.698 438.536 321.208 439.076 321.856 439.46C322.504 439.832 323.242 440.018 324.07 440.018C324.826 440.018 325.492 439.856 326.068 439.532C326.644 439.208 327.094 438.716 327.418 438.056H329.884C329.416 439.256 328.66 440.18 327.616 440.828C326.584 441.476 325.402 441.8 324.07 441.8C322.894 441.8 321.82 441.53 320.848 440.99C319.876 440.438 319.102 439.676 318.526 438.704C317.962 437.732 317.68 436.634 317.68 435.41ZM334.338 430.838V434.51H338.658V436.184H334.338V440.018H339.198V441.692H332.286V429.164H339.198V430.838H334.338ZM343.976 439.226L341.798 444.194H340.466L341.744 439.226H343.976ZM359.192 432.908C359.192 433.544 359.042 434.144 358.742 434.708C358.442 435.272 357.962 435.734 357.302 436.094C356.642 436.442 355.796 436.616 354.764 436.616H352.496V441.692H350.444V429.182H354.764C355.724 429.182 356.534 429.35 357.194 429.686C357.866 430.01 358.364 430.454 358.688 431.018C359.024 431.582 359.192 432.212 359.192 432.908ZM354.764 434.942C355.544 434.942 356.126 434.768 356.51 434.42C356.894 434.06 357.086 433.556 357.086 432.908C357.086 431.54 356.312 430.856 354.764 430.856H352.496V434.942H354.764ZM363.202 440.036H367.432V441.692H361.15V429.182H363.202V440.036ZM376.69 439.136H371.452L370.552 441.692H368.41L372.892 429.164H375.268L379.75 441.692H377.59L376.69 439.136ZM376.114 437.462L374.08 431.648L372.028 437.462H376.114ZM381.014 435.41C381.014 434.186 381.296 433.088 381.86 432.116C382.436 431.144 383.21 430.388 384.182 429.848C385.166 429.296 386.24 429.02 387.404 429.02C388.736 429.02 389.918 429.35 390.95 430.01C391.994 430.658 392.75 431.582 393.218 432.782H390.752C390.428 432.122 389.978 431.63 389.402 431.306C388.826 430.982 388.16 430.82 387.404 430.82C386.576 430.82 385.838 431.006 385.19 431.378C384.542 431.75 384.032 432.284 383.66 432.98C383.3 433.676 383.12 434.486 383.12 435.41C383.12 436.334 383.3 437.144 383.66 437.84C384.032 438.536 384.542 439.076 385.19 439.46C385.838 439.832 386.576 440.018 387.404 440.018C388.16 440.018 388.826 439.856 389.402 439.532C389.978 439.208 390.428 438.716 390.752 438.056H393.218C392.75 439.256 391.994 440.18 390.95 440.828C389.918 441.476 388.736 441.8 387.404 441.8C386.228 441.8 385.154 441.53 384.182 440.99C383.21 440.438 382.436 439.676 381.86 438.704C381.296 437.732 381.014 436.634 381.014 435.41ZM397.672 430.838V434.51H401.992V436.184H397.672V440.018H402.532V441.692H395.62V429.164H402.532V430.838H397.672ZM418.236 429.182V441.692H416.184V433.124L412.368 441.692H410.946L407.112 433.124V441.692H405.06V429.182H407.274L411.666 438.992L416.04 429.182H418.236ZM422.985 430.838V434.51H427.305V436.184H422.985V440.018H427.845V441.692H420.933V429.164H427.845V430.838H422.985ZM440.65 441.692H438.598L432.424 432.35V441.692H430.372V429.164H432.424L438.598 438.488V429.164H440.65V441.692ZM451.427 429.182V430.856H448.097V441.692H446.045V430.856H442.697V429.182H451.427ZM467.847 441.692L466.299 440.144C465.699 440.744 465.045 441.194 464.337 441.494C463.629 441.782 462.837 441.926 461.961 441.926C461.073 441.926 460.287 441.77 459.603 441.458C458.919 441.146 458.391 440.702 458.019 440.126C457.647 439.538 457.461 438.86 457.461 438.092C457.461 437.228 457.707 436.46 458.199 435.788C458.691 435.104 459.423 434.564 460.395 434.168C460.047 433.748 459.801 433.358 459.657 432.998C459.513 432.626 459.441 432.218 459.441 431.774C459.441 431.222 459.579 430.73 459.855 430.298C460.143 429.866 460.551 429.524 461.079 429.272C461.607 429.02 462.219 428.894 462.915 428.894C463.623 428.894 464.223 429.032 464.715 429.308C465.219 429.572 465.591 429.938 465.831 430.406C466.083 430.874 466.185 431.396 466.137 431.972H464.085C464.097 431.528 463.989 431.186 463.761 430.946C463.533 430.694 463.221 430.568 462.825 430.568C462.429 430.568 462.105 430.688 461.853 430.928C461.613 431.156 461.493 431.438 461.493 431.774C461.493 432.098 461.583 432.422 461.763 432.746C461.955 433.058 462.285 433.466 462.753 433.97L466.065 437.264L467.343 435.158H469.557L467.937 437.93L467.487 438.668L470.529 441.692H467.847ZM461.961 440.18C463.089 440.18 464.085 439.718 464.949 438.794L461.637 435.464C460.221 436.028 459.513 436.88 459.513 438.02C459.513 438.632 459.741 439.148 460.197 439.568C460.653 439.976 461.241 440.18 461.961 440.18ZM483.246 435.266C483.918 435.386 484.488 435.74 484.956 436.328C485.424 436.916 485.658 437.582 485.658 438.326C485.658 438.962 485.49 439.538 485.154 440.054C484.83 440.558 484.356 440.96 483.732 441.26C483.108 441.548 482.382 441.692 481.554 441.692H476.55V429.182H481.32C482.172 429.182 482.904 429.326 483.516 429.614C484.128 429.902 484.59 430.292 484.902 430.784C485.214 431.264 485.37 431.804 485.37 432.404C485.37 433.124 485.178 433.724 484.794 434.204C484.41 434.684 483.894 435.038 483.246 435.266ZM478.602 434.438H481.14C481.812 434.438 482.334 434.288 482.706 433.988C483.09 433.676 483.282 433.232 483.282 432.656C483.282 432.092 483.09 431.654 482.706 431.342C482.334 431.018 481.812 430.856 481.14 430.856H478.602V434.438ZM481.374 440.018C482.07 440.018 482.616 439.85 483.012 439.514C483.408 439.178 483.606 438.71 483.606 438.11C483.606 437.498 483.396 437.012 482.976 436.652C482.556 436.292 481.998 436.112 481.302 436.112H478.602V440.018H481.374ZM489.922 429.182V437.156C489.922 438.104 490.168 438.818 490.66 439.298C491.164 439.778 491.86 440.018 492.748 440.018C493.648 440.018 494.344 439.778 494.836 439.298C495.34 438.818 495.592 438.104 495.592 437.156V429.182H497.644V437.12C497.644 438.14 497.422 439.004 496.978 439.712C496.534 440.42 495.94 440.948 495.196 441.296C494.452 441.644 493.63 441.818 492.73 441.818C491.83 441.818 491.008 441.644 490.264 441.296C489.532 440.948 488.95 440.42 488.518 439.712C488.086 439.004 487.87 438.14 487.87 437.12V429.182H489.922ZM504.402 429.182C505.734 429.182 506.898 429.44 507.894 429.956C508.902 430.46 509.676 431.192 510.216 432.152C510.768 433.1 511.044 434.21 511.044 435.482C511.044 436.754 510.768 437.858 510.216 438.794C509.676 439.73 508.902 440.45 507.894 440.954C506.898 441.446 505.734 441.692 504.402 441.692H500.316V429.182H504.402ZM504.402 440.018C505.866 440.018 506.988 439.622 507.768 438.83C508.548 438.038 508.938 436.922 508.938 435.482C508.938 434.03 508.548 432.896 507.768 432.08C506.988 431.264 505.866 430.856 504.402 430.856H502.368V440.018H504.402ZM522.131 432.782C521.807 432.158 521.357 431.69 520.781 431.378C520.205 431.054 519.539 430.892 518.783 430.892C517.955 430.892 517.217 431.078 516.569 431.45C515.921 431.822 515.411 432.35 515.039 433.034C514.679 433.718 514.499 434.51 514.499 435.41C514.499 436.31 514.679 437.108 515.039 437.804C515.411 438.488 515.921 439.016 516.569 439.388C517.217 439.76 517.955 439.946 518.783 439.946C519.899 439.946 520.805 439.634 521.501 439.01C522.197 438.386 522.623 437.54 522.779 436.472H518.081V434.834H524.975V436.436C524.843 437.408 524.495 438.302 523.931 439.118C523.379 439.934 522.653 440.588 521.753 441.08C520.865 441.56 519.875 441.8 518.783 441.8C517.607 441.8 516.533 441.53 515.561 440.99C514.589 440.438 513.815 439.676 513.239 438.704C512.675 437.732 512.393 436.634 512.393 435.41C512.393 434.186 512.675 433.088 513.239 432.116C513.815 431.144 514.589 430.388 515.561 429.848C516.545 429.296 517.619 429.02 518.783 429.02C520.115 429.02 521.297 429.35 522.329 430.01C523.373 430.658 524.129 431.582 524.597 432.782H522.131ZM529.051 430.838V434.51H533.371V436.184H529.051V440.018H533.911V441.692H526.999V429.164H533.911V430.838H529.051ZM544.521 429.182V430.856H541.191V441.692H539.139V430.856H535.791V429.182H544.521ZM560.941 441.692L559.393 440.144C558.793 440.744 558.139 441.194 557.431 441.494C556.723 441.782 555.931 441.926 555.055 441.926C554.167 441.926 553.381 441.77 552.697 441.458C552.013 441.146 551.485 440.702 551.113 440.126C550.741 439.538 550.555 438.86 550.555 438.092C550.555 437.228 550.801 436.46 551.293 435.788C551.785 435.104 552.517 434.564 553.489 434.168C553.141 433.748 552.895 433.358 552.751 432.998C552.607 432.626 552.535 432.218 552.535 431.774C552.535 431.222 552.673 430.73 552.949 430.298C553.237 429.866 553.645 429.524 554.173 429.272C554.701 429.02 555.313 428.894 556.009 428.894C556.717 428.894 557.317 429.032 557.809 429.308C558.313 429.572 558.685 429.938 558.925 430.406C559.177 430.874 559.279 431.396 559.231 431.972H557.179C557.191 431.528 557.083 431.186 556.855 430.946C556.627 430.694 556.315 430.568 555.919 430.568C555.523 430.568 555.199 430.688 554.947 430.928C554.707 431.156 554.587 431.438 554.587 431.774C554.587 432.098 554.677 432.422 554.857 432.746C555.049 433.058 555.379 433.466 555.847 433.97L559.159 437.264L560.437 435.158H562.651L561.031 437.93L560.581 438.668L563.623 441.692H560.941ZM555.055 440.18C556.183 440.18 557.179 439.718 558.043 438.794L554.731 435.464C553.315 436.028 552.607 436.88 552.607 438.02C552.607 438.632 552.835 439.148 553.291 439.568C553.747 439.976 554.335 440.18 555.055 440.18ZM357.37 468.818C356.53 468.818 355.774 468.674 355.102 468.386C354.43 468.086 353.902 467.666 353.518 467.126C353.134 466.586 352.942 465.956 352.942 465.236H355.138C355.186 465.776 355.396 466.22 355.768 466.568C356.152 466.916 356.686 467.09 357.37 467.09C358.078 467.09 358.63 466.922 359.026 466.586C359.422 466.238 359.62 465.794 359.62 465.254C359.62 464.834 359.494 464.492 359.242 464.228C359.002 463.964 358.696 463.76 358.324 463.616C357.964 463.472 357.46 463.316 356.812 463.148C355.996 462.932 355.33 462.716 354.814 462.5C354.31 462.272 353.878 461.924 353.518 461.456C353.158 460.988 352.978 460.364 352.978 459.584C352.978 458.864 353.158 458.234 353.518 457.694C353.878 457.154 354.382 456.74 355.03 456.452C355.678 456.164 356.428 456.02 357.28 456.02C358.492 456.02 359.482 456.326 360.25 456.938C361.03 457.538 361.462 458.366 361.546 459.422H359.278C359.242 458.966 359.026 458.576 358.63 458.252C358.234 457.928 357.712 457.766 357.064 457.766C356.476 457.766 355.996 457.916 355.624 458.216C355.252 458.516 355.066 458.948 355.066 459.512C355.066 459.896 355.18 460.214 355.408 460.466C355.648 460.706 355.948 460.898 356.308 461.042C356.668 461.186 357.16 461.342 357.784 461.51C358.612 461.738 359.284 461.966 359.8 462.194C360.328 462.422 360.772 462.776 361.132 463.256C361.504 463.724 361.69 464.354 361.69 465.146C361.69 465.782 361.516 466.382 361.168 466.946C360.832 467.51 360.334 467.966 359.674 468.314C359.026 468.65 358.258 468.818 357.37 468.818ZM363.427 462.41C363.427 461.186 363.709 460.088 364.273 459.116C364.849 458.144 365.623 457.388 366.595 456.848C367.579 456.296 368.653 456.02 369.817 456.02C371.149 456.02 372.331 456.35 373.363 457.01C374.407 457.658 375.163 458.582 375.631 459.782H373.165C372.841 459.122 372.391 458.63 371.815 458.306C371.239 457.982 370.573 457.82 369.817 457.82C368.989 457.82 368.251 458.006 367.603 458.378C366.955 458.75 366.445 459.284 366.073 459.98C365.713 460.676 365.533 461.486 365.533 462.41C365.533 463.334 365.713 464.144 366.073 464.84C366.445 465.536 366.955 466.076 367.603 466.46C368.251 466.832 368.989 467.018 369.817 467.018C370.573 467.018 371.239 466.856 371.815 466.532C372.391 466.208 372.841 465.716 373.165 465.056H375.631C375.163 466.256 374.407 467.18 373.363 467.828C372.331 468.476 371.149 468.8 369.817 468.8C368.641 468.8 367.567 468.53 366.595 467.99C365.623 467.438 364.849 466.676 364.273 465.704C363.709 464.732 363.427 463.634 363.427 462.41ZM388.023 456.182V468.692H385.971V463.22H380.085V468.692H378.033V456.182H380.085V461.546H385.971V456.182H388.023ZM392.777 457.838V461.51H397.097V463.184H392.777V467.018H397.637V468.692H390.725V456.164H397.637V457.838H392.777ZM404.25 456.182C405.582 456.182 406.746 456.44 407.742 456.956C408.75 457.46 409.524 458.192 410.064 459.152C410.616 460.1 410.892 461.21 410.892 462.482C410.892 463.754 410.616 464.858 410.064 465.794C409.524 466.73 408.75 467.45 407.742 467.954C406.746 468.446 405.582 468.692 404.25 468.692H400.164V456.182H404.25ZM404.25 467.018C405.714 467.018 406.836 466.622 407.616 465.83C408.396 465.038 408.786 463.922 408.786 462.482C408.786 461.03 408.396 459.896 407.616 459.08C406.836 458.264 405.714 457.856 404.25 457.856H402.216V467.018H404.25ZM414.96 456.182V464.156C414.96 465.104 415.206 465.818 415.698 466.298C416.202 466.778 416.898 467.018 417.786 467.018C418.686 467.018 419.382 466.778 419.874 466.298C420.378 465.818 420.63 465.104 420.63 464.156V456.182H422.682V464.12C422.682 465.14 422.46 466.004 422.016 466.712C421.572 467.42 420.978 467.948 420.234 468.296C419.49 468.644 418.668 468.818 417.768 468.818C416.868 468.818 416.046 468.644 415.302 468.296C414.57 467.948 413.988 467.42 413.556 466.712C413.124 466.004 412.908 465.14 412.908 464.12V456.182H414.96ZM427.406 467.036H431.636V468.692H425.354V456.182H427.406V467.036ZM435.404 457.838V461.51H439.724V463.184H435.404V467.018H440.264V468.692H433.352V456.164H440.264V457.838H435.404ZM446.963 472.04V471.842C448.199 470.57 449.141 469.088 449.789 467.396C450.437 465.704 450.761 463.952 450.761 462.14C450.761 460.256 450.413 458.426 449.717 456.65C449.021 454.874 447.983 453.35 446.603 452.078V451.88H448.727C450.047 453.056 451.043 454.55 451.715 456.362C452.399 458.174 452.741 460.1 452.741 462.14C452.741 464.132 452.423 465.998 451.787 467.738C451.163 469.478 450.263 470.912 449.087 472.04H446.963Z" fill="white"/>
<rect x="193.549" y="629.408" width="157.98" height="83.5039" rx="41.752" fill="#00D563"/>
<path d="M264.402 679.222H256.85L255.73 682.646H248.274L256.562 659.99H264.754L273.01 682.646H265.522L264.402 679.222ZM262.674 673.878L260.626 667.574L258.578 673.878H262.674ZM284.064 659.99C286.432 659.99 288.501 660.47 290.272 661.43C292.064 662.39 293.44 663.723 294.4 665.43C295.36 667.136 295.84 669.078 295.84 671.254C295.84 673.408 295.36 675.35 294.4 677.078C293.44 678.806 292.064 680.171 290.272 681.174C288.501 682.155 286.432 682.646 284.064 682.646H274.624V659.99H284.064ZM283.424 676.31C285.024 676.31 286.293 675.872 287.232 674.998C288.17 674.123 288.64 672.875 288.64 671.254C288.64 669.632 288.17 668.384 287.232 667.51C286.293 666.635 285.024 666.198 283.424 666.198H281.728V676.31H283.424Z" fill="white"/>
<rect x="744.563" y="629.408" width="157.98" height="83.5039" rx="41.752" fill="#00D563"/>
<path d="M815.415 679.222H807.863L806.743 682.646H799.287L807.575 659.99H815.767L824.023 682.646H816.535L815.415 679.222ZM813.687 673.878L811.639 667.574L809.591 673.878H813.687ZM835.077 659.99C837.445 659.99 839.515 660.47 841.285 661.43C843.077 662.39 844.453 663.723 845.413 665.43C846.373 667.136 846.853 669.078 846.853 671.254C846.853 673.408 846.373 675.35 845.413 677.078C844.453 678.806 843.077 680.171 841.285 681.174C839.515 682.155 837.445 682.646 835.077 682.646H825.637V659.99H835.077ZM834.437 676.31C836.037 676.31 837.307 675.872 838.245 674.998C839.184 674.123 839.653 672.875 839.653 671.254C839.653 669.632 839.184 668.384 838.245 667.51C837.307 666.635 836.037 666.198 834.437 666.198H832.741V676.31H834.437Z" fill="white"/>
<rect x="455.345" y="629.408" width="157.98" height="83.5039" rx="41.752" fill="#00D563"/>
<rect x="1006.36" y="629.408" width="157.98" height="83.5039" rx="41.752" fill="#00D563"/>
<rect x="744.224" y="374.382" width="419.776" height="108.329" rx="54.1647" fill="#00D563"/>
<path d="M404.937 486.712C404.937 485.883 404.266 485.212 403.437 485.212C402.609 485.212 401.937 485.883 401.937 486.712H404.937ZM271.479 626.468C272.064 627.054 273.014 627.054 273.6 626.468L283.146 616.922C283.732 616.337 283.732 615.387 283.146 614.801C282.56 614.215 281.61 614.215 281.024 614.801L272.539 623.286L264.054 614.801C263.468 614.215 262.518 614.215 261.933 614.801C261.347 615.387 261.347 616.337 261.933 616.922L271.479 626.468ZM274.039 625.408V622.687H271.039V625.408H274.039ZM274.039 619.059V613.617H271.039V619.059H274.039ZM274.039 609.989V604.548H271.039V609.989H274.039ZM274.039 600.92V595.478H271.039V600.92H274.039ZM274.039 591.85V586.408H271.039V591.85H274.039ZM274.039 582.781V580.06H271.039V582.781H274.039ZM274.039 580.06C274.039 579.163 274.092 578.28 274.193 577.412L271.214 577.062C271.098 578.046 271.039 579.046 271.039 580.06H274.039ZM274.879 573.949C275.363 572.229 276.047 570.592 276.904 569.065L274.287 567.597C273.316 569.328 272.54 571.184 271.991 573.136L274.879 573.949ZM278.868 566.13C279.964 564.742 281.221 563.485 282.61 562.389L280.751 560.034C279.178 561.275 277.755 562.699 276.513 564.272L278.868 566.13ZM285.544 560.424C287.072 559.567 288.708 558.883 290.428 558.399L289.615 555.511C287.664 556.061 285.807 556.836 284.076 557.808L285.544 560.424ZM293.891 557.714C294.759 557.612 295.643 557.56 296.539 557.56V554.56C295.526 554.56 294.526 554.619 293.542 554.734L293.891 557.714ZM296.539 557.56H299.648V554.56H296.539V557.56ZM303.793 557.56H310.01V554.56H303.793V557.56ZM314.155 557.56H320.372V554.56H314.155V557.56ZM324.517 557.56H330.735V554.56H324.517V557.56ZM334.88 557.56H341.097V554.56H334.88V557.56ZM345.242 557.56H351.459V554.56H345.242V557.56ZM355.604 557.56H361.821V554.56H355.604V557.56ZM365.966 557.56H372.184V554.56H365.966V557.56ZM376.329 557.56H379.437V554.56H376.329V557.56ZM379.437 557.56C380.451 557.56 381.451 557.5 382.434 557.385L382.085 554.406C381.217 554.507 380.334 554.56 379.437 554.56V557.56ZM386.361 556.608C388.313 556.059 390.169 555.283 391.9 554.311L390.432 551.695C388.905 552.552 387.268 553.236 385.548 553.72L386.361 556.608ZM395.225 552.086C396.798 550.844 398.221 549.421 399.463 547.848L397.108 545.989C396.012 547.378 394.755 548.634 393.367 549.731L395.225 552.086ZM401.689 544.523C402.661 542.791 403.436 540.935 403.986 538.983L401.098 538.17C400.614 539.891 399.93 541.527 399.073 543.054L401.689 544.523ZM404.763 535.057C404.878 534.073 404.937 533.073 404.937 532.06H401.937C401.937 532.956 401.885 533.84 401.783 534.708L404.763 535.057ZM404.937 532.06V529.339H401.937V532.06H404.937ZM404.937 525.711V520.269H401.937V525.711H404.937ZM404.937 516.641V511.2H401.937V516.641H404.937ZM404.937 507.572V502.13H401.937V507.572H404.937ZM404.937 498.502V493.06H401.937V498.502H404.937ZM404.937 489.433V486.712H401.937V489.433H404.937Z" fill="#CECCCC"/>
<path d="M955.612 486.712C955.612 485.883 954.94 485.212 954.112 485.212C953.283 485.212 952.612 485.883 952.612 486.712H955.612ZM822.492 626.468C823.078 627.054 824.028 627.054 824.614 626.468L834.16 616.922C834.745 616.337 834.745 615.387 834.16 614.801C833.574 614.215 832.624 614.215 832.038 614.801L823.553 623.286L815.068 614.801C814.482 614.215 813.532 614.215 812.946 614.801C812.361 615.387 812.361 616.337 812.946 616.922L822.492 626.468ZM825.053 625.408V622.687H822.053V625.408H825.053ZM825.053 619.059V613.617H822.053V619.059H825.053ZM825.053 609.989V604.548H822.053V609.989H825.053ZM825.053 600.92V595.478H822.053V600.92H825.053ZM825.053 591.85V586.408H822.053V591.85H825.053ZM825.053 582.781V580.06H822.053V582.781H825.053ZM825.053 580.06C825.053 579.163 825.105 578.28 825.207 577.412L822.227 577.062C822.112 578.046 822.053 579.046 822.053 580.06H825.053ZM825.892 573.949C826.377 572.229 827.06 570.592 827.917 569.065L825.301 567.597C824.33 569.328 823.554 571.184 823.005 573.136L825.892 573.949ZM829.882 566.13C830.978 564.741 832.235 563.485 833.624 562.389L831.765 560.034C830.192 561.275 828.769 562.699 827.527 564.272L829.882 566.13ZM836.558 560.424C838.085 559.567 839.722 558.883 841.442 558.399L840.629 555.511C838.678 556.061 836.821 556.836 835.09 557.808L836.558 560.424ZM844.905 557.714C845.773 557.612 846.657 557.56 847.553 557.56V554.56C846.54 554.56 845.539 554.619 844.556 554.734L844.905 557.714ZM847.553 557.56H850.649V554.56H847.553V557.56ZM854.777 557.56H860.969V554.56H854.777V557.56ZM865.097 557.56H871.289V554.56H865.097V557.56ZM875.417 557.56H881.609V554.56H875.417V557.56ZM885.736 557.56H891.928V554.56H885.736V557.56ZM896.056 557.56H902.248V554.56H896.056V557.56ZM906.376 557.56H912.568V554.56H906.376V557.56ZM916.696 557.56H922.888V554.56H916.696V557.56ZM927.016 557.56H930.112V554.56H927.016V557.56ZM930.112 557.56C931.125 557.56 932.125 557.5 933.109 557.385L932.76 554.406C931.892 554.507 931.008 554.56 930.112 554.56V557.56ZM937.036 556.608C938.987 556.059 940.844 555.283 942.575 554.311L941.107 551.695C939.58 552.552 937.943 553.236 936.223 553.72L937.036 556.608ZM945.9 552.086C947.473 550.844 948.896 549.421 950.138 547.848L947.783 545.989C946.687 547.378 945.43 548.634 944.041 549.731L945.9 552.086ZM952.364 544.523C953.335 542.791 954.111 540.935 954.66 538.983L951.773 538.17C951.288 539.891 950.605 541.527 949.747 543.054L952.364 544.523ZM955.437 535.057C955.553 534.073 955.612 533.073 955.612 532.06H952.612C952.612 532.956 952.559 533.84 952.458 534.708L955.437 535.057ZM955.612 532.06V529.339H952.612V532.06H955.612ZM955.612 525.711V520.269H952.612V525.711H955.612ZM955.612 516.641V511.2H952.612V516.641H955.612ZM955.612 507.572V502.13H952.612V507.572H955.612ZM955.612 498.502V493.06H952.612V498.502H955.612ZM955.612 489.433V486.712H952.612V489.433H955.612Z" fill="#CECCCC"/>
<path d="M404.937 486.712C404.937 485.883 404.266 485.212 403.437 485.212C402.609 485.212 401.937 485.883 401.937 486.712H404.937ZM533.275 626.468C533.86 627.054 534.81 627.054 535.396 626.468L544.942 616.922C545.528 616.337 545.528 615.387 544.942 614.801C544.356 614.215 543.406 614.215 542.821 614.801L534.335 623.286L525.85 614.801C525.264 614.215 524.314 614.215 523.729 614.801C523.143 615.387 523.143 616.337 523.729 616.922L533.275 626.468ZM401.937 486.712V489.433H404.937V486.712H401.937ZM401.937 493.06V498.502H404.937V493.06H401.937ZM401.937 502.13V507.572H404.937V502.13H401.937ZM401.937 511.2V516.641H404.937V511.2H401.937ZM401.937 520.269V525.711H404.937V520.269H401.937ZM401.937 529.339V532.06H404.937V529.339H401.937ZM401.937 532.06C401.937 533.073 401.996 534.073 402.112 535.057L405.091 534.708C404.99 533.84 404.937 532.956 404.937 532.06H401.937ZM402.889 538.983C403.438 540.935 404.214 542.791 405.185 544.523L407.802 543.054C406.945 541.527 406.261 539.891 405.777 538.17L402.889 538.983ZM407.411 547.848C408.653 549.421 410.076 550.844 411.649 552.086L413.508 549.731C412.119 548.634 410.862 547.378 409.766 545.989L407.411 547.848ZM414.974 554.311C416.705 555.283 418.562 556.059 420.514 556.608L421.326 553.72C419.606 553.236 417.97 552.552 416.442 551.695L414.974 554.311ZM424.44 557.385C425.424 557.5 426.424 557.56 427.437 557.56V554.56C426.541 554.56 425.657 554.507 424.789 554.406L424.44 557.385ZM427.437 557.56H430.546V554.56H427.437V557.56ZM434.691 557.56H440.908V554.56H434.691V557.56ZM445.053 557.56H451.27V554.56H445.053V557.56ZM455.415 557.56H461.633V554.56H455.415V557.56ZM465.778 557.56H471.995V554.56H465.778V557.56ZM476.14 557.56H482.357V554.56H476.14V557.56ZM486.502 557.56H492.719V554.56H486.502V557.56ZM496.864 557.56H503.082V554.56H496.864V557.56ZM507.227 557.56H510.335V554.56H507.227V557.56ZM510.335 557.56C511.232 557.56 512.115 557.612 512.983 557.714L513.332 554.734C512.349 554.619 511.349 554.56 510.335 554.56V557.56ZM516.446 558.399C518.166 558.883 519.803 559.567 521.33 560.424L522.798 557.808C521.067 556.836 519.211 556.061 517.259 555.511L516.446 558.399ZM524.265 562.389C525.653 563.485 526.91 564.741 528.006 566.13L530.361 564.272C529.119 562.699 527.696 561.275 526.123 560.034L524.265 562.389ZM529.971 569.065C530.828 570.592 531.512 572.229 531.996 573.949L534.884 573.136C534.334 571.184 533.559 569.328 532.587 567.597L529.971 569.065ZM532.681 577.412C532.783 578.28 532.835 579.163 532.835 580.06H535.835C535.835 579.046 535.776 578.046 535.661 577.062L532.681 577.412ZM532.835 580.06V582.781H535.835V580.06H532.835ZM532.835 586.408V591.85H535.835V586.408H532.835ZM532.835 595.478V600.92H535.835V595.478H532.835ZM532.835 604.548V609.989H535.835V604.548H532.835ZM532.835 613.617V619.059H535.835V613.617H532.835ZM532.835 622.687V625.408H535.835V622.687H532.835Z" fill="#CECCCC"/>
<path d="M955.612 486.712C955.612 485.883 954.94 485.212 954.112 485.212C953.283 485.212 952.612 485.883 952.612 486.712H955.612ZM1084.29 626.468C1084.87 627.054 1085.82 627.054 1086.41 626.468L1095.96 616.922C1096.54 616.337 1096.54 615.387 1095.96 614.801C1095.37 614.215 1094.42 614.215 1093.83 614.801L1085.35 623.286L1076.86 614.801C1076.28 614.215 1075.33 614.215 1074.74 614.801C1074.16 615.387 1074.16 616.337 1074.74 616.922L1084.29 626.468ZM952.612 486.712V489.433H955.612V486.712H952.612ZM952.612 493.06V498.502H955.612V493.06H952.612ZM952.612 502.13V507.572H955.612V502.13H952.612ZM952.612 511.2V516.641H955.612V511.2H952.612ZM952.612 520.269V525.711H955.612V520.269H952.612ZM952.612 529.339V532.06H955.612V529.339H952.612ZM952.612 532.06C952.612 533.073 952.671 534.073 952.786 535.057L955.766 534.708C955.664 533.84 955.612 532.956 955.612 532.06H952.612ZM953.563 538.983C954.113 540.935 954.888 542.791 955.86 544.523L958.476 543.054C957.619 541.527 956.935 539.891 956.451 538.17L953.563 538.983ZM958.086 547.848C959.328 549.421 960.751 550.844 962.324 552.086L964.183 549.731C962.794 548.634 961.537 547.378 960.441 545.989L958.086 547.848ZM965.649 554.311C967.38 555.283 969.236 556.059 971.188 556.608L972.001 553.72C970.281 553.236 968.644 552.552 967.117 551.695L965.649 554.311ZM975.115 557.385C976.098 557.5 977.098 557.56 978.112 557.56V554.56C977.215 554.56 976.332 554.507 975.464 554.406L975.115 557.385ZM978.112 557.56H981.233V554.56H978.112V557.56ZM985.395 557.56H991.638V554.56H985.395V557.56ZM995.8 557.56H1002.04V554.56H995.8V557.56ZM1006.2 557.56H1012.45V554.56H1006.2V557.56ZM1016.61 557.56H1022.85V554.56H1016.61V557.56ZM1027.01 557.56H1033.26V554.56H1027.01V557.56ZM1037.42 557.56H1043.66V554.56H1037.42V557.56ZM1047.82 557.56H1054.07V554.56H1047.82V557.56ZM1058.23 557.56H1061.35V554.56H1058.23V557.56ZM1061.35 557.56C1062.25 557.56 1063.13 557.612 1064 557.714L1064.35 554.734C1063.36 554.619 1062.36 554.56 1061.35 554.56V557.56ZM1067.46 558.399C1069.18 558.883 1070.82 559.567 1072.34 560.424L1073.81 557.808C1072.08 556.836 1070.22 556.061 1068.27 555.511L1067.46 558.399ZM1075.28 562.389C1076.67 563.485 1077.92 564.742 1079.02 566.13L1081.37 564.272C1080.13 562.699 1078.71 561.275 1077.14 560.034L1075.28 562.389ZM1080.98 569.065C1081.84 570.592 1082.53 572.229 1083.01 573.949L1085.9 573.136C1085.35 571.184 1084.57 569.328 1083.6 567.597L1080.98 569.065ZM1083.69 577.412C1083.8 578.28 1083.85 579.163 1083.85 580.06H1086.85C1086.85 579.046 1086.79 578.046 1086.67 577.062L1083.69 577.412ZM1083.85 580.06V582.781H1086.85V580.06H1083.85ZM1083.85 586.408V591.85H1086.85V586.408H1083.85ZM1083.85 595.478V600.92H1086.85V595.478H1083.85ZM1083.85 604.548V609.989H1086.85V604.548H1083.85ZM1083.85 613.617V619.059H1086.85V613.617H1083.85ZM1083.85 622.687V625.408H1086.85V622.687H1083.85Z" fill="#CECCCC"/>
<path d="M680.081 232C680.081 231.172 679.409 230.5 678.581 230.5C677.752 230.5 677.081 231.172 677.081 232H680.081ZM402.377 371.443C402.962 372.029 403.912 372.029 404.498 371.443L414.044 361.897C414.63 361.311 414.63 360.362 414.044 359.776C413.458 359.19 412.508 359.19 411.923 359.776L403.437 368.261L394.952 359.776C394.366 359.19 393.416 359.19 392.831 359.776C392.245 360.362 392.245 361.311 392.831 361.897L402.377 371.443ZM677.081 232V277.191H680.081V232H677.081ZM654.581 299.691H427.437V302.691H654.581V299.691ZM401.937 325.191V370.382H404.937V325.191H401.937ZM427.437 299.691C413.354 299.691 401.937 311.108 401.937 325.191H404.937C404.937 312.765 415.011 302.691 427.437 302.691V299.691ZM677.081 277.191C677.081 289.618 667.007 299.691 654.581 299.691V302.691C668.664 302.691 680.081 291.274 680.081 277.191H677.081Z" fill="#4ECB71"/>
<path d="M680.081 232C680.081 231.172 679.409 230.5 678.581 230.5C677.752 230.5 677.081 231.172 677.081 232H680.081ZM953.051 371.443C953.637 372.029 954.587 372.029 955.172 371.443L964.718 361.897C965.304 361.311 965.304 360.362 964.718 359.776C964.133 359.19 963.183 359.19 962.597 359.776L954.112 368.261L945.627 359.776C945.041 359.19 944.091 359.19 943.505 359.776C942.919 360.362 942.919 361.311 943.505 361.897L953.051 371.443ZM677.081 232V277.191H680.081V232H677.081ZM702.581 302.691H930.112V299.691H702.581V302.691ZM952.612 325.191V370.382H955.612V325.191H952.612ZM930.112 302.691C942.538 302.691 952.612 312.765 952.612 325.191H955.612C955.612 311.108 944.195 299.691 930.112 299.691V302.691ZM677.081 277.191C677.081 291.274 688.497 302.691 702.581 302.691V299.691C690.154 299.691 680.081 289.618 680.081 277.191H677.081Z" fill="#4ECB71"/>
<rect x="473.4" y="270.567" width="153.467" height="63.1922" rx="31.5961" fill="#F2F2F2"/>
<circle cx="493.4" cy="302.163" r="10" fill="#00D563"/>
<path d="M531.913 292.313V295.103H526.363V313.163H522.943V295.103H517.363V292.313H531.913ZM550.527 304.493C550.527 305.113 550.487 305.673 550.407 306.173H537.777C537.877 307.493 538.367 308.553 539.247 309.353C540.127 310.153 541.207 310.553 542.487 310.553C544.327 310.553 545.627 309.783 546.387 308.243H550.077C549.577 309.763 548.667 311.013 547.347 311.993C546.047 312.953 544.427 313.433 542.487 313.433C540.907 313.433 539.487 313.083 538.227 312.383C536.987 311.663 536.007 310.663 535.287 309.383C534.587 308.083 534.237 306.583 534.237 304.883C534.237 303.183 534.577 301.693 535.257 300.413C535.957 299.113 536.927 298.113 538.167 297.413C539.427 296.713 540.867 296.363 542.487 296.363C544.047 296.363 545.437 296.703 546.657 297.383C547.877 298.063 548.827 299.023 549.507 300.263C550.187 301.483 550.527 302.893 550.527 304.493ZM546.957 303.413C546.937 302.153 546.487 301.143 545.607 300.383C544.727 299.623 543.637 299.243 542.337 299.243C541.157 299.243 540.147 299.623 539.307 300.383C538.467 301.123 537.967 302.133 537.807 303.413H546.957ZM559.892 313.433C558.592 313.433 557.422 313.203 556.382 312.743C555.362 312.263 554.552 311.623 553.952 310.823C553.352 310.003 553.032 309.093 552.992 308.093H556.532C556.592 308.793 556.922 309.383 557.522 309.863C558.142 310.323 558.912 310.553 559.832 310.553C560.792 310.553 561.532 310.373 562.052 310.013C562.592 309.633 562.862 309.153 562.862 308.573C562.862 307.953 562.562 307.493 561.962 307.193C561.382 306.893 560.452 306.563 559.172 306.203C557.932 305.863 556.922 305.533 556.142 305.213C555.362 304.893 554.682 304.403 554.102 303.743C553.542 303.083 553.262 302.213 553.262 301.133C553.262 300.253 553.522 299.453 554.042 298.733C554.562 297.993 555.302 297.413 556.262 296.993C557.242 296.573 558.362 296.363 559.622 296.363C561.502 296.363 563.012 296.843 564.152 297.803C565.312 298.743 565.932 300.033 566.012 301.673H562.592C562.532 300.933 562.232 300.343 561.692 299.903C561.152 299.463 560.422 299.243 559.502 299.243C558.602 299.243 557.912 299.413 557.432 299.753C556.952 300.093 556.712 300.543 556.712 301.103C556.712 301.543 556.872 301.913 557.192 302.213C557.512 302.513 557.902 302.753 558.362 302.933C558.822 303.093 559.502 303.303 560.402 303.563C561.602 303.883 562.582 304.213 563.342 304.553C564.122 304.873 564.792 305.353 565.352 305.993C565.912 306.633 566.202 307.483 566.222 308.543C566.222 309.483 565.962 310.323 565.442 311.063C564.922 311.803 564.182 312.383 563.222 312.803C562.282 313.223 561.172 313.433 559.892 313.433ZM573.908 299.423V308.573C573.908 309.193 574.048 309.643 574.328 309.923C574.628 310.183 575.128 310.313 575.828 310.313H577.928V313.163H575.228C573.688 313.163 572.508 312.803 571.688 312.083C570.868 311.363 570.458 310.193 570.458 308.573V299.423H568.508V296.633H570.458V292.523H573.908V296.633H577.928V299.423H573.908ZM587.973 294.413V291.293H594.213V313.163H590.763V294.413H587.973Z" fill="black" fill-opacity="0.8"/>
<rect x="744" y="270.567" width="153.467" height="63.1922" rx="31.5961" fill="#F2F2F2"/>
<circle cx="764" cy="302.163" r="10" fill="#00D563"/>
<path d="M802.513 292.313V295.103H796.963V313.163H793.543V295.103H787.963V292.313H802.513ZM821.127 304.493C821.127 305.113 821.087 305.673 821.007 306.173H808.377C808.477 307.493 808.967 308.553 809.847 309.353C810.727 310.153 811.807 310.553 813.087 310.553C814.927 310.553 816.227 309.783 816.987 308.243H820.677C820.177 309.763 819.267 311.013 817.947 311.993C816.647 312.953 815.027 313.433 813.087 313.433C811.507 313.433 810.087 313.083 808.827 312.383C807.587 311.663 806.607 310.663 805.887 309.383C805.187 308.083 804.837 306.583 804.837 304.883C804.837 303.183 805.177 301.693 805.857 300.413C806.557 299.113 807.527 298.113 808.767 297.413C810.027 296.713 811.467 296.363 813.087 296.363C814.647 296.363 816.037 296.703 817.257 297.383C818.477 298.063 819.427 299.023 820.107 300.263C820.787 301.483 821.127 302.893 821.127 304.493ZM817.557 303.413C817.537 302.153 817.087 301.143 816.207 300.383C815.327 299.623 814.237 299.243 812.937 299.243C811.757 299.243 810.747 299.623 809.907 300.383C809.067 301.123 808.567 302.133 808.407 303.413H817.557ZM830.492 313.433C829.192 313.433 828.022 313.203 826.982 312.743C825.962 312.263 825.152 311.623 824.552 310.823C823.952 310.003 823.632 309.093 823.592 308.093H827.132C827.192 308.793 827.522 309.383 828.122 309.863C828.742 310.323 829.512 310.553 830.432 310.553C831.392 310.553 832.132 310.373 832.652 310.013C833.192 309.633 833.462 309.153 833.462 308.573C833.462 307.953 833.162 307.493 832.562 307.193C831.982 306.893 831.052 306.563 829.772 306.203C828.532 305.863 827.522 305.533 826.742 305.213C825.962 304.893 825.282 304.403 824.702 303.743C824.142 303.083 823.862 302.213 823.862 301.133C823.862 300.253 824.122 299.453 824.642 298.733C825.162 297.993 825.902 297.413 826.862 296.993C827.842 296.573 828.962 296.363 830.222 296.363C832.102 296.363 833.612 296.843 834.752 297.803C835.912 298.743 836.532 300.033 836.612 301.673H833.192C833.132 300.933 832.832 300.343 832.292 299.903C831.752 299.463 831.022 299.243 830.102 299.243C829.202 299.243 828.512 299.413 828.032 299.753C827.552 300.093 827.312 300.543 827.312 301.103C827.312 301.543 827.472 301.913 827.792 302.213C828.112 302.513 828.502 302.753 828.962 302.933C829.422 303.093 830.102 303.303 831.002 303.563C832.202 303.883 833.182 304.213 833.942 304.553C834.722 304.873 835.392 305.353 835.952 305.993C836.512 306.633 836.802 307.483 836.822 308.543C836.822 309.483 836.562 310.323 836.042 311.063C835.522 311.803 834.782 312.383 833.822 312.803C832.882 313.223 831.772 313.433 830.492 313.433ZM844.508 299.423V308.573C844.508 309.193 844.648 309.643 844.928 309.923C845.228 310.183 845.728 310.313 846.428 310.313H848.528V313.163H845.828C844.288 313.163 843.108 312.803 842.288 312.083C841.468 311.363 841.058 310.193 841.058 308.573V299.423H839.108V296.633H841.058V292.523H844.508V296.633H848.528V299.423H844.508ZM860.913 308.513C862.833 306.853 864.343 305.493 865.443 304.433C866.563 303.353 867.493 302.233 868.233 301.073C868.973 299.913 869.343 298.753 869.343 297.593C869.343 296.393 869.053 295.453 868.473 294.773C867.913 294.093 867.023 293.753 865.803 293.753C864.623 293.753 863.703 294.133 863.043 294.893C862.403 295.633 862.063 296.633 862.023 297.893H858.723C858.783 295.613 859.463 293.873 860.763 292.673C862.083 291.453 863.753 290.843 865.773 290.843C867.953 290.843 869.653 291.443 870.873 292.643C872.113 293.843 872.733 295.443 872.733 297.443C872.733 298.883 872.363 300.273 871.623 301.613C870.903 302.933 870.033 304.123 869.013 305.183C868.013 306.223 866.733 307.433 865.173 308.813L863.823 310.013H873.333V312.863H858.753V310.373L860.913 308.513Z" fill="black" fill-opacity="0.8"/>
<path d="M147.079 2H104.04C90.7847 2 80.0396 12.7452 80.0396 26V715.434C80.0396 728.689 90.7847 739.434 104.04 739.434H147.079" stroke="#CECCCC" stroke-width="3" stroke-miterlimit="0" stroke-linecap="round" stroke-linejoin="bevel"/>
<g clip-path="url(#clip0_141_46)">
</g>
<path d="M916.473 411.79H909.393L908.343 415H901.353L909.123 393.76H916.803L924.543 415H917.523L916.473 411.79ZM914.853 406.78L912.933 400.87L911.013 406.78H914.853ZM934.906 393.76C937.126 393.76 939.066 394.21 940.726 395.11C942.406 396.01 943.696 397.26 944.596 398.86C945.496 400.46 945.946 402.28 945.946 404.32C945.946 406.34 945.496 408.16 944.596 409.78C943.696 411.4 942.406 412.68 940.726 413.62C939.066 414.54 937.126 415 934.906 415H926.056V393.76H934.906ZM934.306 409.06C935.806 409.06 936.996 408.65 937.876 407.83C938.756 407.01 939.196 405.84 939.196 404.32C939.196 402.8 938.756 401.63 937.876 400.81C936.996 399.99 935.806 399.58 934.306 399.58H932.716V409.06H934.306ZM961.759 415.21C959.219 415.21 957.119 414.62 955.459 413.44C953.819 412.24 952.929 410.49 952.789 408.19H959.869C959.969 409.41 960.509 410.02 961.489 410.02C961.849 410.02 962.149 409.94 962.389 409.78C962.649 409.6 962.779 409.33 962.779 408.97C962.779 408.47 962.509 408.07 961.969 407.77C961.429 407.45 960.589 407.09 959.449 406.69C958.089 406.21 956.959 405.74 956.059 405.28C955.179 404.82 954.419 404.15 953.779 403.27C953.139 402.39 952.829 401.26 952.849 399.88C952.849 398.5 953.199 397.33 953.899 396.37C954.619 395.39 955.589 394.65 956.809 394.15C958.049 393.65 959.439 393.4 960.979 393.4C963.579 393.4 965.639 394 967.159 395.2C968.699 396.4 969.509 398.09 969.589 400.27H962.419C962.399 399.67 962.249 399.24 961.969 398.98C961.689 398.72 961.349 398.59 960.949 398.59C960.669 398.59 960.439 398.69 960.259 398.89C960.079 399.07 959.989 399.33 959.989 399.67C959.989 400.15 960.249 400.55 960.769 400.87C961.309 401.17 962.159 401.54 963.319 401.98C964.659 402.48 965.759 402.96 966.619 403.42C967.499 403.88 968.259 404.52 968.899 405.34C969.539 406.16 969.859 407.19 969.859 408.43C969.859 409.73 969.539 410.9 968.899 411.94C968.259 412.96 967.329 413.76 966.109 414.34C964.889 414.92 963.439 415.21 961.759 415.21ZM978.859 399.07V401.68H985.459V406.69H978.859V409.69H986.359V415H972.199V393.76H986.359V399.07H978.859ZM1005.55 393.76V399.04H999.909V415H993.249V399.04H987.669V393.76H1005.55ZM799.309 445.348C798.133 444.22 797.227 442.786 796.591 441.046C795.967 439.306 795.655 437.44 795.655 435.448C795.655 433.408 795.991 431.482 796.663 429.67C797.347 427.858 798.349 426.364 799.669 425.188H801.793V425.386C800.413 426.658 799.375 428.182 798.679 429.958C797.983 431.734 797.635 433.564 797.635 435.448C797.635 437.26 797.959 439.012 798.607 440.704C799.255 442.396 800.197 443.878 801.433 445.15V445.348H799.309ZM811.175 439.444H805.937L805.037 442H802.895L807.377 429.472H809.753L814.235 442H812.075L811.175 439.444ZM810.599 437.77L808.565 431.956L806.513 437.77H810.599ZM818.217 429.49V437.464C818.217 438.412 818.463 439.126 818.955 439.606C819.459 440.086 820.155 440.326 821.043 440.326C821.943 440.326 822.639 440.086 823.131 439.606C823.635 439.126 823.887 438.412 823.887 437.464V429.49H825.939V437.428C825.939 438.448 825.717 439.312 825.273 440.02C824.829 440.728 824.235 441.256 823.491 441.604C822.747 441.952 821.925 442.126 821.025 442.126C820.125 442.126 819.303 441.952 818.559 441.604C817.827 441.256 817.245 440.728 816.813 440.02C816.381 439.312 816.165 438.448 816.165 437.428V429.49H818.217ZM832.697 429.49C834.029 429.49 835.193 429.748 836.189 430.264C837.197 430.768 837.971 431.5 838.511 432.46C839.063 433.408 839.339 434.518 839.339 435.79C839.339 437.062 839.063 438.166 838.511 439.102C837.971 440.038 837.197 440.758 836.189 441.262C835.193 441.754 834.029 442 832.697 442H828.611V429.49H832.697ZM832.697 440.326C834.161 440.326 835.283 439.93 836.063 439.138C836.843 438.346 837.233 437.23 837.233 435.79C837.233 434.338 836.843 433.204 836.063 432.388C835.283 431.572 834.161 431.164 832.697 431.164H830.663V440.326H832.697ZM843.425 429.49V442H841.373V429.49H843.425ZM848.171 431.146V434.818H852.491V436.492H848.171V440.326H853.031V442H846.119V429.472H853.031V431.146H848.171ZM865.836 442H863.784L857.61 432.658V442H855.558V429.472H857.61L863.784 438.796V429.472H865.836V442ZM867.847 435.718C867.847 434.494 868.129 433.396 868.693 432.424C869.269 431.452 870.043 430.696 871.015 430.156C871.999 429.604 873.073 429.328 874.237 429.328C875.569 429.328 876.751 429.658 877.783 430.318C878.827 430.966 879.583 431.89 880.051 433.09H877.585C877.261 432.43 876.811 431.938 876.235 431.614C875.659 431.29 874.993 431.128 874.237 431.128C873.409 431.128 872.671 431.314 872.023 431.686C871.375 432.058 870.865 432.592 870.493 433.288C870.133 433.984 869.953 434.794 869.953 435.718C869.953 436.642 870.133 437.452 870.493 438.148C870.865 438.844 871.375 439.384 872.023 439.768C872.671 440.14 873.409 440.326 874.237 440.326C874.993 440.326 875.659 440.164 876.235 439.84C876.811 439.516 877.261 439.024 877.585 438.364H880.051C879.583 439.564 878.827 440.488 877.783 441.136C876.751 441.784 875.569 442.108 874.237 442.108C873.061 442.108 871.987 441.838 871.015 441.298C870.043 440.746 869.269 439.984 868.693 439.012C868.129 438.04 867.847 436.942 867.847 435.718ZM884.505 431.146V434.818H888.825V436.492H884.505V440.326H889.365V442H882.453V429.472H889.365V431.146H884.505ZM894.142 439.534L891.964 444.502H890.632L891.91 439.534H894.142ZM909.359 433.216C909.359 433.852 909.209 434.452 908.909 435.016C908.609 435.58 908.129 436.042 907.469 436.402C906.809 436.75 905.963 436.924 904.931 436.924H902.663V442H900.611V429.49H904.931C905.891 429.49 906.701 429.658 907.361 429.994C908.033 430.318 908.531 430.762 908.855 431.326C909.191 431.89 909.359 432.52 909.359 433.216ZM904.931 435.25C905.711 435.25 906.293 435.076 906.677 434.728C907.061 434.368 907.253 433.864 907.253 433.216C907.253 431.848 906.479 431.164 904.931 431.164H902.663V435.25H904.931ZM913.368 440.344H917.598V442H911.316V429.49H913.368V440.344ZM926.856 439.444H921.618L920.718 442H918.576L923.058 429.472H925.434L929.916 442H927.756L926.856 439.444ZM926.28 437.77L924.246 431.956L922.194 437.77H926.28ZM931.181 435.718C931.181 434.494 931.463 433.396 932.027 432.424C932.603 431.452 933.377 430.696 934.349 430.156C935.333 429.604 936.407 429.328 937.571 429.328C938.903 429.328 940.085 429.658 941.117 430.318C942.161 430.966 942.917 431.89 943.385 433.09H940.919C940.595 432.43 940.145 431.938 939.569 431.614C938.993 431.29 938.327 431.128 937.571 431.128C936.743 431.128 936.005 431.314 935.357 431.686C934.709 432.058 934.199 432.592 933.827 433.288C933.467 433.984 933.287 434.794 933.287 435.718C933.287 436.642 933.467 437.452 933.827 438.148C934.199 438.844 934.709 439.384 935.357 439.768C936.005 440.14 936.743 440.326 937.571 440.326C938.327 440.326 938.993 440.164 939.569 439.84C940.145 439.516 940.595 439.024 940.919 438.364H943.385C942.917 439.564 942.161 440.488 941.117 441.136C940.085 441.784 938.903 442.108 937.571 442.108C936.395 442.108 935.321 441.838 934.349 441.298C933.377 440.746 932.603 439.984 932.027 439.012C931.463 438.04 931.181 436.942 931.181 435.718ZM947.839 431.146V434.818H952.159V436.492H947.839V440.326H952.699V442H945.787V429.472H952.699V431.146H947.839ZM968.402 429.49V442H966.35V433.432L962.534 442H961.112L957.278 433.432V442H955.226V429.49H957.44L961.832 439.3L966.206 429.49H968.402ZM973.151 431.146V434.818H977.471V436.492H973.151V440.326H978.011V442H971.099V429.472H978.011V431.146H973.151ZM990.817 442H988.765L982.591 432.658V442H980.539V429.472H982.591L988.765 438.796V429.472H990.817V442ZM1001.59 429.49V431.164H998.264V442H996.212V431.164H992.864V429.49H1001.59ZM1018.01 442L1016.47 440.452C1015.87 441.052 1015.21 441.502 1014.5 441.802C1013.8 442.09 1013 442.234 1012.13 442.234C1011.24 442.234 1010.45 442.078 1009.77 441.766C1009.09 441.454 1008.56 441.01 1008.19 440.434C1007.81 439.846 1007.63 439.168 1007.63 438.4C1007.63 437.536 1007.87 436.768 1008.37 436.096C1008.86 435.412 1009.59 434.872 1010.56 434.476C1010.21 434.056 1009.97 433.666 1009.82 433.306C1009.68 432.934 1009.61 432.526 1009.61 432.082C1009.61 431.53 1009.75 431.038 1010.02 430.606C1010.31 430.174 1010.72 429.832 1011.25 429.58C1011.77 429.328 1012.39 429.202 1013.08 429.202C1013.79 429.202 1014.39 429.34 1014.88 429.616C1015.39 429.88 1015.76 430.246 1016 430.714C1016.25 431.182 1016.35 431.704 1016.3 432.28H1014.25C1014.26 431.836 1014.16 431.494 1013.93 431.254C1013.7 431.002 1013.39 430.876 1012.99 430.876C1012.6 430.876 1012.27 430.996 1012.02 431.236C1011.78 431.464 1011.66 431.746 1011.66 432.082C1011.66 432.406 1011.75 432.73 1011.93 433.054C1012.12 433.366 1012.45 433.774 1012.92 434.278L1016.23 437.572L1017.51 435.466H1019.72L1018.1 438.238L1017.65 438.976L1020.7 442H1018.01ZM1012.13 440.488C1013.26 440.488 1014.25 440.026 1015.12 439.102L1011.8 435.772C1010.39 436.336 1009.68 437.188 1009.68 438.328C1009.68 438.94 1009.91 439.456 1010.36 439.876C1010.82 440.284 1011.41 440.488 1012.13 440.488ZM1033.41 435.574C1034.08 435.694 1034.65 436.048 1035.12 436.636C1035.59 437.224 1035.82 437.89 1035.82 438.634C1035.82 439.27 1035.66 439.846 1035.32 440.362C1035 440.866 1034.52 441.268 1033.9 441.568C1033.27 441.856 1032.55 442 1031.72 442H1026.72V429.49H1031.49C1032.34 429.49 1033.07 429.634 1033.68 429.922C1034.29 430.21 1034.76 430.6 1035.07 431.092C1035.38 431.572 1035.54 432.112 1035.54 432.712C1035.54 433.432 1035.34 434.032 1034.96 434.512C1034.58 434.992 1034.06 435.346 1033.41 435.574ZM1028.77 434.746H1031.31C1031.98 434.746 1032.5 434.596 1032.87 434.296C1033.26 433.984 1033.45 433.54 1033.45 432.964C1033.45 432.4 1033.26 431.962 1032.87 431.65C1032.5 431.326 1031.98 431.164 1031.31 431.164H1028.77V434.746ZM1031.54 440.326C1032.24 440.326 1032.78 440.158 1033.18 439.822C1033.57 439.486 1033.77 439.018 1033.77 438.418C1033.77 437.806 1033.56 437.32 1033.14 436.96C1032.72 436.6 1032.16 436.42 1031.47 436.42H1028.77V440.326H1031.54ZM1040.09 429.49V437.464C1040.09 438.412 1040.33 439.126 1040.83 439.606C1041.33 440.086 1042.03 440.326 1042.91 440.326C1043.81 440.326 1044.51 440.086 1045 439.606C1045.51 439.126 1045.76 438.412 1045.76 437.464V429.49H1047.81V437.428C1047.81 438.448 1047.59 439.312 1047.14 440.02C1046.7 440.728 1046.11 441.256 1045.36 441.604C1044.62 441.952 1043.8 442.126 1042.9 442.126C1042 442.126 1041.17 441.952 1040.43 441.604C1039.7 441.256 1039.12 440.728 1038.68 440.02C1038.25 439.312 1038.04 438.448 1038.04 437.428V429.49H1040.09ZM1054.57 429.49C1055.9 429.49 1057.06 429.748 1058.06 430.264C1059.07 430.768 1059.84 431.5 1060.38 432.46C1060.93 433.408 1061.21 434.518 1061.21 435.79C1061.21 437.062 1060.93 438.166 1060.38 439.102C1059.84 440.038 1059.07 440.758 1058.06 441.262C1057.06 441.754 1055.9 442 1054.57 442H1050.48V429.49H1054.57ZM1054.57 440.326C1056.03 440.326 1057.15 439.93 1057.93 439.138C1058.71 438.346 1059.1 437.23 1059.1 435.79C1059.1 434.338 1058.71 433.204 1057.93 432.388C1057.15 431.572 1056.03 431.164 1054.57 431.164H1052.53V440.326H1054.57ZM1072.3 433.09C1071.97 432.466 1071.52 431.998 1070.95 431.686C1070.37 431.362 1069.71 431.2 1068.95 431.2C1068.12 431.2 1067.38 431.386 1066.74 431.758C1066.09 432.13 1065.58 432.658 1065.21 433.342C1064.85 434.026 1064.67 434.818 1064.67 435.718C1064.67 436.618 1064.85 437.416 1065.21 438.112C1065.58 438.796 1066.09 439.324 1066.74 439.696C1067.38 440.068 1068.12 440.254 1068.95 440.254C1070.07 440.254 1070.97 439.942 1071.67 439.318C1072.36 438.694 1072.79 437.848 1072.95 436.78H1068.25V435.142H1075.14V436.744C1075.01 437.716 1074.66 438.61 1074.1 439.426C1073.55 440.242 1072.82 440.896 1071.92 441.388C1071.03 441.868 1070.04 442.108 1068.95 442.108C1067.77 442.108 1066.7 441.838 1065.73 441.298C1064.76 440.746 1063.98 439.984 1063.41 439.012C1062.84 438.04 1062.56 436.942 1062.56 435.718C1062.56 434.494 1062.84 433.396 1063.41 432.424C1063.98 431.452 1064.76 430.696 1065.73 430.156C1066.71 429.604 1067.79 429.328 1068.95 429.328C1070.28 429.328 1071.46 429.658 1072.5 430.318C1073.54 430.966 1074.3 431.89 1074.76 433.09H1072.3ZM1079.22 431.146V434.818H1083.54V436.492H1079.22V440.326H1084.08V442H1077.17V429.472H1084.08V431.146H1079.22ZM1094.69 429.49V431.164H1091.36V442H1089.31V431.164H1085.96V429.49H1094.69ZM1111.11 442L1109.56 440.452C1108.96 441.052 1108.31 441.502 1107.6 441.802C1106.89 442.09 1106.1 442.234 1105.22 442.234C1104.33 442.234 1103.55 442.078 1102.86 441.766C1102.18 441.454 1101.65 441.01 1101.28 440.434C1100.91 439.846 1100.72 439.168 1100.72 438.4C1100.72 437.536 1100.97 436.768 1101.46 436.096C1101.95 435.412 1102.68 434.872 1103.66 434.476C1103.31 434.056 1103.06 433.666 1102.92 433.306C1102.77 432.934 1102.7 432.526 1102.7 432.082C1102.7 431.53 1102.84 431.038 1103.12 430.606C1103.4 430.174 1103.81 429.832 1104.34 429.58C1104.87 429.328 1105.48 429.202 1106.18 429.202C1106.88 429.202 1107.48 429.34 1107.98 429.616C1108.48 429.88 1108.85 430.246 1109.09 430.714C1109.34 431.182 1109.45 431.704 1109.4 432.28H1107.35C1107.36 431.836 1107.25 431.494 1107.02 431.254C1106.79 431.002 1106.48 430.876 1106.09 430.876C1105.69 430.876 1105.37 430.996 1105.11 431.236C1104.87 431.464 1104.75 431.746 1104.75 432.082C1104.75 432.406 1104.84 432.73 1105.02 433.054C1105.22 433.366 1105.55 433.774 1106.01 434.278L1109.33 437.572L1110.6 435.466H1112.82L1111.2 438.238L1110.75 438.976L1113.79 442H1111.11ZM1105.22 440.488C1106.35 440.488 1107.35 440.026 1108.21 439.102L1104.9 435.772C1103.48 436.336 1102.77 437.188 1102.77 438.328C1102.77 438.94 1103 439.456 1103.46 439.876C1103.91 440.284 1104.5 440.488 1105.22 440.488ZM907.537 469.126C906.697 469.126 905.941 468.982 905.269 468.694C904.597 468.394 904.069 467.974 903.685 467.434C903.301 466.894 903.109 466.264 903.109 465.544H905.305C905.353 466.084 905.563 466.528 905.935 466.876C906.319 467.224 906.853 467.398 907.537 467.398C908.245 467.398 908.797 467.23 909.193 466.894C909.589 466.546 909.787 466.102 909.787 465.562C909.787 465.142 909.661 464.8 909.409 464.536C909.169 464.272 908.863 464.068 908.491 463.924C908.131 463.78 907.627 463.624 906.979 463.456C906.163 463.24 905.497 463.024 904.981 462.808C904.477 462.58 904.045 462.232 903.685 461.764C903.325 461.296 903.145 460.672 903.145 459.892C903.145 459.172 903.325 458.542 903.685 458.002C904.045 457.462 904.549 457.048 905.197 456.76C905.845 456.472 906.595 456.328 907.447 456.328C908.659 456.328 909.649 456.634 910.417 457.246C911.197 457.846 911.629 458.674 911.713 459.73H909.445C909.409 459.274 909.193 458.884 908.797 458.56C908.401 458.236 907.879 458.074 907.231 458.074C906.643 458.074 906.163 458.224 905.791 458.524C905.419 458.824 905.233 459.256 905.233 459.82C905.233 460.204 905.347 460.522 905.575 460.774C905.815 461.014 906.115 461.206 906.475 461.35C906.835 461.494 907.327 461.65 907.951 461.818C908.779 462.046 909.451 462.274 909.967 462.502C910.495 462.73 910.939 463.084 911.299 463.564C911.671 464.032 911.857 464.662 911.857 465.454C911.857 466.09 911.683 466.69 911.335 467.254C910.999 467.818 910.501 468.274 909.841 468.622C909.193 468.958 908.425 469.126 907.537 469.126ZM913.594 462.718C913.594 461.494 913.876 460.396 914.44 459.424C915.016 458.452 915.79 457.696 916.762 457.156C917.746 456.604 918.82 456.328 919.984 456.328C921.316 456.328 922.498 456.658 923.53 457.318C924.574 457.966 925.33 458.89 925.798 460.09H923.332C923.008 459.43 922.558 458.938 921.982 458.614C921.406 458.29 920.74 458.128 919.984 458.128C919.156 458.128 918.418 458.314 917.77 458.686C917.122 459.058 916.612 459.592 916.24 460.288C915.88 460.984 915.7 461.794 915.7 462.718C915.7 463.642 915.88 464.452 916.24 465.148C916.612 465.844 917.122 466.384 917.77 466.768C918.418 467.14 919.156 467.326 919.984 467.326C920.74 467.326 921.406 467.164 921.982 466.84C922.558 466.516 923.008 466.024 923.332 465.364H925.798C925.33 466.564 924.574 467.488 923.53 468.136C922.498 468.784 921.316 469.108 919.984 469.108C918.808 469.108 917.734 468.838 916.762 468.298C915.79 467.746 915.016 466.984 914.44 466.012C913.876 465.04 913.594 463.942 913.594 462.718ZM938.19 456.49V469H936.138V463.528H930.252V469H928.2V456.49H930.252V461.854H936.138V456.49H938.19ZM942.943 458.146V461.818H947.263V463.492H942.943V467.326H947.803V469H940.891V456.472H947.803V458.146H942.943ZM954.417 456.49C955.749 456.49 956.913 456.748 957.909 457.264C958.917 457.768 959.691 458.5 960.231 459.46C960.783 460.408 961.059 461.518 961.059 462.79C961.059 464.062 960.783 465.166 960.231 466.102C959.691 467.038 958.917 467.758 957.909 468.262C956.913 468.754 955.749 469 954.417 469H950.331V456.49H954.417ZM954.417 467.326C955.881 467.326 957.003 466.93 957.783 466.138C958.563 465.346 958.953 464.23 958.953 462.79C958.953 461.338 958.563 460.204 957.783 459.388C957.003 458.572 955.881 458.164 954.417 458.164H952.383V467.326H954.417ZM965.127 456.49V464.464C965.127 465.412 965.373 466.126 965.865 466.606C966.369 467.086 967.065 467.326 967.953 467.326C968.853 467.326 969.549 467.086 970.041 466.606C970.545 466.126 970.797 465.412 970.797 464.464V456.49H972.849V464.428C972.849 465.448 972.627 466.312 972.183 467.02C971.739 467.728 971.145 468.256 970.401 468.604C969.657 468.952 968.835 469.126 967.935 469.126C967.035 469.126 966.213 468.952 965.469 468.604C964.737 468.256 964.155 467.728 963.723 467.02C963.291 466.312 963.075 465.448 963.075 464.428V456.49H965.127ZM977.572 467.344H981.802V469H975.52V456.49H977.572V467.344ZM985.57 458.146V461.818H989.89V463.492H985.57V467.326H990.43V469H983.518V456.472H990.43V458.146H985.57ZM997.13 472.348V472.15C998.366 470.878 999.308 469.396 999.956 467.704C1000.6 466.012 1000.93 464.26 1000.93 462.448C1000.93 460.564 1000.58 458.734 999.884 456.958C999.188 455.182 998.15 453.658 996.77 452.386V452.188H998.894C1000.21 453.364 1001.21 454.858 1001.88 456.67C1002.57 458.482 1002.91 460.408 1002.91 462.448C1002.91 464.44 1002.59 466.306 1001.95 468.046C1001.33 469.786 1000.43 471.22 999.254 472.348H997.13Z" fill="white"/>
<path d="M528.606 679.222H521.054L519.934 682.646H512.478L520.766 659.99H528.958L537.214 682.646H529.726L528.606 679.222ZM526.878 673.878L524.83 667.574L522.782 673.878H526.878ZM548.268 659.99C550.636 659.99 552.705 660.47 554.476 661.43C556.268 662.39 557.644 663.723 558.604 665.43C559.564 667.136 560.044 669.078 560.044 671.254C560.044 673.408 559.564 675.35 558.604 677.078C557.644 678.806 556.268 680.171 554.476 681.174C552.705 682.155 550.636 682.646 548.268 682.646H538.828V659.99H548.268ZM547.628 676.31C549.228 676.31 550.497 675.872 551.436 674.998C552.374 674.123 552.844 672.875 552.844 671.254C552.844 669.632 552.374 668.384 551.436 667.51C550.497 666.635 549.228 666.198 547.628 666.198H545.932V676.31H547.628Z" fill="white"/>
<path d="M1079.62 679.222H1072.07L1070.95 682.646H1063.49L1071.78 659.99H1079.97L1088.23 682.646H1080.74L1079.62 679.222ZM1077.89 673.878L1075.84 667.574L1073.8 673.878H1077.89ZM1099.28 659.99C1101.65 659.99 1103.72 660.47 1105.49 661.43C1107.28 662.39 1108.66 663.723 1109.62 665.43C1110.58 667.136 1111.06 669.078 1111.06 671.254C1111.06 673.408 1110.58 675.35 1109.62 677.078C1108.66 678.806 1107.28 680.171 1105.49 681.174C1103.72 682.155 1101.65 682.646 1099.28 682.646H1089.84V659.99H1099.28ZM1098.64 676.31C1100.24 676.31 1101.51 675.872 1102.45 674.998C1103.39 674.123 1103.86 672.875 1103.86 671.254C1103.86 669.632 1103.39 668.384 1102.45 667.51C1101.51 666.635 1100.24 666.198 1098.64 666.198H1096.95V676.31H1098.64Z" fill="white"/>
<defs>
<clipPath id="clip0_141_46">
<rect width="62" height="464" fill="white" transform="translate(0 127)"/>
</clipPath>
</defs>
</svg>
