<svg width="1152" height="741" viewBox="0 0 1152 741" fill="none" xmlns="http://www.w3.org/2000/svg">
<rect x="459.081" y="21.5" width="413" height="203" rx="16.5" fill="#F2F2F2" stroke="#00D563" stroke-width="7"/>
<path d="M580.172 100.75C580.172 98.6501 580.592 96.7801 581.432 95.1401C582.292 93.5001 583.512 92.2301 585.092 91.3301C586.672 90.4101 588.532 89.9501 590.672 89.9501C592.512 89.9501 594.152 90.3001 595.592 91.0001C597.052 91.6801 598.232 92.6501 599.132 93.9101C600.052 95.1701 600.662 96.6401 600.962 98.3201H593.942C593.622 97.6201 593.162 97.0801 592.562 96.7001C591.982 96.3001 591.312 96.1001 590.552 96.1001C589.432 96.1001 588.542 96.5201 587.882 97.3601C587.242 98.2001 586.922 99.3301 586.922 100.75C586.922 102.17 587.242 103.3 587.882 104.14C588.542 104.98 589.432 105.4 590.552 105.4C591.312 105.4 591.982 105.21 592.562 104.83C593.162 104.43 593.622 103.88 593.942 103.18H600.962C600.662 104.86 600.052 106.33 599.132 107.59C598.232 108.85 597.052 109.83 595.592 110.53C594.152 111.21 592.512 111.55 590.672 111.55C588.532 111.55 586.672 111.1 585.092 110.2C583.512 109.28 582.292 108 581.432 106.36C580.592 104.72 580.172 102.85 580.172 100.75ZM616.98 108.19H609.9L608.85 111.4H601.86L609.63 90.1601H617.31L625.05 111.4H618.03L616.98 108.19ZM615.36 103.18L613.44 97.2701L611.52 103.18H615.36ZM652.093 90.1601V111.4H645.463V100.81L642.193 111.4H636.493L633.223 100.81V111.4H626.563V90.1601H634.723L639.403 102.91L643.963 90.1601H652.093ZM672.468 97.4501C672.468 98.7901 672.158 100.01 671.538 101.11C670.918 102.19 669.998 103.05 668.778 103.69C667.578 104.33 666.118 104.65 664.398 104.65H661.758V111.4H655.098V90.1601H664.398C666.998 90.1601 668.988 90.8201 670.368 92.1401C671.768 93.4601 672.468 95.2301 672.468 97.4501ZM663.648 99.4001C665.028 99.4001 665.718 98.7501 665.718 97.4501C665.718 96.1501 665.028 95.5001 663.648 95.5001H661.758V99.4001H663.648ZM688.201 108.19H681.121L680.071 111.4H673.081L680.851 90.1601H688.531L696.271 111.4H689.251L688.201 108.19ZM686.581 103.18L684.661 97.2701L682.741 103.18H686.581ZM704.444 90.1601V111.4H697.784V90.1601H704.444ZM720.472 97.4201C720.212 97.0001 719.842 96.6801 719.362 96.4601C718.882 96.2201 718.302 96.1001 717.622 96.1001C716.342 96.1001 715.352 96.5201 714.652 97.3601C713.952 98.1801 713.602 99.3101 713.602 100.75C713.602 102.41 713.992 103.65 714.772 104.47C715.552 105.29 716.752 105.7 718.372 105.7C719.912 105.7 721.152 105.08 722.092 103.84H716.782V99.1301H727.612V105.79C726.692 107.37 725.422 108.73 723.802 109.87C722.182 110.99 720.132 111.55 717.652 111.55C715.452 111.55 713.532 111.1 711.892 110.2C710.272 109.28 709.022 108 708.142 106.36C707.282 104.72 706.852 102.85 706.852 100.75C706.852 98.6501 707.282 96.7801 708.142 95.1401C709.022 93.5001 710.272 92.2301 711.892 91.3301C713.512 90.4101 715.412 89.9501 717.592 89.9501C720.372 89.9501 722.632 90.6201 724.372 91.9601C726.132 93.3001 727.172 95.1201 727.492 97.4201H720.472ZM750.38 111.4H743.72L736.67 100.72V111.4H730.01V90.1601H736.67L743.72 101.02V90.1601H750.38V111.4ZM595.407 161.98V161.71C591.237 157.42 589.107 151.51 589.107 145.42C589.107 139.3 591.237 133 595.857 128.65V128.38H593.007C588.747 132.31 586.467 138.64 586.467 145.42C586.467 152.17 588.747 158.23 592.557 161.98H595.407ZM614.76 148.15C614.76 142.96 611.13 139.69 606.45 139.69C601.8 139.69 598.14 142.96 598.14 148.15C598.14 153.37 601.68 156.67 606.33 156.67C611.01 156.67 614.76 153.37 614.76 148.15ZM600.93 148.15C600.93 144.01 603.54 142.06 606.42 142.06C609.24 142.06 611.97 144.01 611.97 148.15C611.97 152.32 609.18 154.27 606.33 154.27C603.48 154.27 600.93 152.32 600.93 148.15ZM621.08 143.02V134.2H618.35V156.4H621.08V153.37C622.1 155.17 624.23 156.67 627.23 156.67C631.64 156.67 635.03 153.22 635.03 148.12C635.03 142.99 631.67 139.69 627.23 139.69C624.32 139.69 622.13 141.19 621.08 143.02ZM632.24 148.12C632.24 151.99 629.69 154.27 626.66 154.27C623.69 154.27 621.08 152.02 621.08 148.15C621.08 144.34 623.69 142.06 626.66 142.06C629.69 142.06 632.24 144.25 632.24 148.12ZM640.093 137.29C641.113 137.29 641.923 136.48 641.923 135.43C641.923 134.38 641.113 133.57 640.093 133.57C639.073 133.57 638.263 134.38 638.263 135.43C638.263 136.48 639.073 137.29 640.093 137.29ZM638.713 139.96V159.91C638.713 161.35 638.143 161.89 636.643 161.89H635.503V164.2H637.093C639.883 164.2 641.443 162.94 641.443 159.97V139.96H638.713ZM653.055 142C655.875 142 658.275 143.77 658.245 146.98H647.865C648.165 143.77 650.385 142 653.055 142ZM660.735 151.33H657.795C657.195 153.1 655.635 154.36 653.175 154.36C650.385 154.36 648.045 152.53 647.835 149.2H660.975C661.035 148.63 661.065 148.15 661.065 147.55C661.065 143.05 657.945 139.69 653.175 139.69C648.375 139.69 645.045 142.96 645.045 148.15C645.045 153.37 648.495 156.67 653.175 156.67C657.255 156.67 659.895 154.33 660.735 151.33ZM663.648 148.15C663.648 153.37 666.978 156.67 671.658 156.67C675.738 156.67 678.408 154.39 679.248 151.12H676.308C675.708 153.19 674.088 154.36 671.658 154.36C668.658 154.36 666.438 152.23 666.438 148.15C666.438 144.13 668.658 142 671.658 142C674.088 142 675.738 143.26 676.308 145.24H679.248C678.408 141.79 675.738 139.69 671.658 139.69C666.978 139.69 663.648 142.99 663.648 148.15ZM683.491 151.9C683.491 155.2 685.141 156.4 688.051 156.4H690.511V154.09H688.501C686.821 154.09 686.221 153.52 686.221 151.9V142.21H690.511V139.96H686.221V135.82H683.491V139.96H681.361V142.21H683.491V151.9ZM693.818 156.4H696.548V139.96H693.818V156.4ZM695.228 137.29C696.218 137.29 697.028 136.48 697.028 135.43C697.028 134.38 696.218 133.57 695.228 133.57C694.178 133.57 693.368 134.38 693.368 135.43C693.368 136.48 694.178 137.29 695.228 137.29ZM699.251 139.96L705.701 156.4H708.881L715.331 139.96H712.421L707.321 153.88L702.191 139.96H699.251ZM725.008 142C727.828 142 730.228 143.77 730.198 146.98H719.818C720.118 143.77 722.338 142 725.008 142ZM732.688 151.33H729.748C729.148 153.1 727.588 154.36 725.128 154.36C722.338 154.36 719.998 152.53 719.788 149.2H732.928C732.988 148.63 733.018 148.15 733.018 147.55C733.018 143.05 729.898 139.69 725.128 139.69C720.328 139.69 716.998 142.96 716.998 148.15C716.998 153.37 720.448 156.67 725.128 156.67C729.208 156.67 731.848 154.33 732.688 151.33ZM735.751 161.98V161.71C739.921 157.42 742.051 151.51 742.051 145.42C742.051 139.3 739.921 133 735.301 128.65V128.38H738.151C742.411 132.31 744.691 138.64 744.691 145.42C744.691 152.17 742.411 158.23 738.601 161.98H735.751Z" fill="black"/>
<rect x="180.549" y="374.382" width="419.776" height="108.329" rx="54.1647" fill="#00D563"/>
<path d="M353.306 411.482H346.226L345.176 414.692H338.186L345.956 393.452H353.636L361.376 414.692H354.356L353.306 411.482ZM351.686 406.472L349.766 400.562L347.846 406.472H351.686ZM371.739 393.452C373.959 393.452 375.899 393.902 377.559 394.802C379.239 395.702 380.529 396.952 381.429 398.552C382.329 400.152 382.779 401.972 382.779 404.012C382.779 406.032 382.329 407.852 381.429 409.472C380.529 411.092 379.239 412.372 377.559 413.312C375.899 414.232 373.959 414.692 371.739 414.692H362.889V393.452H371.739ZM371.139 408.752C372.639 408.752 373.829 408.342 374.709 407.522C375.589 406.702 376.029 405.532 376.029 404.012C376.029 402.492 375.589 401.322 374.709 400.502C373.829 399.682 372.639 399.272 371.139 399.272H369.549V408.752H371.139ZM398.592 414.902C396.052 414.902 393.952 414.312 392.292 413.132C390.652 411.932 389.762 410.182 389.622 407.882H396.702C396.802 409.102 397.342 409.712 398.322 409.712C398.682 409.712 398.982 409.632 399.222 409.472C399.482 409.292 399.612 409.022 399.612 408.662C399.612 408.162 399.342 407.762 398.802 407.462C398.262 407.142 397.422 406.782 396.282 406.382C394.922 405.902 393.792 405.432 392.892 404.972C392.012 404.512 391.252 403.842 390.612 402.962C389.972 402.082 389.662 400.952 389.682 399.572C389.682 398.192 390.032 397.022 390.732 396.062C391.452 395.082 392.422 394.342 393.642 393.842C394.882 393.342 396.272 393.092 397.812 393.092C400.412 393.092 402.472 393.692 403.992 394.892C405.532 396.092 406.342 397.782 406.422 399.962H399.252C399.232 399.362 399.082 398.932 398.802 398.672C398.522 398.412 398.182 398.282 397.782 398.282C397.502 398.282 397.272 398.382 397.092 398.582C396.912 398.762 396.822 399.022 396.822 399.362C396.822 399.842 397.082 400.242 397.602 400.562C398.142 400.862 398.992 401.232 400.152 401.672C401.492 402.172 402.592 402.652 403.452 403.112C404.332 403.572 405.092 404.212 405.732 405.032C406.372 405.852 406.692 406.882 406.692 408.122C406.692 409.422 406.372 410.592 405.732 411.632C405.092 412.652 404.162 413.452 402.942 414.032C401.722 414.612 400.272 414.902 398.592 414.902ZM415.692 398.762V401.372H422.292V406.382H415.692V409.382H423.192V414.692H409.032V393.452H423.192V398.762H415.692ZM442.382 393.452V398.732H436.742V414.692H430.082V398.732H424.502V393.452H442.382ZM236.143 445.04C234.967 443.912 234.061 442.478 233.425 440.738C232.801 438.998 232.489 437.132 232.489 435.14C232.489 433.1 232.825 431.174 233.497 429.362C234.181 427.55 235.183 426.056 236.503 424.88H238.627V425.078C237.247 426.35 236.209 427.874 235.513 429.65C234.817 431.426 234.469 433.256 234.469 435.14C234.469 436.952 234.793 438.704 235.441 440.396C236.089 442.088 237.031 443.57 238.267 444.842V445.04H236.143ZM248.008 439.136H242.77L241.87 441.692H239.728L244.21 429.164H246.586L251.068 441.692H248.908L248.008 439.136ZM247.432 437.462L245.398 431.648L243.346 437.462H247.432ZM255.051 429.182V437.156C255.051 438.104 255.297 438.818 255.789 439.298C256.293 439.778 256.989 440.018 257.877 440.018C258.777 440.018 259.473 439.778 259.965 439.298C260.469 438.818 260.721 438.104 260.721 437.156V429.182H262.773V437.12C262.773 438.14 262.551 439.004 262.107 439.712C261.663 440.42 261.069 440.948 260.325 441.296C259.581 441.644 258.759 441.818 257.859 441.818C256.959 441.818 256.137 441.644 255.393 441.296C254.661 440.948 254.079 440.42 253.647 439.712C253.215 439.004 252.999 438.14 252.999 437.12V429.182H255.051ZM269.531 429.182C270.863 429.182 272.027 429.44 273.023 429.956C274.031 430.46 274.805 431.192 275.345 432.152C275.897 433.1 276.173 434.21 276.173 435.482C276.173 436.754 275.897 437.858 275.345 438.794C274.805 439.73 274.031 440.45 273.023 440.954C272.027 441.446 270.863 441.692 269.531 441.692H265.445V429.182H269.531ZM269.531 440.018C270.995 440.018 272.117 439.622 272.897 438.83C273.677 438.038 274.067 436.922 274.067 435.482C274.067 434.03 273.677 432.896 272.897 432.08C272.117 431.264 270.995 430.856 269.531 430.856H267.497V440.018H269.531ZM280.258 429.182V441.692H278.206V429.182H280.258ZM285.004 430.838V434.51H289.324V436.184H285.004V440.018H289.864V441.692H282.952V429.164H289.864V430.838H285.004ZM302.67 441.692H300.618L294.444 432.35V441.692H292.392V429.164H294.444L300.618 438.488V429.164H302.67V441.692ZM304.68 435.41C304.68 434.186 304.962 433.088 305.526 432.116C306.102 431.144 306.876 430.388 307.848 429.848C308.832 429.296 309.906 429.02 311.07 429.02C312.402 429.02 313.584 429.35 314.616 430.01C315.66 430.658 316.416 431.582 316.884 432.782H314.418C314.094 432.122 313.644 431.63 313.068 431.306C312.492 430.982 311.826 430.82 311.07 430.82C310.242 430.82 309.504 431.006 308.856 431.378C308.208 431.75 307.698 432.284 307.326 432.98C306.966 433.676 306.786 434.486 306.786 435.41C306.786 436.334 306.966 437.144 307.326 437.84C307.698 438.536 308.208 439.076 308.856 439.46C309.504 439.832 310.242 440.018 311.07 440.018C311.826 440.018 312.492 439.856 313.068 439.532C313.644 439.208 314.094 438.716 314.418 438.056H316.884C316.416 439.256 315.66 440.18 314.616 440.828C313.584 441.476 312.402 441.8 311.07 441.8C309.894 441.8 308.82 441.53 307.848 440.99C306.876 440.438 306.102 439.676 305.526 438.704C304.962 437.732 304.68 436.634 304.68 435.41ZM321.338 430.838V434.51H325.658V436.184H321.338V440.018H326.198V441.692H319.286V429.164H326.198V430.838H321.338ZM330.976 439.226L328.798 444.194H327.466L328.744 439.226H330.976ZM346.193 432.908C346.193 433.544 346.043 434.144 345.743 434.708C345.443 435.272 344.963 435.734 344.303 436.094C343.643 436.442 342.797 436.616 341.765 436.616H339.497V441.692H337.445V429.182H341.765C342.725 429.182 343.535 429.35 344.195 429.686C344.867 430.01 345.365 430.454 345.689 431.018C346.025 431.582 346.193 432.212 346.193 432.908ZM341.765 434.942C342.545 434.942 343.127 434.768 343.511 434.42C343.895 434.06 344.087 433.556 344.087 432.908C344.087 431.54 343.313 430.856 341.765 430.856H339.497V434.942H341.765ZM350.202 440.036H354.432V441.692H348.15V429.182H350.202V440.036ZM363.69 439.136H358.452L357.552 441.692H355.41L359.892 429.164H362.268L366.75 441.692H364.59L363.69 439.136ZM363.114 437.462L361.08 431.648L359.028 437.462H363.114ZM368.014 435.41C368.014 434.186 368.296 433.088 368.86 432.116C369.436 431.144 370.21 430.388 371.182 429.848C372.166 429.296 373.24 429.02 374.404 429.02C375.736 429.02 376.918 429.35 377.95 430.01C378.994 430.658 379.75 431.582 380.218 432.782H377.752C377.428 432.122 376.978 431.63 376.402 431.306C375.826 430.982 375.16 430.82 374.404 430.82C373.576 430.82 372.838 431.006 372.19 431.378C371.542 431.75 371.032 432.284 370.66 432.98C370.3 433.676 370.12 434.486 370.12 435.41C370.12 436.334 370.3 437.144 370.66 437.84C371.032 438.536 371.542 439.076 372.19 439.46C372.838 439.832 373.576 440.018 374.404 440.018C375.16 440.018 375.826 439.856 376.402 439.532C376.978 439.208 377.428 438.716 377.752 438.056H380.218C379.75 439.256 378.994 440.18 377.95 440.828C376.918 441.476 375.736 441.8 374.404 441.8C373.228 441.8 372.154 441.53 371.182 440.99C370.21 440.438 369.436 439.676 368.86 438.704C368.296 437.732 368.014 436.634 368.014 435.41ZM384.672 430.838V434.51H388.992V436.184H384.672V440.018H389.532V441.692H382.62V429.164H389.532V430.838H384.672ZM405.236 429.182V441.692H403.184V433.124L399.368 441.692H397.946L394.112 433.124V441.692H392.06V429.182H394.274L398.666 438.992L403.04 429.182H405.236ZM409.985 430.838V434.51H414.305V436.184H409.985V440.018H414.845V441.692H407.933V429.164H414.845V430.838H409.985ZM427.65 441.692H425.598L419.424 432.35V441.692H417.372V429.164H419.424L425.598 438.488V429.164H427.65V441.692ZM438.427 429.182V430.856H435.097V441.692H433.045V430.856H429.697V429.182H438.427ZM454.847 441.692L453.299 440.144C452.699 440.744 452.045 441.194 451.337 441.494C450.629 441.782 449.837 441.926 448.961 441.926C448.073 441.926 447.287 441.77 446.603 441.458C445.919 441.146 445.391 440.702 445.019 440.126C444.647 439.538 444.461 438.86 444.461 438.092C444.461 437.228 444.707 436.46 445.199 435.788C445.691 435.104 446.423 434.564 447.395 434.168C447.047 433.748 446.801 433.358 446.657 432.998C446.513 432.626 446.441 432.218 446.441 431.774C446.441 431.222 446.579 430.73 446.855 430.298C447.143 429.866 447.551 429.524 448.079 429.272C448.607 429.02 449.219 428.894 449.915 428.894C450.623 428.894 451.223 429.032 451.715 429.308C452.219 429.572 452.591 429.938 452.831 430.406C453.083 430.874 453.185 431.396 453.137 431.972H451.085C451.097 431.528 450.989 431.186 450.761 430.946C450.533 430.694 450.221 430.568 449.825 430.568C449.429 430.568 449.105 430.688 448.853 430.928C448.613 431.156 448.493 431.438 448.493 431.774C448.493 432.098 448.583 432.422 448.763 432.746C448.955 433.058 449.285 433.466 449.753 433.97L453.065 437.264L454.343 435.158H456.557L454.937 437.93L454.487 438.668L457.529 441.692H454.847ZM448.961 440.18C450.089 440.18 451.085 439.718 451.949 438.794L448.637 435.464C447.221 436.028 446.513 436.88 446.513 438.02C446.513 438.632 446.741 439.148 447.197 439.568C447.653 439.976 448.241 440.18 448.961 440.18ZM470.246 435.266C470.918 435.386 471.488 435.74 471.956 436.328C472.424 436.916 472.658 437.582 472.658 438.326C472.658 438.962 472.49 439.538 472.154 440.054C471.83 440.558 471.356 440.96 470.732 441.26C470.108 441.548 469.382 441.692 468.554 441.692H463.55V429.182H468.32C469.172 429.182 469.904 429.326 470.516 429.614C471.128 429.902 471.59 430.292 471.902 430.784C472.214 431.264 472.37 431.804 472.37 432.404C472.37 433.124 472.178 433.724 471.794 434.204C471.41 434.684 470.894 435.038 470.246 435.266ZM465.602 434.438H468.14C468.812 434.438 469.334 434.288 469.706 433.988C470.09 433.676 470.282 433.232 470.282 432.656C470.282 432.092 470.09 431.654 469.706 431.342C469.334 431.018 468.812 430.856 468.14 430.856H465.602V434.438ZM468.374 440.018C469.07 440.018 469.616 439.85 470.012 439.514C470.408 439.178 470.606 438.71 470.606 438.11C470.606 437.498 470.396 437.012 469.976 436.652C469.556 436.292 468.998 436.112 468.302 436.112H465.602V440.018H468.374ZM476.922 429.182V437.156C476.922 438.104 477.168 438.818 477.66 439.298C478.164 439.778 478.86 440.018 479.748 440.018C480.648 440.018 481.344 439.778 481.836 439.298C482.34 438.818 482.592 438.104 482.592 437.156V429.182H484.644V437.12C484.644 438.14 484.422 439.004 483.978 439.712C483.534 440.42 482.94 440.948 482.196 441.296C481.452 441.644 480.63 441.818 479.73 441.818C478.83 441.818 478.008 441.644 477.264 441.296C476.532 440.948 475.95 440.42 475.518 439.712C475.086 439.004 474.87 438.14 474.87 437.12V429.182H476.922ZM491.402 429.182C492.734 429.182 493.898 429.44 494.894 429.956C495.902 430.46 496.676 431.192 497.216 432.152C497.768 433.1 498.044 434.21 498.044 435.482C498.044 436.754 497.768 437.858 497.216 438.794C496.676 439.73 495.902 440.45 494.894 440.954C493.898 441.446 492.734 441.692 491.402 441.692H487.316V429.182H491.402ZM491.402 440.018C492.866 440.018 493.988 439.622 494.768 438.83C495.548 438.038 495.938 436.922 495.938 435.482C495.938 434.03 495.548 432.896 494.768 432.08C493.988 431.264 492.866 430.856 491.402 430.856H489.368V440.018H491.402ZM509.131 432.782C508.807 432.158 508.357 431.69 507.781 431.378C507.205 431.054 506.539 430.892 505.783 430.892C504.955 430.892 504.217 431.078 503.569 431.45C502.921 431.822 502.411 432.35 502.039 433.034C501.679 433.718 501.499 434.51 501.499 435.41C501.499 436.31 501.679 437.108 502.039 437.804C502.411 438.488 502.921 439.016 503.569 439.388C504.217 439.76 504.955 439.946 505.783 439.946C506.899 439.946 507.805 439.634 508.501 439.01C509.197 438.386 509.623 437.54 509.779 436.472H505.081V434.834H511.975V436.436C511.843 437.408 511.495 438.302 510.931 439.118C510.379 439.934 509.653 440.588 508.753 441.08C507.865 441.56 506.875 441.8 505.783 441.8C504.607 441.8 503.533 441.53 502.561 440.99C501.589 440.438 500.815 439.676 500.239 438.704C499.675 437.732 499.393 436.634 499.393 435.41C499.393 434.186 499.675 433.088 500.239 432.116C500.815 431.144 501.589 430.388 502.561 429.848C503.545 429.296 504.619 429.02 505.783 429.02C507.115 429.02 508.297 429.35 509.329 430.01C510.373 430.658 511.129 431.582 511.597 432.782H509.131ZM516.051 430.838V434.51H520.371V436.184H516.051V440.018H520.911V441.692H513.999V429.164H520.911V430.838H516.051ZM531.521 429.182V430.856H528.191V441.692H526.139V430.856H522.791V429.182H531.521ZM547.941 441.692L546.393 440.144C545.793 440.744 545.139 441.194 544.431 441.494C543.723 441.782 542.931 441.926 542.055 441.926C541.167 441.926 540.381 441.77 539.697 441.458C539.013 441.146 538.485 440.702 538.113 440.126C537.741 439.538 537.555 438.86 537.555 438.092C537.555 437.228 537.801 436.46 538.293 435.788C538.785 435.104 539.517 434.564 540.489 434.168C540.141 433.748 539.895 433.358 539.751 432.998C539.607 432.626 539.535 432.218 539.535 431.774C539.535 431.222 539.673 430.73 539.949 430.298C540.237 429.866 540.645 429.524 541.173 429.272C541.701 429.02 542.313 428.894 543.009 428.894C543.717 428.894 544.317 429.032 544.809 429.308C545.313 429.572 545.685 429.938 545.925 430.406C546.177 430.874 546.279 431.396 546.231 431.972H544.179C544.191 431.528 544.083 431.186 543.855 430.946C543.627 430.694 543.315 430.568 542.919 430.568C542.523 430.568 542.199 430.688 541.947 430.928C541.707 431.156 541.587 431.438 541.587 431.774C541.587 432.098 541.677 432.422 541.857 432.746C542.049 433.058 542.379 433.466 542.847 433.97L546.159 437.264L547.437 435.158H549.651L548.031 437.93L547.581 438.668L550.623 441.692H547.941ZM542.055 440.18C543.183 440.18 544.179 439.718 545.043 438.794L541.731 435.464C540.315 436.028 539.607 436.88 539.607 438.02C539.607 438.632 539.835 439.148 540.291 439.568C540.747 439.976 541.335 440.18 542.055 440.18ZM344.37 468.818C343.53 468.818 342.774 468.674 342.102 468.386C341.43 468.086 340.902 467.666 340.518 467.126C340.134 466.586 339.942 465.956 339.942 465.236H342.138C342.186 465.776 342.396 466.22 342.768 466.568C343.152 466.916 343.686 467.09 344.37 467.09C345.078 467.09 345.63 466.922 346.026 466.586C346.422 466.238 346.62 465.794 346.62 465.254C346.62 464.834 346.494 464.492 346.242 464.228C346.002 463.964 345.696 463.76 345.324 463.616C344.964 463.472 344.46 463.316 343.812 463.148C342.996 462.932 342.33 462.716 341.814 462.5C341.31 462.272 340.878 461.924 340.518 461.456C340.158 460.988 339.978 460.364 339.978 459.584C339.978 458.864 340.158 458.234 340.518 457.694C340.878 457.154 341.382 456.74 342.03 456.452C342.678 456.164 343.428 456.02 344.28 456.02C345.492 456.02 346.482 456.326 347.25 456.938C348.03 457.538 348.462 458.366 348.546 459.422H346.278C346.242 458.966 346.026 458.576 345.63 458.252C345.234 457.928 344.712 457.766 344.064 457.766C343.476 457.766 342.996 457.916 342.624 458.216C342.252 458.516 342.066 458.948 342.066 459.512C342.066 459.896 342.18 460.214 342.408 460.466C342.648 460.706 342.948 460.898 343.308 461.042C343.668 461.186 344.16 461.342 344.784 461.51C345.612 461.738 346.284 461.966 346.8 462.194C347.328 462.422 347.772 462.776 348.132 463.256C348.504 463.724 348.69 464.354 348.69 465.146C348.69 465.782 348.516 466.382 348.168 466.946C347.832 467.51 347.334 467.966 346.674 468.314C346.026 468.65 345.258 468.818 344.37 468.818ZM350.428 462.41C350.428 461.186 350.71 460.088 351.274 459.116C351.85 458.144 352.624 457.388 353.596 456.848C354.58 456.296 355.654 456.02 356.818 456.02C358.15 456.02 359.332 456.35 360.364 457.01C361.408 457.658 362.164 458.582 362.632 459.782H360.166C359.842 459.122 359.392 458.63 358.816 458.306C358.24 457.982 357.574 457.82 356.818 457.82C355.99 457.82 355.252 458.006 354.604 458.378C353.956 458.75 353.446 459.284 353.074 459.98C352.714 460.676 352.534 461.486 352.534 462.41C352.534 463.334 352.714 464.144 353.074 464.84C353.446 465.536 353.956 466.076 354.604 466.46C355.252 466.832 355.99 467.018 356.818 467.018C357.574 467.018 358.24 466.856 358.816 466.532C359.392 466.208 359.842 465.716 360.166 465.056H362.632C362.164 466.256 361.408 467.18 360.364 467.828C359.332 468.476 358.15 468.8 356.818 468.8C355.642 468.8 354.568 468.53 353.596 467.99C352.624 467.438 351.85 466.676 351.274 465.704C350.71 464.732 350.428 463.634 350.428 462.41ZM375.023 456.182V468.692H372.971V463.22H367.085V468.692H365.033V456.182H367.085V461.546H372.971V456.182H375.023ZM379.777 457.838V461.51H384.097V463.184H379.777V467.018H384.637V468.692H377.725V456.164H384.637V457.838H379.777ZM391.25 456.182C392.582 456.182 393.746 456.44 394.742 456.956C395.75 457.46 396.524 458.192 397.064 459.152C397.616 460.1 397.892 461.21 397.892 462.482C397.892 463.754 397.616 464.858 397.064 465.794C396.524 466.73 395.75 467.45 394.742 467.954C393.746 468.446 392.582 468.692 391.25 468.692H387.164V456.182H391.25ZM391.25 467.018C392.714 467.018 393.836 466.622 394.616 465.83C395.396 465.038 395.786 463.922 395.786 462.482C395.786 461.03 395.396 459.896 394.616 459.08C393.836 458.264 392.714 457.856 391.25 457.856H389.216V467.018H391.25ZM401.96 456.182V464.156C401.96 465.104 402.206 465.818 402.698 466.298C403.202 466.778 403.898 467.018 404.786 467.018C405.686 467.018 406.382 466.778 406.874 466.298C407.378 465.818 407.63 465.104 407.63 464.156V456.182H409.682V464.12C409.682 465.14 409.46 466.004 409.016 466.712C408.572 467.42 407.978 467.948 407.234 468.296C406.49 468.644 405.668 468.818 404.768 468.818C403.868 468.818 403.046 468.644 402.302 468.296C401.57 467.948 400.988 467.42 400.556 466.712C400.124 466.004 399.908 465.14 399.908 464.12V456.182H401.96ZM414.406 467.036H418.636V468.692H412.354V456.182H414.406V467.036ZM422.404 457.838V461.51H426.724V463.184H422.404V467.018H427.264V468.692H420.352V456.164H427.264V457.838H422.404ZM433.963 472.04V471.842C435.199 470.57 436.141 469.088 436.789 467.396C437.437 465.704 437.761 463.952 437.761 462.14C437.761 460.256 437.413 458.426 436.717 456.65C436.021 454.874 434.983 453.35 433.603 452.078V451.88H435.727C437.047 453.056 438.043 454.55 438.715 456.362C439.399 458.174 439.741 460.1 439.741 462.14C439.741 464.132 439.423 465.998 438.787 467.738C438.163 469.478 437.263 470.912 436.087 472.04H433.963Z" fill="white"/>
<rect x="180.549" y="629.408" width="157.98" height="83.5039" rx="41.752" fill="#00D563"/>
<path d="M251.402 679.222H243.85L242.73 682.646H235.274L243.562 659.99H251.754L260.01 682.646H252.522L251.402 679.222ZM249.674 673.878L247.626 667.574L245.578 673.878H249.674ZM271.064 659.99C273.432 659.99 275.501 660.47 277.272 661.43C279.064 662.39 280.44 663.723 281.4 665.43C282.36 667.136 282.84 669.078 282.84 671.254C282.84 673.408 282.36 675.35 281.4 677.078C280.44 678.806 279.064 680.171 277.272 681.174C275.501 682.155 273.432 682.646 271.064 682.646H261.624V659.99H271.064ZM270.424 676.31C272.024 676.31 273.293 675.872 274.232 674.998C275.17 674.123 275.64 672.875 275.64 671.254C275.64 669.632 275.17 668.384 274.232 667.51C273.293 666.635 272.024 666.198 270.424 666.198H268.728V676.31H270.424Z" fill="white"/>
<rect x="731.563" y="629.408" width="157.98" height="83.5039" rx="41.752" fill="#00D563"/>
<path d="M802.415 679.222H794.863L793.743 682.646H786.287L794.575 659.99H802.767L811.023 682.646H803.535L802.415 679.222ZM800.687 673.878L798.639 667.574L796.591 673.878H800.687ZM822.077 659.99C824.445 659.99 826.515 660.47 828.285 661.43C830.077 662.39 831.453 663.723 832.413 665.43C833.373 667.136 833.853 669.078 833.853 671.254C833.853 673.408 833.373 675.35 832.413 677.078C831.453 678.806 830.077 680.171 828.285 681.174C826.515 682.155 824.445 682.646 822.077 682.646H812.637V659.99H822.077ZM821.437 676.31C823.037 676.31 824.307 675.872 825.245 674.998C826.184 674.123 826.653 672.875 826.653 671.254C826.653 669.632 826.184 668.384 825.245 667.51C824.307 666.635 823.037 666.198 821.437 666.198H819.741V676.31H821.437Z" fill="white"/>
<rect x="442.345" y="629.408" width="157.98" height="83.5039" rx="41.752" fill="#00D563"/>
<rect x="993.359" y="629.408" width="157.98" height="83.5039" rx="41.752" fill="#00D563"/>
<rect x="731.224" y="374.382" width="419.776" height="108.329" rx="54.1647" fill="#00D563"/>
<path d="M391.937 486.712C391.937 485.883 391.266 485.212 390.437 485.212C389.609 485.212 388.937 485.883 388.937 486.712H391.937ZM258.479 626.468C259.064 627.054 260.014 627.054 260.6 626.468L270.146 616.922C270.732 616.337 270.732 615.387 270.146 614.801C269.56 614.215 268.61 614.215 268.024 614.801L259.539 623.286L251.054 614.801C250.468 614.215 249.518 614.215 248.933 614.801C248.347 615.387 248.347 616.337 248.933 616.922L258.479 626.468ZM261.039 625.408V622.687H258.039V625.408H261.039ZM261.039 619.059V613.617H258.039V619.059H261.039ZM261.039 609.989V604.548H258.039V609.989H261.039ZM261.039 600.92V595.478H258.039V600.92H261.039ZM261.039 591.85V586.408H258.039V591.85H261.039ZM261.039 582.781V580.06H258.039V582.781H261.039ZM261.039 580.06C261.039 579.163 261.092 578.28 261.193 577.412L258.214 577.062C258.098 578.046 258.039 579.046 258.039 580.06H261.039ZM261.879 573.949C262.363 572.229 263.047 570.592 263.904 569.065L261.287 567.597C260.316 569.328 259.54 571.184 258.991 573.136L261.879 573.949ZM265.868 566.13C266.964 564.742 268.221 563.485 269.61 562.389L267.751 560.034C266.178 561.275 264.755 562.699 263.513 564.272L265.868 566.13ZM272.544 560.424C274.072 559.567 275.708 558.883 277.428 558.399L276.615 555.511C274.664 556.061 272.807 556.836 271.076 557.808L272.544 560.424ZM280.891 557.714C281.759 557.612 282.643 557.56 283.539 557.56V554.56C282.526 554.56 281.526 554.619 280.542 554.734L280.891 557.714ZM283.539 557.56H286.648V554.56H283.539V557.56ZM290.793 557.56H297.01V554.56H290.793V557.56ZM301.155 557.56H307.372V554.56H301.155V557.56ZM311.517 557.56H317.735V554.56H311.517V557.56ZM321.88 557.56H328.097V554.56H321.88V557.56ZM332.242 557.56H338.459V554.56H332.242V557.56ZM342.604 557.56H348.821V554.56H342.604V557.56ZM352.966 557.56H359.184V554.56H352.966V557.56ZM363.329 557.56H366.437V554.56H363.329V557.56ZM366.437 557.56C367.451 557.56 368.451 557.5 369.434 557.385L369.085 554.406C368.217 554.507 367.334 554.56 366.437 554.56V557.56ZM373.361 556.608C375.313 556.059 377.169 555.283 378.9 554.311L377.432 551.695C375.905 552.552 374.268 553.236 372.548 553.72L373.361 556.608ZM382.225 552.086C383.798 550.844 385.221 549.421 386.463 547.848L384.108 545.989C383.012 547.378 381.755 548.634 380.367 549.731L382.225 552.086ZM388.689 544.523C389.661 542.791 390.436 540.935 390.986 538.983L388.098 538.17C387.614 539.891 386.93 541.527 386.073 543.054L388.689 544.523ZM391.763 535.057C391.878 534.073 391.937 533.073 391.937 532.06H388.937C388.937 532.956 388.885 533.84 388.783 534.708L391.763 535.057ZM391.937 532.06V529.339H388.937V532.06H391.937ZM391.937 525.711V520.269H388.937V525.711H391.937ZM391.937 516.641V511.2H388.937V516.641H391.937ZM391.937 507.572V502.13H388.937V507.572H391.937ZM391.937 498.502V493.06H388.937V498.502H391.937ZM391.937 489.433V486.712H388.937V489.433H391.937Z" fill="#CECCCC"/>
<path d="M942.612 486.712C942.612 485.883 941.94 485.212 941.112 485.212C940.283 485.212 939.612 485.883 939.612 486.712H942.612ZM809.492 626.468C810.078 627.054 811.028 627.054 811.614 626.468L821.16 616.922C821.745 616.337 821.745 615.387 821.16 614.801C820.574 614.215 819.624 614.215 819.038 614.801L810.553 623.286L802.068 614.801C801.482 614.215 800.532 614.215 799.946 614.801C799.361 615.387 799.361 616.337 799.946 616.922L809.492 626.468ZM812.053 625.408V622.687H809.053V625.408H812.053ZM812.053 619.059V613.617H809.053V619.059H812.053ZM812.053 609.989V604.548H809.053V609.989H812.053ZM812.053 600.92V595.478H809.053V600.92H812.053ZM812.053 591.85V586.408H809.053V591.85H812.053ZM812.053 582.781V580.06H809.053V582.781H812.053ZM812.053 580.06C812.053 579.163 812.105 578.28 812.207 577.412L809.227 577.062C809.112 578.046 809.053 579.046 809.053 580.06H812.053ZM812.892 573.949C813.377 572.229 814.06 570.592 814.917 569.065L812.301 567.597C811.33 569.328 810.554 571.184 810.005 573.136L812.892 573.949ZM816.882 566.13C817.978 564.741 819.235 563.485 820.624 562.389L818.765 560.034C817.192 561.275 815.769 562.699 814.527 564.272L816.882 566.13ZM823.558 560.424C825.085 559.567 826.722 558.883 828.442 558.399L827.629 555.511C825.678 556.061 823.821 556.836 822.09 557.808L823.558 560.424ZM831.905 557.714C832.773 557.612 833.657 557.56 834.553 557.56V554.56C833.54 554.56 832.539 554.619 831.556 554.734L831.905 557.714ZM834.553 557.56H837.649V554.56H834.553V557.56ZM841.777 557.56H847.969V554.56H841.777V557.56ZM852.097 557.56H858.289V554.56H852.097V557.56ZM862.417 557.56H868.609V554.56H862.417V557.56ZM872.736 557.56H878.928V554.56H872.736V557.56ZM883.056 557.56H889.248V554.56H883.056V557.56ZM893.376 557.56H899.568V554.56H893.376V557.56ZM903.696 557.56H909.888V554.56H903.696V557.56ZM914.016 557.56H917.112V554.56H914.016V557.56ZM917.112 557.56C918.125 557.56 919.125 557.5 920.109 557.385L919.76 554.406C918.892 554.507 918.008 554.56 917.112 554.56V557.56ZM924.036 556.608C925.987 556.059 927.844 555.283 929.575 554.311L928.107 551.695C926.58 552.552 924.943 553.236 923.223 553.72L924.036 556.608ZM932.9 552.086C934.473 550.844 935.896 549.421 937.138 547.848L934.783 545.989C933.687 547.378 932.43 548.634 931.041 549.731L932.9 552.086ZM939.364 544.523C940.335 542.791 941.111 540.935 941.66 538.983L938.773 538.17C938.288 539.891 937.605 541.527 936.747 543.054L939.364 544.523ZM942.437 535.057C942.553 534.073 942.612 533.073 942.612 532.06H939.612C939.612 532.956 939.559 533.84 939.458 534.708L942.437 535.057ZM942.612 532.06V529.339H939.612V532.06H942.612ZM942.612 525.711V520.269H939.612V525.711H942.612ZM942.612 516.641V511.2H939.612V516.641H942.612ZM942.612 507.572V502.13H939.612V507.572H942.612ZM942.612 498.502V493.06H939.612V498.502H942.612ZM942.612 489.433V486.712H939.612V489.433H942.612Z" fill="#CECCCC"/>
<path d="M391.937 486.712C391.937 485.883 391.266 485.212 390.437 485.212C389.609 485.212 388.937 485.883 388.937 486.712H391.937ZM520.275 626.468C520.86 627.054 521.81 627.054 522.396 626.468L531.942 616.922C532.528 616.337 532.528 615.387 531.942 614.801C531.356 614.215 530.406 614.215 529.821 614.801L521.335 623.286L512.85 614.801C512.264 614.215 511.314 614.215 510.729 614.801C510.143 615.387 510.143 616.337 510.729 616.922L520.275 626.468ZM388.937 486.712V489.433H391.937V486.712H388.937ZM388.937 493.06V498.502H391.937V493.06H388.937ZM388.937 502.13V507.572H391.937V502.13H388.937ZM388.937 511.2V516.641H391.937V511.2H388.937ZM388.937 520.269V525.711H391.937V520.269H388.937ZM388.937 529.339V532.06H391.937V529.339H388.937ZM388.937 532.06C388.937 533.073 388.996 534.073 389.112 535.057L392.091 534.708C391.99 533.84 391.937 532.956 391.937 532.06H388.937ZM389.889 538.983C390.438 540.935 391.214 542.791 392.185 544.523L394.802 543.054C393.945 541.527 393.261 539.891 392.777 538.17L389.889 538.983ZM394.411 547.848C395.653 549.421 397.076 550.844 398.649 552.086L400.508 549.731C399.119 548.634 397.862 547.378 396.766 545.989L394.411 547.848ZM401.974 554.311C403.705 555.283 405.562 556.059 407.514 556.608L408.326 553.72C406.606 553.236 404.97 552.552 403.442 551.695L401.974 554.311ZM411.44 557.385C412.424 557.5 413.424 557.56 414.437 557.56V554.56C413.541 554.56 412.657 554.507 411.789 554.406L411.44 557.385ZM414.437 557.56H417.546V554.56H414.437V557.56ZM421.691 557.56H427.908V554.56H421.691V557.56ZM432.053 557.56H438.27V554.56H432.053V557.56ZM442.415 557.56H448.633V554.56H442.415V557.56ZM452.778 557.56H458.995V554.56H452.778V557.56ZM463.14 557.56H469.357V554.56H463.14V557.56ZM473.502 557.56H479.719V554.56H473.502V557.56ZM483.864 557.56H490.082V554.56H483.864V557.56ZM494.227 557.56H497.335V554.56H494.227V557.56ZM497.335 557.56C498.232 557.56 499.115 557.612 499.983 557.714L500.332 554.734C499.349 554.619 498.349 554.56 497.335 554.56V557.56ZM503.446 558.399C505.166 558.883 506.803 559.567 508.33 560.424L509.798 557.808C508.067 556.836 506.211 556.061 504.259 555.511L503.446 558.399ZM511.265 562.389C512.653 563.485 513.91 564.741 515.006 566.13L517.361 564.272C516.119 562.699 514.696 561.275 513.123 560.034L511.265 562.389ZM516.971 569.065C517.828 570.592 518.512 572.229 518.996 573.949L521.884 573.136C521.334 571.184 520.559 569.328 519.587 567.597L516.971 569.065ZM519.681 577.412C519.783 578.28 519.835 579.163 519.835 580.06H522.835C522.835 579.046 522.776 578.046 522.661 577.062L519.681 577.412ZM519.835 580.06V582.781H522.835V580.06H519.835ZM519.835 586.408V591.85H522.835V586.408H519.835ZM519.835 595.478V600.92H522.835V595.478H519.835ZM519.835 604.548V609.989H522.835V604.548H519.835ZM519.835 613.617V619.059H522.835V613.617H519.835ZM519.835 622.687V625.408H522.835V622.687H519.835Z" fill="#CECCCC"/>
<path d="M942.612 486.712C942.612 485.883 941.94 485.212 941.112 485.212C940.283 485.212 939.612 485.883 939.612 486.712H942.612ZM1071.29 626.468C1071.87 627.054 1072.82 627.054 1073.41 626.468L1082.96 616.922C1083.54 616.337 1083.54 615.387 1082.96 614.801C1082.37 614.215 1081.42 614.215 1080.83 614.801L1072.35 623.286L1063.86 614.801C1063.28 614.215 1062.33 614.215 1061.74 614.801C1061.16 615.387 1061.16 616.337 1061.74 616.922L1071.29 626.468ZM939.612 486.712V489.433H942.612V486.712H939.612ZM939.612 493.06V498.502H942.612V493.06H939.612ZM939.612 502.13V507.572H942.612V502.13H939.612ZM939.612 511.2V516.641H942.612V511.2H939.612ZM939.612 520.269V525.711H942.612V520.269H939.612ZM939.612 529.339V532.06H942.612V529.339H939.612ZM939.612 532.06C939.612 533.073 939.671 534.073 939.786 535.057L942.766 534.708C942.664 533.84 942.612 532.956 942.612 532.06H939.612ZM940.563 538.983C941.113 540.935 941.888 542.791 942.86 544.523L945.476 543.054C944.619 541.527 943.935 539.891 943.451 538.17L940.563 538.983ZM945.086 547.848C946.328 549.421 947.751 550.844 949.324 552.086L951.183 549.731C949.794 548.634 948.537 547.378 947.441 545.989L945.086 547.848ZM952.649 554.311C954.38 555.283 956.236 556.059 958.188 556.608L959.001 553.72C957.281 553.236 955.644 552.552 954.117 551.695L952.649 554.311ZM962.115 557.385C963.098 557.5 964.098 557.56 965.112 557.56V554.56C964.215 554.56 963.332 554.507 962.464 554.406L962.115 557.385ZM965.112 557.56H968.233V554.56H965.112V557.56ZM972.395 557.56H978.638V554.56H972.395V557.56ZM982.8 557.56H989.042V554.56H982.8V557.56ZM993.204 557.56H999.447V554.56H993.204V557.56ZM1003.61 557.56H1009.85V554.56H1003.61V557.56ZM1014.01 557.56H1020.26V554.56H1014.01V557.56ZM1024.42 557.56H1030.66V554.56H1024.42V557.56ZM1034.82 557.56H1041.07V554.56H1034.82V557.56ZM1045.23 557.56H1048.35V554.56H1045.23V557.56ZM1048.35 557.56C1049.25 557.56 1050.13 557.612 1051 557.714L1051.35 554.734C1050.36 554.619 1049.36 554.56 1048.35 554.56V557.56ZM1054.46 558.399C1056.18 558.883 1057.82 559.567 1059.34 560.424L1060.81 557.808C1059.08 556.836 1057.22 556.061 1055.27 555.511L1054.46 558.399ZM1062.28 562.389C1063.67 563.485 1064.92 564.741 1066.02 566.13L1068.37 564.272C1067.13 562.699 1065.71 561.275 1064.14 560.034L1062.28 562.389ZM1067.98 569.065C1068.84 570.592 1069.53 572.229 1070.01 573.949L1072.9 573.136C1072.35 571.184 1071.57 569.328 1070.6 567.597L1067.98 569.065ZM1070.69 577.412C1070.8 578.28 1070.85 579.163 1070.85 580.06H1073.85C1073.85 579.046 1073.79 578.046 1073.67 577.062L1070.69 577.412ZM1070.85 580.06V582.781H1073.85V580.06H1070.85ZM1070.85 586.408V591.85H1073.85V586.408H1070.85ZM1070.85 595.478V600.92H1073.85V595.478H1070.85ZM1070.85 604.548V609.989H1073.85V604.548H1070.85ZM1070.85 613.617V619.059H1073.85V613.617H1070.85ZM1070.85 622.687V625.408H1073.85V622.687H1070.85Z" fill="#CECCCC"/>
<path d="M667.081 232C667.081 231.172 666.409 230.5 665.581 230.5C664.752 230.5 664.081 231.172 664.081 232H667.081ZM389.377 371.443C389.962 372.029 390.912 372.029 391.498 371.443L401.044 361.897C401.63 361.311 401.63 360.362 401.044 359.776C400.458 359.19 399.508 359.19 398.923 359.776L390.437 368.261L381.952 359.776C381.366 359.19 380.416 359.19 379.831 359.776C379.245 360.362 379.245 361.311 379.831 361.897L389.377 371.443ZM664.081 232V277.191H667.081V232H664.081ZM641.581 299.691H414.437V302.691H641.581V299.691ZM388.937 325.191V370.382H391.937V325.191H388.937ZM414.437 299.691C400.354 299.691 388.937 311.108 388.937 325.191H391.937C391.937 312.765 402.011 302.691 414.437 302.691V299.691ZM664.081 277.191C664.081 289.618 654.007 299.691 641.581 299.691V302.691C655.664 302.691 667.081 291.274 667.081 277.191H664.081Z" fill="#4ECB71"/>
<path d="M667.081 232C667.081 231.172 666.409 230.5 665.581 230.5C664.752 230.5 664.081 231.172 664.081 232H667.081ZM940.051 371.443C940.637 372.029 941.587 372.029 942.172 371.443L951.718 361.897C952.304 361.311 952.304 360.362 951.718 359.776C951.133 359.19 950.183 359.19 949.597 359.776L941.112 368.261L932.627 359.776C932.041 359.19 931.091 359.19 930.505 359.776C929.919 360.362 929.919 361.311 930.505 361.897L940.051 371.443ZM664.081 232V277.191H667.081V232H664.081ZM689.581 302.691H917.112V299.691H689.581V302.691ZM939.612 325.191V370.382H942.612V325.191H939.612ZM917.112 302.691C929.538 302.691 939.612 312.765 939.612 325.191H942.612C942.612 311.108 931.195 299.691 917.112 299.691V302.691ZM664.081 277.191C664.081 291.274 675.497 302.691 689.581 302.691V299.691C677.154 299.691 667.081 289.618 667.081 277.191H664.081Z" fill="#4ECB71"/>
<rect x="460.4" y="270.567" width="153.467" height="63.1922" rx="31.5961" fill="#F2F2F2"/>
<circle cx="480.4" cy="302.163" r="10" fill="#00D563"/>
<path d="M518.913 292.313V295.103H513.363V313.163H509.943V295.103H504.363V292.313H518.913ZM537.527 304.493C537.527 305.113 537.487 305.673 537.407 306.173H524.777C524.877 307.493 525.367 308.553 526.247 309.353C527.127 310.153 528.207 310.553 529.487 310.553C531.327 310.553 532.627 309.783 533.387 308.243H537.077C536.577 309.763 535.667 311.013 534.347 311.993C533.047 312.953 531.427 313.433 529.487 313.433C527.907 313.433 526.487 313.083 525.227 312.383C523.987 311.663 523.007 310.663 522.287 309.383C521.587 308.083 521.237 306.583 521.237 304.883C521.237 303.183 521.577 301.693 522.257 300.413C522.957 299.113 523.927 298.113 525.167 297.413C526.427 296.713 527.867 296.363 529.487 296.363C531.047 296.363 532.437 296.703 533.657 297.383C534.877 298.063 535.827 299.023 536.507 300.263C537.187 301.483 537.527 302.893 537.527 304.493ZM533.957 303.413C533.937 302.153 533.487 301.143 532.607 300.383C531.727 299.623 530.637 299.243 529.337 299.243C528.157 299.243 527.147 299.623 526.307 300.383C525.467 301.123 524.967 302.133 524.807 303.413H533.957ZM546.892 313.433C545.592 313.433 544.422 313.203 543.382 312.743C542.362 312.263 541.552 311.623 540.952 310.823C540.352 310.003 540.032 309.093 539.992 308.093H543.532C543.592 308.793 543.922 309.383 544.522 309.863C545.142 310.323 545.912 310.553 546.832 310.553C547.792 310.553 548.532 310.373 549.052 310.013C549.592 309.633 549.862 309.153 549.862 308.573C549.862 307.953 549.562 307.493 548.962 307.193C548.382 306.893 547.452 306.563 546.172 306.203C544.932 305.863 543.922 305.533 543.142 305.213C542.362 304.893 541.682 304.403 541.102 303.743C540.542 303.083 540.262 302.213 540.262 301.133C540.262 300.253 540.522 299.453 541.042 298.733C541.562 297.993 542.302 297.413 543.262 296.993C544.242 296.573 545.362 296.363 546.622 296.363C548.502 296.363 550.012 296.843 551.152 297.803C552.312 298.743 552.932 300.033 553.012 301.673H549.592C549.532 300.933 549.232 300.343 548.692 299.903C548.152 299.463 547.422 299.243 546.502 299.243C545.602 299.243 544.912 299.413 544.432 299.753C543.952 300.093 543.712 300.543 543.712 301.103C543.712 301.543 543.872 301.913 544.192 302.213C544.512 302.513 544.902 302.753 545.362 302.933C545.822 303.093 546.502 303.303 547.402 303.563C548.602 303.883 549.582 304.213 550.342 304.553C551.122 304.873 551.792 305.353 552.352 305.993C552.912 306.633 553.202 307.483 553.222 308.543C553.222 309.483 552.962 310.323 552.442 311.063C551.922 311.803 551.182 312.383 550.222 312.803C549.282 313.223 548.172 313.433 546.892 313.433ZM560.908 299.423V308.573C560.908 309.193 561.048 309.643 561.328 309.923C561.628 310.183 562.128 310.313 562.828 310.313H564.928V313.163H562.228C560.688 313.163 559.508 312.803 558.688 312.083C557.868 311.363 557.458 310.193 557.458 308.573V299.423H555.508V296.633H557.458V292.523H560.908V296.633H564.928V299.423H560.908ZM574.973 294.413V291.293H581.213V313.163H577.763V294.413H574.973Z" fill="black" fill-opacity="0.8"/>
<rect x="731" y="270.567" width="153.467" height="63.1922" rx="31.5961" fill="#F2F2F2"/>
<circle cx="751" cy="302.163" r="10" fill="#00D563"/>
<path d="M789.513 292.313V295.103H783.963V313.163H780.543V295.103H774.963V292.313H789.513ZM808.127 304.493C808.127 305.113 808.087 305.673 808.007 306.173H795.377C795.477 307.493 795.967 308.553 796.847 309.353C797.727 310.153 798.807 310.553 800.087 310.553C801.927 310.553 803.227 309.783 803.987 308.243H807.677C807.177 309.763 806.267 311.013 804.947 311.993C803.647 312.953 802.027 313.433 800.087 313.433C798.507 313.433 797.087 313.083 795.827 312.383C794.587 311.663 793.607 310.663 792.887 309.383C792.187 308.083 791.837 306.583 791.837 304.883C791.837 303.183 792.177 301.693 792.857 300.413C793.557 299.113 794.527 298.113 795.767 297.413C797.027 296.713 798.467 296.363 800.087 296.363C801.647 296.363 803.037 296.703 804.257 297.383C805.477 298.063 806.427 299.023 807.107 300.263C807.787 301.483 808.127 302.893 808.127 304.493ZM804.557 303.413C804.537 302.153 804.087 301.143 803.207 300.383C802.327 299.623 801.237 299.243 799.937 299.243C798.757 299.243 797.747 299.623 796.907 300.383C796.067 301.123 795.567 302.133 795.407 303.413H804.557ZM817.492 313.433C816.192 313.433 815.022 313.203 813.982 312.743C812.962 312.263 812.152 311.623 811.552 310.823C810.952 310.003 810.632 309.093 810.592 308.093H814.132C814.192 308.793 814.522 309.383 815.122 309.863C815.742 310.323 816.512 310.553 817.432 310.553C818.392 310.553 819.132 310.373 819.652 310.013C820.192 309.633 820.462 309.153 820.462 308.573C820.462 307.953 820.162 307.493 819.562 307.193C818.982 306.893 818.052 306.563 816.772 306.203C815.532 305.863 814.522 305.533 813.742 305.213C812.962 304.893 812.282 304.403 811.702 303.743C811.142 303.083 810.862 302.213 810.862 301.133C810.862 300.253 811.122 299.453 811.642 298.733C812.162 297.993 812.902 297.413 813.862 296.993C814.842 296.573 815.962 296.363 817.222 296.363C819.102 296.363 820.612 296.843 821.752 297.803C822.912 298.743 823.532 300.033 823.612 301.673H820.192C820.132 300.933 819.832 300.343 819.292 299.903C818.752 299.463 818.022 299.243 817.102 299.243C816.202 299.243 815.512 299.413 815.032 299.753C814.552 300.093 814.312 300.543 814.312 301.103C814.312 301.543 814.472 301.913 814.792 302.213C815.112 302.513 815.502 302.753 815.962 302.933C816.422 303.093 817.102 303.303 818.002 303.563C819.202 303.883 820.182 304.213 820.942 304.553C821.722 304.873 822.392 305.353 822.952 305.993C823.512 306.633 823.802 307.483 823.822 308.543C823.822 309.483 823.562 310.323 823.042 311.063C822.522 311.803 821.782 312.383 820.822 312.803C819.882 313.223 818.772 313.433 817.492 313.433ZM831.508 299.423V308.573C831.508 309.193 831.648 309.643 831.928 309.923C832.228 310.183 832.728 310.313 833.428 310.313H835.528V313.163H832.828C831.288 313.163 830.108 312.803 829.288 312.083C828.468 311.363 828.058 310.193 828.058 308.573V299.423H826.108V296.633H828.058V292.523H831.508V296.633H835.528V299.423H831.508ZM847.913 308.513C849.833 306.853 851.343 305.493 852.443 304.433C853.563 303.353 854.493 302.233 855.233 301.073C855.973 299.913 856.343 298.753 856.343 297.593C856.343 296.393 856.053 295.453 855.473 294.773C854.913 294.093 854.023 293.753 852.803 293.753C851.623 293.753 850.703 294.133 850.043 294.893C849.403 295.633 849.063 296.633 849.023 297.893H845.723C845.783 295.613 846.463 293.873 847.763 292.673C849.083 291.453 850.753 290.843 852.773 290.843C854.953 290.843 856.653 291.443 857.873 292.643C859.113 293.843 859.733 295.443 859.733 297.443C859.733 298.883 859.363 300.273 858.623 301.613C857.903 302.933 857.033 304.123 856.013 305.183C855.013 306.223 853.733 307.433 852.173 308.813L850.823 310.013H860.333V312.863H845.753V310.373L847.913 308.513Z" fill="black" fill-opacity="0.8"/>
<path d="M134.079 2H91.0395C77.7847 2 67.0396 12.7452 67.0396 26V715.434C67.0396 728.689 77.7847 739.434 91.0396 739.434H134.079" stroke="#CECCCC" stroke-width="3" stroke-miterlimit="0" stroke-linecap="round" stroke-linejoin="bevel"/>
<path d="M903.473 411.79H896.393L895.343 415H888.353L896.123 393.76H903.803L911.543 415H904.523L903.473 411.79ZM901.853 406.78L899.933 400.87L898.013 406.78H901.853ZM921.906 393.76C924.126 393.76 926.066 394.21 927.726 395.11C929.406 396.01 930.696 397.26 931.596 398.86C932.496 400.46 932.946 402.28 932.946 404.32C932.946 406.34 932.496 408.16 931.596 409.78C930.696 411.4 929.406 412.68 927.726 413.62C926.066 414.54 924.126 415 921.906 415H913.056V393.76H921.906ZM921.306 409.06C922.806 409.06 923.996 408.65 924.876 407.83C925.756 407.01 926.196 405.84 926.196 404.32C926.196 402.8 925.756 401.63 924.876 400.81C923.996 399.99 922.806 399.58 921.306 399.58H919.716V409.06H921.306ZM948.759 415.21C946.219 415.21 944.119 414.62 942.459 413.44C940.819 412.24 939.929 410.49 939.789 408.19H946.869C946.969 409.41 947.509 410.02 948.489 410.02C948.849 410.02 949.149 409.94 949.389 409.78C949.649 409.6 949.779 409.33 949.779 408.97C949.779 408.47 949.509 408.07 948.969 407.77C948.429 407.45 947.589 407.09 946.449 406.69C945.089 406.21 943.959 405.74 943.059 405.28C942.179 404.82 941.419 404.15 940.779 403.27C940.139 402.39 939.829 401.26 939.849 399.88C939.849 398.5 940.199 397.33 940.899 396.37C941.619 395.39 942.589 394.65 943.809 394.15C945.049 393.65 946.439 393.4 947.979 393.4C950.579 393.4 952.639 394 954.159 395.2C955.699 396.4 956.509 398.09 956.589 400.27H949.419C949.399 399.67 949.249 399.24 948.969 398.98C948.689 398.72 948.349 398.59 947.949 398.59C947.669 398.59 947.439 398.69 947.259 398.89C947.079 399.07 946.989 399.33 946.989 399.67C946.989 400.15 947.249 400.55 947.769 400.87C948.309 401.17 949.159 401.54 950.319 401.98C951.659 402.48 952.759 402.96 953.619 403.42C954.499 403.88 955.259 404.52 955.899 405.34C956.539 406.16 956.859 407.19 956.859 408.43C956.859 409.73 956.539 410.9 955.899 411.94C955.259 412.96 954.329 413.76 953.109 414.34C951.889 414.92 950.439 415.21 948.759 415.21ZM965.859 399.07V401.68H972.459V406.69H965.859V409.69H973.359V415H959.199V393.76H973.359V399.07H965.859ZM992.549 393.76V399.04H986.909V415H980.249V399.04H974.669V393.76H992.549ZM786.309 445.348C785.133 444.22 784.227 442.786 783.591 441.046C782.967 439.306 782.655 437.44 782.655 435.448C782.655 433.408 782.991 431.482 783.663 429.67C784.347 427.858 785.349 426.364 786.669 425.188H788.793V425.386C787.413 426.658 786.375 428.182 785.679 429.958C784.983 431.734 784.635 433.564 784.635 435.448C784.635 437.26 784.959 439.012 785.607 440.704C786.255 442.396 787.197 443.878 788.433 445.15V445.348H786.309ZM798.175 439.444H792.937L792.037 442H789.895L794.377 429.472H796.753L801.235 442H799.075L798.175 439.444ZM797.599 437.77L795.565 431.956L793.513 437.77H797.599ZM805.217 429.49V437.464C805.217 438.412 805.463 439.126 805.955 439.606C806.459 440.086 807.155 440.326 808.043 440.326C808.943 440.326 809.639 440.086 810.131 439.606C810.635 439.126 810.887 438.412 810.887 437.464V429.49H812.939V437.428C812.939 438.448 812.717 439.312 812.273 440.02C811.829 440.728 811.235 441.256 810.491 441.604C809.747 441.952 808.925 442.126 808.025 442.126C807.125 442.126 806.303 441.952 805.559 441.604C804.827 441.256 804.245 440.728 803.813 440.02C803.381 439.312 803.165 438.448 803.165 437.428V429.49H805.217ZM819.697 429.49C821.029 429.49 822.193 429.748 823.189 430.264C824.197 430.768 824.971 431.5 825.511 432.46C826.063 433.408 826.339 434.518 826.339 435.79C826.339 437.062 826.063 438.166 825.511 439.102C824.971 440.038 824.197 440.758 823.189 441.262C822.193 441.754 821.029 442 819.697 442H815.611V429.49H819.697ZM819.697 440.326C821.161 440.326 822.283 439.93 823.063 439.138C823.843 438.346 824.233 437.23 824.233 435.79C824.233 434.338 823.843 433.204 823.063 432.388C822.283 431.572 821.161 431.164 819.697 431.164H817.663V440.326H819.697ZM830.425 429.49V442H828.373V429.49H830.425ZM835.171 431.146V434.818H839.491V436.492H835.171V440.326H840.031V442H833.119V429.472H840.031V431.146H835.171ZM852.836 442H850.784L844.61 432.658V442H842.558V429.472H844.61L850.784 438.796V429.472H852.836V442ZM854.847 435.718C854.847 434.494 855.129 433.396 855.693 432.424C856.269 431.452 857.043 430.696 858.015 430.156C858.999 429.604 860.073 429.328 861.237 429.328C862.569 429.328 863.751 429.658 864.783 430.318C865.827 430.966 866.583 431.89 867.051 433.09H864.585C864.261 432.43 863.811 431.938 863.235 431.614C862.659 431.29 861.993 431.128 861.237 431.128C860.409 431.128 859.671 431.314 859.023 431.686C858.375 432.058 857.865 432.592 857.493 433.288C857.133 433.984 856.953 434.794 856.953 435.718C856.953 436.642 857.133 437.452 857.493 438.148C857.865 438.844 858.375 439.384 859.023 439.768C859.671 440.14 860.409 440.326 861.237 440.326C861.993 440.326 862.659 440.164 863.235 439.84C863.811 439.516 864.261 439.024 864.585 438.364H867.051C866.583 439.564 865.827 440.488 864.783 441.136C863.751 441.784 862.569 442.108 861.237 442.108C860.061 442.108 858.987 441.838 858.015 441.298C857.043 440.746 856.269 439.984 855.693 439.012C855.129 438.04 854.847 436.942 854.847 435.718ZM871.505 431.146V434.818H875.825V436.492H871.505V440.326H876.365V442H869.453V429.472H876.365V431.146H871.505ZM881.142 439.534L878.964 444.502H877.632L878.91 439.534H881.142ZM896.359 433.216C896.359 433.852 896.209 434.452 895.909 435.016C895.609 435.58 895.129 436.042 894.469 436.402C893.809 436.75 892.963 436.924 891.931 436.924H889.663V442H887.611V429.49H891.931C892.891 429.49 893.701 429.658 894.361 429.994C895.033 430.318 895.531 430.762 895.855 431.326C896.191 431.89 896.359 432.52 896.359 433.216ZM891.931 435.25C892.711 435.25 893.293 435.076 893.677 434.728C894.061 434.368 894.253 433.864 894.253 433.216C894.253 431.848 893.479 431.164 891.931 431.164H889.663V435.25H891.931ZM900.368 440.344H904.598V442H898.316V429.49H900.368V440.344ZM913.856 439.444H908.618L907.718 442H905.576L910.058 429.472H912.434L916.916 442H914.756L913.856 439.444ZM913.28 437.77L911.246 431.956L909.194 437.77H913.28ZM918.181 435.718C918.181 434.494 918.463 433.396 919.027 432.424C919.603 431.452 920.377 430.696 921.349 430.156C922.333 429.604 923.407 429.328 924.571 429.328C925.903 429.328 927.085 429.658 928.117 430.318C929.161 430.966 929.917 431.89 930.385 433.09H927.919C927.595 432.43 927.145 431.938 926.569 431.614C925.993 431.29 925.327 431.128 924.571 431.128C923.743 431.128 923.005 431.314 922.357 431.686C921.709 432.058 921.199 432.592 920.827 433.288C920.467 433.984 920.287 434.794 920.287 435.718C920.287 436.642 920.467 437.452 920.827 438.148C921.199 438.844 921.709 439.384 922.357 439.768C923.005 440.14 923.743 440.326 924.571 440.326C925.327 440.326 925.993 440.164 926.569 439.84C927.145 439.516 927.595 439.024 927.919 438.364H930.385C929.917 439.564 929.161 440.488 928.117 441.136C927.085 441.784 925.903 442.108 924.571 442.108C923.395 442.108 922.321 441.838 921.349 441.298C920.377 440.746 919.603 439.984 919.027 439.012C918.463 438.04 918.181 436.942 918.181 435.718ZM934.839 431.146V434.818H939.159V436.492H934.839V440.326H939.699V442H932.787V429.472H939.699V431.146H934.839ZM955.402 429.49V442H953.35V433.432L949.534 442H948.112L944.278 433.432V442H942.226V429.49H944.44L948.832 439.3L953.206 429.49H955.402ZM960.151 431.146V434.818H964.471V436.492H960.151V440.326H965.011V442H958.099V429.472H965.011V431.146H960.151ZM977.817 442H975.765L969.591 432.658V442H967.539V429.472H969.591L975.765 438.796V429.472H977.817V442ZM988.594 429.49V431.164H985.264V442H983.212V431.164H979.864V429.49H988.594ZM1005.01 442L1003.47 440.452C1002.87 441.052 1002.21 441.502 1001.5 441.802C1000.8 442.09 1000 442.234 999.127 442.234C998.239 442.234 997.453 442.078 996.769 441.766C996.085 441.454 995.557 441.01 995.185 440.434C994.813 439.846 994.627 439.168 994.627 438.4C994.627 437.536 994.873 436.768 995.365 436.096C995.857 435.412 996.589 434.872 997.561 434.476C997.213 434.056 996.967 433.666 996.823 433.306C996.679 432.934 996.607 432.526 996.607 432.082C996.607 431.53 996.745 431.038 997.021 430.606C997.309 430.174 997.717 429.832 998.245 429.58C998.773 429.328 999.385 429.202 1000.08 429.202C1000.79 429.202 1001.39 429.34 1001.88 429.616C1002.39 429.88 1002.76 430.246 1003 430.714C1003.25 431.182 1003.35 431.704 1003.3 432.28H1001.25C1001.26 431.836 1001.16 431.494 1000.93 431.254C1000.7 431.002 1000.39 430.876 999.991 430.876C999.595 430.876 999.271 430.996 999.019 431.236C998.779 431.464 998.659 431.746 998.659 432.082C998.659 432.406 998.749 432.73 998.929 433.054C999.121 433.366 999.451 433.774 999.919 434.278L1003.23 437.572L1004.51 435.466H1006.72L1005.1 438.238L1004.65 438.976L1007.7 442H1005.01ZM999.127 440.488C1000.26 440.488 1001.25 440.026 1002.12 439.102L998.803 435.772C997.387 436.336 996.679 437.188 996.679 438.328C996.679 438.94 996.907 439.456 997.363 439.876C997.819 440.284 998.407 440.488 999.127 440.488ZM1020.41 435.574C1021.08 435.694 1021.65 436.048 1022.12 436.636C1022.59 437.224 1022.82 437.89 1022.82 438.634C1022.82 439.27 1022.66 439.846 1022.32 440.362C1022 440.866 1021.52 441.268 1020.9 441.568C1020.27 441.856 1019.55 442 1018.72 442H1013.72V429.49H1018.49C1019.34 429.49 1020.07 429.634 1020.68 429.922C1021.29 430.21 1021.76 430.6 1022.07 431.092C1022.38 431.572 1022.54 432.112 1022.54 432.712C1022.54 433.432 1022.34 434.032 1021.96 434.512C1021.58 434.992 1021.06 435.346 1020.41 435.574ZM1015.77 434.746H1018.31C1018.98 434.746 1019.5 434.596 1019.87 434.296C1020.26 433.984 1020.45 433.54 1020.45 432.964C1020.45 432.4 1020.26 431.962 1019.87 431.65C1019.5 431.326 1018.98 431.164 1018.31 431.164H1015.77V434.746ZM1018.54 440.326C1019.24 440.326 1019.78 440.158 1020.18 439.822C1020.57 439.486 1020.77 439.018 1020.77 438.418C1020.77 437.806 1020.56 437.32 1020.14 436.96C1019.72 436.6 1019.16 436.42 1018.47 436.42H1015.77V440.326H1018.54ZM1027.09 429.49V437.464C1027.09 438.412 1027.33 439.126 1027.83 439.606C1028.33 440.086 1029.03 440.326 1029.91 440.326C1030.81 440.326 1031.51 440.086 1032 439.606C1032.51 439.126 1032.76 438.412 1032.76 437.464V429.49H1034.81V437.428C1034.81 438.448 1034.59 439.312 1034.14 440.02C1033.7 440.728 1033.11 441.256 1032.36 441.604C1031.62 441.952 1030.8 442.126 1029.9 442.126C1029 442.126 1028.17 441.952 1027.43 441.604C1026.7 441.256 1026.12 440.728 1025.68 440.02C1025.25 439.312 1025.04 438.448 1025.04 437.428V429.49H1027.09ZM1041.57 429.49C1042.9 429.49 1044.06 429.748 1045.06 430.264C1046.07 430.768 1046.84 431.5 1047.38 432.46C1047.93 433.408 1048.21 434.518 1048.21 435.79C1048.21 437.062 1047.93 438.166 1047.38 439.102C1046.84 440.038 1046.07 440.758 1045.06 441.262C1044.06 441.754 1042.9 442 1041.57 442H1037.48V429.49H1041.57ZM1041.57 440.326C1043.03 440.326 1044.15 439.93 1044.93 439.138C1045.71 438.346 1046.1 437.23 1046.1 435.79C1046.1 434.338 1045.71 433.204 1044.93 432.388C1044.15 431.572 1043.03 431.164 1041.57 431.164H1039.53V440.326H1041.57ZM1059.3 433.09C1058.97 432.466 1058.52 431.998 1057.95 431.686C1057.37 431.362 1056.71 431.2 1055.95 431.2C1055.12 431.2 1054.38 431.386 1053.74 431.758C1053.09 432.13 1052.58 432.658 1052.21 433.342C1051.85 434.026 1051.67 434.818 1051.67 435.718C1051.67 436.618 1051.85 437.416 1052.21 438.112C1052.58 438.796 1053.09 439.324 1053.74 439.696C1054.38 440.068 1055.12 440.254 1055.95 440.254C1057.07 440.254 1057.97 439.942 1058.67 439.318C1059.36 438.694 1059.79 437.848 1059.95 436.78H1055.25V435.142H1062.14V436.744C1062.01 437.716 1061.66 438.61 1061.1 439.426C1060.55 440.242 1059.82 440.896 1058.92 441.388C1058.03 441.868 1057.04 442.108 1055.95 442.108C1054.77 442.108 1053.7 441.838 1052.73 441.298C1051.76 440.746 1050.98 439.984 1050.41 439.012C1049.84 438.04 1049.56 436.942 1049.56 435.718C1049.56 434.494 1049.84 433.396 1050.41 432.424C1050.98 431.452 1051.76 430.696 1052.73 430.156C1053.71 429.604 1054.79 429.328 1055.95 429.328C1057.28 429.328 1058.46 429.658 1059.5 430.318C1060.54 430.966 1061.3 431.89 1061.76 433.09H1059.3ZM1066.22 431.146V434.818H1070.54V436.492H1066.22V440.326H1071.08V442H1064.17V429.472H1071.08V431.146H1066.22ZM1081.69 429.49V431.164H1078.36V442H1076.31V431.164H1072.96V429.49H1081.69ZM1098.11 442L1096.56 440.452C1095.96 441.052 1095.31 441.502 1094.6 441.802C1093.89 442.09 1093.1 442.234 1092.22 442.234C1091.33 442.234 1090.55 442.078 1089.86 441.766C1089.18 441.454 1088.65 441.01 1088.28 440.434C1087.91 439.846 1087.72 439.168 1087.72 438.4C1087.72 437.536 1087.97 436.768 1088.46 436.096C1088.95 435.412 1089.68 434.872 1090.66 434.476C1090.31 434.056 1090.06 433.666 1089.92 433.306C1089.77 432.934 1089.7 432.526 1089.7 432.082C1089.7 431.53 1089.84 431.038 1090.12 430.606C1090.4 430.174 1090.81 429.832 1091.34 429.58C1091.87 429.328 1092.48 429.202 1093.18 429.202C1093.88 429.202 1094.48 429.34 1094.98 429.616C1095.48 429.88 1095.85 430.246 1096.09 430.714C1096.34 431.182 1096.45 431.704 1096.4 432.28H1094.35C1094.36 431.836 1094.25 431.494 1094.02 431.254C1093.79 431.002 1093.48 430.876 1093.09 430.876C1092.69 430.876 1092.37 430.996 1092.11 431.236C1091.87 431.464 1091.75 431.746 1091.75 432.082C1091.75 432.406 1091.84 432.73 1092.02 433.054C1092.22 433.366 1092.55 433.774 1093.01 434.278L1096.33 437.572L1097.6 435.466H1099.82L1098.2 438.238L1097.75 438.976L1100.79 442H1098.11ZM1092.22 440.488C1093.35 440.488 1094.35 440.026 1095.21 439.102L1091.9 435.772C1090.48 436.336 1089.77 437.188 1089.77 438.328C1089.77 438.94 1090 439.456 1090.46 439.876C1090.91 440.284 1091.5 440.488 1092.22 440.488ZM894.537 469.126C893.697 469.126 892.941 468.982 892.269 468.694C891.597 468.394 891.069 467.974 890.685 467.434C890.301 466.894 890.109 466.264 890.109 465.544H892.305C892.353 466.084 892.563 466.528 892.935 466.876C893.319 467.224 893.853 467.398 894.537 467.398C895.245 467.398 895.797 467.23 896.193 466.894C896.589 466.546 896.787 466.102 896.787 465.562C896.787 465.142 896.661 464.8 896.409 464.536C896.169 464.272 895.863 464.068 895.491 463.924C895.131 463.78 894.627 463.624 893.979 463.456C893.163 463.24 892.497 463.024 891.981 462.808C891.477 462.58 891.045 462.232 890.685 461.764C890.325 461.296 890.145 460.672 890.145 459.892C890.145 459.172 890.325 458.542 890.685 458.002C891.045 457.462 891.549 457.048 892.197 456.76C892.845 456.472 893.595 456.328 894.447 456.328C895.659 456.328 896.649 456.634 897.417 457.246C898.197 457.846 898.629 458.674 898.713 459.73H896.445C896.409 459.274 896.193 458.884 895.797 458.56C895.401 458.236 894.879 458.074 894.231 458.074C893.643 458.074 893.163 458.224 892.791 458.524C892.419 458.824 892.233 459.256 892.233 459.82C892.233 460.204 892.347 460.522 892.575 460.774C892.815 461.014 893.115 461.206 893.475 461.35C893.835 461.494 894.327 461.65 894.951 461.818C895.779 462.046 896.451 462.274 896.967 462.502C897.495 462.73 897.939 463.084 898.299 463.564C898.671 464.032 898.857 464.662 898.857 465.454C898.857 466.09 898.683 466.69 898.335 467.254C897.999 467.818 897.501 468.274 896.841 468.622C896.193 468.958 895.425 469.126 894.537 469.126ZM900.594 462.718C900.594 461.494 900.876 460.396 901.44 459.424C902.016 458.452 902.79 457.696 903.762 457.156C904.746 456.604 905.82 456.328 906.984 456.328C908.316 456.328 909.498 456.658 910.53 457.318C911.574 457.966 912.33 458.89 912.798 460.09H910.332C910.008 459.43 909.558 458.938 908.982 458.614C908.406 458.29 907.74 458.128 906.984 458.128C906.156 458.128 905.418 458.314 904.77 458.686C904.122 459.058 903.612 459.592 903.24 460.288C902.88 460.984 902.7 461.794 902.7 462.718C902.7 463.642 902.88 464.452 903.24 465.148C903.612 465.844 904.122 466.384 904.77 466.768C905.418 467.14 906.156 467.326 906.984 467.326C907.74 467.326 908.406 467.164 908.982 466.84C909.558 466.516 910.008 466.024 910.332 465.364H912.798C912.33 466.564 911.574 467.488 910.53 468.136C909.498 468.784 908.316 469.108 906.984 469.108C905.808 469.108 904.734 468.838 903.762 468.298C902.79 467.746 902.016 466.984 901.44 466.012C900.876 465.04 900.594 463.942 900.594 462.718ZM925.19 456.49V469H923.138V463.528H917.252V469H915.2V456.49H917.252V461.854H923.138V456.49H925.19ZM929.943 458.146V461.818H934.263V463.492H929.943V467.326H934.803V469H927.891V456.472H934.803V458.146H929.943ZM941.417 456.49C942.749 456.49 943.913 456.748 944.909 457.264C945.917 457.768 946.691 458.5 947.231 459.46C947.783 460.408 948.059 461.518 948.059 462.79C948.059 464.062 947.783 465.166 947.231 466.102C946.691 467.038 945.917 467.758 944.909 468.262C943.913 468.754 942.749 469 941.417 469H937.331V456.49H941.417ZM941.417 467.326C942.881 467.326 944.003 466.93 944.783 466.138C945.563 465.346 945.953 464.23 945.953 462.79C945.953 461.338 945.563 460.204 944.783 459.388C944.003 458.572 942.881 458.164 941.417 458.164H939.383V467.326H941.417ZM952.127 456.49V464.464C952.127 465.412 952.373 466.126 952.865 466.606C953.369 467.086 954.065 467.326 954.953 467.326C955.853 467.326 956.549 467.086 957.041 466.606C957.545 466.126 957.797 465.412 957.797 464.464V456.49H959.849V464.428C959.849 465.448 959.627 466.312 959.183 467.02C958.739 467.728 958.145 468.256 957.401 468.604C956.657 468.952 955.835 469.126 954.935 469.126C954.035 469.126 953.213 468.952 952.469 468.604C951.737 468.256 951.155 467.728 950.723 467.02C950.291 466.312 950.075 465.448 950.075 464.428V456.49H952.127ZM964.572 467.344H968.802V469H962.52V456.49H964.572V467.344ZM972.57 458.146V461.818H976.89V463.492H972.57V467.326H977.43V469H970.518V456.472H977.43V458.146H972.57ZM984.13 472.348V472.15C985.366 470.878 986.308 469.396 986.956 467.704C987.604 466.012 987.928 464.26 987.928 462.448C987.928 460.564 987.58 458.734 986.884 456.958C986.188 455.182 985.15 453.658 983.77 452.386V452.188H985.894C987.214 453.364 988.21 454.858 988.882 456.67C989.566 458.482 989.908 460.408 989.908 462.448C989.908 464.44 989.59 466.306 988.954 468.046C988.33 469.786 987.43 471.22 986.254 472.348H984.13Z" fill="white"/>
<path d="M515.606 679.222H508.054L506.934 682.646H499.478L507.766 659.99H515.958L524.214 682.646H516.726L515.606 679.222ZM513.878 673.878L511.83 667.574L509.782 673.878H513.878ZM535.268 659.99C537.636 659.99 539.705 660.47 541.476 661.43C543.268 662.39 544.644 663.723 545.604 665.43C546.564 667.136 547.044 669.078 547.044 671.254C547.044 673.408 546.564 675.35 545.604 677.078C544.644 678.806 543.268 680.171 541.476 681.174C539.705 682.155 537.636 682.646 535.268 682.646H525.828V659.99H535.268ZM534.628 676.31C536.228 676.31 537.497 675.872 538.436 674.998C539.374 674.123 539.844 672.875 539.844 671.254C539.844 669.632 539.374 668.384 538.436 667.51C537.497 666.635 536.228 666.198 534.628 666.198H532.932V676.31H534.628Z" fill="white"/>
<path d="M1066.62 679.222H1059.07L1057.95 682.646H1050.49L1058.78 659.99H1066.97L1075.23 682.646H1067.74L1066.62 679.222ZM1064.89 673.878L1062.84 667.574L1060.8 673.878H1064.89ZM1086.28 659.99C1088.65 659.99 1090.72 660.47 1092.49 661.43C1094.28 662.39 1095.66 663.723 1096.62 665.43C1097.58 667.136 1098.06 669.078 1098.06 671.254C1098.06 673.408 1097.58 675.35 1096.62 677.078C1095.66 678.806 1094.28 680.171 1092.49 681.174C1090.72 682.155 1088.65 682.646 1086.28 682.646H1076.84V659.99H1086.28ZM1085.64 676.31C1087.24 676.31 1088.51 675.872 1089.45 674.998C1090.39 674.123 1090.86 672.875 1090.86 671.254C1090.86 669.632 1090.39 668.384 1089.45 667.51C1088.51 666.635 1087.24 666.198 1085.64 666.198H1083.95V676.31H1085.64Z" fill="white"/>
</svg>
