<svg width="1152" height="863" viewBox="0 0 1152 863" fill="none" xmlns="http://www.w3.org/2000/svg">
<rect x="459.081" y="143.5" width="413" height="203" rx="16.5" fill="#F2F2F2" stroke="#00D563" stroke-width="7"/>
<path d="M580.172 222.75C580.172 220.65 580.592 218.78 581.432 217.14C582.292 215.5 583.512 214.23 585.092 213.33C586.672 212.41 588.532 211.95 590.672 211.95C592.512 211.95 594.152 212.3 595.592 213C597.052 213.68 598.232 214.65 599.132 215.91C600.052 217.17 600.662 218.64 600.962 220.32H593.942C593.622 219.62 593.162 219.08 592.562 218.7C591.982 218.3 591.312 218.1 590.552 218.1C589.432 218.1 588.542 218.52 587.882 219.36C587.242 220.2 586.922 221.33 586.922 222.75C586.922 224.17 587.242 225.3 587.882 226.14C588.542 226.98 589.432 227.4 590.552 227.4C591.312 227.4 591.982 227.21 592.562 226.83C593.162 226.43 593.622 225.88 593.942 225.18H600.962C600.662 226.86 600.052 228.33 599.132 229.59C598.232 230.85 597.052 231.83 595.592 232.53C594.152 233.21 592.512 233.55 590.672 233.55C588.532 233.55 586.672 233.1 585.092 232.2C583.512 231.28 582.292 230 581.432 228.36C580.592 226.72 580.172 224.85 580.172 222.75ZM616.98 230.19H609.9L608.85 233.4H601.86L609.63 212.16H617.31L625.05 233.4H618.03L616.98 230.19ZM615.36 225.18L613.44 219.27L611.52 225.18H615.36ZM652.093 212.16V233.4H645.463V222.81L642.193 233.4H636.493L633.223 222.81V233.4H626.563V212.16H634.723L639.403 224.91L643.963 212.16H652.093ZM672.468 219.45C672.468 220.79 672.158 222.01 671.538 223.11C670.918 224.19 669.998 225.05 668.778 225.69C667.578 226.33 666.118 226.65 664.398 226.65H661.758V233.4H655.098V212.16H664.398C666.998 212.16 668.988 212.82 670.368 214.14C671.768 215.46 672.468 217.23 672.468 219.45ZM663.648 221.4C665.028 221.4 665.718 220.75 665.718 219.45C665.718 218.15 665.028 217.5 663.648 217.5H661.758V221.4H663.648ZM688.201 230.19H681.121L680.071 233.4H673.081L680.851 212.16H688.531L696.271 233.4H689.251L688.201 230.19ZM686.581 225.18L684.661 219.27L682.741 225.18H686.581ZM704.444 212.16V233.4H697.784V212.16H704.444ZM720.472 219.42C720.212 219 719.842 218.68 719.362 218.46C718.882 218.22 718.302 218.1 717.622 218.1C716.342 218.1 715.352 218.52 714.652 219.36C713.952 220.18 713.602 221.31 713.602 222.75C713.602 224.41 713.992 225.65 714.772 226.47C715.552 227.29 716.752 227.7 718.372 227.7C719.912 227.7 721.152 227.08 722.092 225.84H716.782V221.13H727.612V227.79C726.692 229.37 725.422 230.73 723.802 231.87C722.182 232.99 720.132 233.55 717.652 233.55C715.452 233.55 713.532 233.1 711.892 232.2C710.272 231.28 709.022 230 708.142 228.36C707.282 226.72 706.852 224.85 706.852 222.75C706.852 220.65 707.282 218.78 708.142 217.14C709.022 215.5 710.272 214.23 711.892 213.33C713.512 212.41 715.412 211.95 717.592 211.95C720.372 211.95 722.632 212.62 724.372 213.96C726.132 215.3 727.172 217.12 727.492 219.42H720.472ZM750.38 233.4H743.72L736.67 222.72V233.4H730.01V212.16H736.67L743.72 223.02V212.16H750.38V233.4ZM595.407 283.98V283.71C591.237 279.42 589.107 273.51 589.107 267.42C589.107 261.3 591.237 255 595.857 250.65V250.38H593.007C588.747 254.31 586.467 260.64 586.467 267.42C586.467 274.17 588.747 280.23 592.557 283.98H595.407ZM614.76 270.15C614.76 264.96 611.13 261.69 606.45 261.69C601.8 261.69 598.14 264.96 598.14 270.15C598.14 275.37 601.68 278.67 606.33 278.67C611.01 278.67 614.76 275.37 614.76 270.15ZM600.93 270.15C600.93 266.01 603.54 264.06 606.42 264.06C609.24 264.06 611.97 266.01 611.97 270.15C611.97 274.32 609.18 276.27 606.33 276.27C603.48 276.27 600.93 274.32 600.93 270.15ZM621.08 265.02V256.2H618.35V278.4H621.08V275.37C622.1 277.17 624.23 278.67 627.23 278.67C631.64 278.67 635.03 275.22 635.03 270.12C635.03 264.99 631.67 261.69 627.23 261.69C624.32 261.69 622.13 263.19 621.08 265.02ZM632.24 270.12C632.24 273.99 629.69 276.27 626.66 276.27C623.69 276.27 621.08 274.02 621.08 270.15C621.08 266.34 623.69 264.06 626.66 264.06C629.69 264.06 632.24 266.25 632.24 270.12ZM640.093 259.29C641.113 259.29 641.923 258.48 641.923 257.43C641.923 256.38 641.113 255.57 640.093 255.57C639.073 255.57 638.263 256.38 638.263 257.43C638.263 258.48 639.073 259.29 640.093 259.29ZM638.713 261.96V281.91C638.713 283.35 638.143 283.89 636.643 283.89H635.503V286.2H637.093C639.883 286.2 641.443 284.94 641.443 281.97V261.96H638.713ZM653.054 264C655.874 264 658.274 265.77 658.244 268.98H647.864C648.164 265.77 650.384 264 653.054 264ZM660.734 273.33H657.794C657.194 275.1 655.634 276.36 653.174 276.36C650.384 276.36 648.044 274.53 647.834 271.2H660.974C661.034 270.63 661.064 270.15 661.064 269.55C661.064 265.05 657.944 261.69 653.174 261.69C648.374 261.69 645.044 264.96 645.044 270.15C645.044 275.37 648.494 278.67 653.174 278.67C657.254 278.67 659.894 276.33 660.734 273.33ZM663.648 270.15C663.648 275.37 666.978 278.67 671.658 278.67C675.738 278.67 678.408 276.39 679.248 273.12H676.308C675.708 275.19 674.088 276.36 671.658 276.36C668.658 276.36 666.438 274.23 666.438 270.15C666.438 266.13 668.658 264 671.658 264C674.088 264 675.738 265.26 676.308 267.24H679.248C678.408 263.79 675.738 261.69 671.658 261.69C666.978 261.69 663.648 264.99 663.648 270.15ZM683.491 273.9C683.491 277.2 685.141 278.4 688.051 278.4H690.511V276.09H688.501C686.821 276.09 686.221 275.52 686.221 273.9V264.21H690.511V261.96H686.221V257.82H683.491V261.96H681.361V264.21H683.491V273.9ZM693.818 278.4H696.548V261.96H693.818V278.4ZM695.228 259.29C696.218 259.29 697.028 258.48 697.028 257.43C697.028 256.38 696.218 255.57 695.228 255.57C694.178 255.57 693.368 256.38 693.368 257.43C693.368 258.48 694.178 259.29 695.228 259.29ZM699.251 261.96L705.701 278.4H708.881L715.331 261.96H712.421L707.321 275.88L702.191 261.96H699.251ZM725.008 264C727.828 264 730.228 265.77 730.198 268.98H719.818C720.118 265.77 722.338 264 725.008 264ZM732.688 273.33H729.748C729.148 275.1 727.588 276.36 725.128 276.36C722.338 276.36 719.998 274.53 719.788 271.2H732.928C732.988 270.63 733.018 270.15 733.018 269.55C733.018 265.05 729.898 261.69 725.128 261.69C720.328 261.69 716.998 264.96 716.998 270.15C716.998 275.37 720.448 278.67 725.128 278.67C729.208 278.67 731.848 276.33 732.688 273.33ZM735.751 283.98V283.71C739.921 279.42 742.051 273.51 742.051 267.42C742.051 261.3 739.921 255 735.301 250.65V250.38H738.151C742.411 254.31 744.691 260.64 744.691 267.42C744.691 274.17 742.411 280.23 738.601 283.98H735.751Z" fill="black"/>
<rect x="180.549" y="496.382" width="419.776" height="108.329" rx="54.1647" fill="#00D563"/>
<path d="M353.306 533.482H346.226L345.176 536.692H338.186L345.956 515.452H353.636L361.376 536.692H354.356L353.306 533.482ZM351.686 528.472L349.766 522.562L347.846 528.472H351.686ZM371.739 515.452C373.959 515.452 375.899 515.902 377.559 516.802C379.239 517.702 380.529 518.952 381.429 520.552C382.329 522.152 382.779 523.972 382.779 526.012C382.779 528.032 382.329 529.852 381.429 531.472C380.529 533.092 379.239 534.372 377.559 535.312C375.899 536.232 373.959 536.692 371.739 536.692H362.889V515.452H371.739ZM371.139 530.752C372.639 530.752 373.829 530.342 374.709 529.522C375.589 528.702 376.029 527.532 376.029 526.012C376.029 524.492 375.589 523.322 374.709 522.502C373.829 521.682 372.639 521.272 371.139 521.272H369.549V530.752H371.139ZM398.592 536.902C396.052 536.902 393.952 536.312 392.292 535.132C390.652 533.932 389.762 532.182 389.622 529.882H396.702C396.802 531.102 397.342 531.712 398.322 531.712C398.682 531.712 398.982 531.632 399.222 531.472C399.482 531.292 399.612 531.022 399.612 530.662C399.612 530.162 399.342 529.762 398.802 529.462C398.262 529.142 397.422 528.782 396.282 528.382C394.922 527.902 393.792 527.432 392.892 526.972C392.012 526.512 391.252 525.842 390.612 524.962C389.972 524.082 389.662 522.952 389.682 521.572C389.682 520.192 390.032 519.022 390.732 518.062C391.452 517.082 392.422 516.342 393.642 515.842C394.882 515.342 396.272 515.092 397.812 515.092C400.412 515.092 402.472 515.692 403.992 516.892C405.532 518.092 406.342 519.782 406.422 521.962H399.252C399.232 521.362 399.082 520.932 398.802 520.672C398.522 520.412 398.182 520.282 397.782 520.282C397.502 520.282 397.272 520.382 397.092 520.582C396.912 520.762 396.822 521.022 396.822 521.362C396.822 521.842 397.082 522.242 397.602 522.562C398.142 522.862 398.992 523.232 400.152 523.672C401.492 524.172 402.592 524.652 403.452 525.112C404.332 525.572 405.092 526.212 405.732 527.032C406.372 527.852 406.692 528.882 406.692 530.122C406.692 531.422 406.372 532.592 405.732 533.632C405.092 534.652 404.162 535.452 402.942 536.032C401.722 536.612 400.272 536.902 398.592 536.902ZM415.692 520.762V523.372H422.292V528.382H415.692V531.382H423.192V536.692H409.032V515.452H423.192V520.762H415.692ZM442.382 515.452V520.732H436.742V536.692H430.082V520.732H424.502V515.452H442.382ZM236.143 567.04C234.967 565.912 234.061 564.478 233.425 562.738C232.801 560.998 232.489 559.132 232.489 557.14C232.489 555.1 232.825 553.174 233.497 551.362C234.181 549.55 235.183 548.056 236.503 546.88H238.627V547.078C237.247 548.35 236.209 549.874 235.513 551.65C234.817 553.426 234.469 555.256 234.469 557.14C234.469 558.952 234.793 560.704 235.441 562.396C236.089 564.088 237.031 565.57 238.267 566.842V567.04H236.143ZM248.008 561.136H242.77L241.87 563.692H239.728L244.21 551.164H246.586L251.068 563.692H248.908L248.008 561.136ZM247.432 559.462L245.398 553.648L243.346 559.462H247.432ZM255.051 551.182V559.156C255.051 560.104 255.297 560.818 255.789 561.298C256.293 561.778 256.989 562.018 257.877 562.018C258.777 562.018 259.473 561.778 259.965 561.298C260.469 560.818 260.721 560.104 260.721 559.156V551.182H262.773V559.12C262.773 560.14 262.551 561.004 262.107 561.712C261.663 562.42 261.069 562.948 260.325 563.296C259.581 563.644 258.759 563.818 257.859 563.818C256.959 563.818 256.137 563.644 255.393 563.296C254.661 562.948 254.079 562.42 253.647 561.712C253.215 561.004 252.999 560.14 252.999 559.12V551.182H255.051ZM269.53 551.182C270.862 551.182 272.026 551.44 273.022 551.956C274.03 552.46 274.804 553.192 275.344 554.152C275.896 555.1 276.172 556.21 276.172 557.482C276.172 558.754 275.896 559.858 275.344 560.794C274.804 561.73 274.03 562.45 273.022 562.954C272.026 563.446 270.862 563.692 269.53 563.692H265.444V551.182H269.53ZM269.53 562.018C270.994 562.018 272.116 561.622 272.896 560.83C273.676 560.038 274.066 558.922 274.066 557.482C274.066 556.03 273.676 554.896 272.896 554.08C272.116 553.264 270.994 552.856 269.53 552.856H267.496V562.018H269.53ZM280.258 551.182V563.692H278.206V551.182H280.258ZM285.004 552.838V556.51H289.324V558.184H285.004V562.018H289.864V563.692H282.952V551.164H289.864V552.838H285.004ZM302.67 563.692H300.618L294.444 554.35V563.692H292.392V551.164H294.444L300.618 560.488V551.164H302.67V563.692ZM304.68 557.41C304.68 556.186 304.962 555.088 305.526 554.116C306.102 553.144 306.876 552.388 307.848 551.848C308.832 551.296 309.906 551.02 311.07 551.02C312.402 551.02 313.584 551.35 314.616 552.01C315.66 552.658 316.416 553.582 316.884 554.782H314.418C314.094 554.122 313.644 553.63 313.068 553.306C312.492 552.982 311.826 552.82 311.07 552.82C310.242 552.82 309.504 553.006 308.856 553.378C308.208 553.75 307.698 554.284 307.326 554.98C306.966 555.676 306.786 556.486 306.786 557.41C306.786 558.334 306.966 559.144 307.326 559.84C307.698 560.536 308.208 561.076 308.856 561.46C309.504 561.832 310.242 562.018 311.07 562.018C311.826 562.018 312.492 561.856 313.068 561.532C313.644 561.208 314.094 560.716 314.418 560.056H316.884C316.416 561.256 315.66 562.18 314.616 562.828C313.584 563.476 312.402 563.8 311.07 563.8C309.894 563.8 308.82 563.53 307.848 562.99C306.876 562.438 306.102 561.676 305.526 560.704C304.962 559.732 304.68 558.634 304.68 557.41ZM321.338 552.838V556.51H325.658V558.184H321.338V562.018H326.198V563.692H319.286V551.164H326.198V552.838H321.338ZM330.976 561.226L328.798 566.194H327.466L328.744 561.226H330.976ZM346.192 554.908C346.192 555.544 346.042 556.144 345.742 556.708C345.442 557.272 344.962 557.734 344.302 558.094C343.642 558.442 342.796 558.616 341.764 558.616H339.496V563.692H337.444V551.182H341.764C342.724 551.182 343.534 551.35 344.194 551.686C344.866 552.01 345.364 552.454 345.688 553.018C346.024 553.582 346.192 554.212 346.192 554.908ZM341.764 556.942C342.544 556.942 343.126 556.768 343.51 556.42C343.894 556.06 344.086 555.556 344.086 554.908C344.086 553.54 343.312 552.856 341.764 552.856H339.496V556.942H341.764ZM350.202 562.036H354.432V563.692H348.15V551.182H350.202V562.036ZM363.69 561.136H358.452L357.552 563.692H355.41L359.892 551.164H362.268L366.75 563.692H364.59L363.69 561.136ZM363.114 559.462L361.08 553.648L359.028 559.462H363.114ZM368.014 557.41C368.014 556.186 368.296 555.088 368.86 554.116C369.436 553.144 370.21 552.388 371.182 551.848C372.166 551.296 373.24 551.02 374.404 551.02C375.736 551.02 376.918 551.35 377.95 552.01C378.994 552.658 379.75 553.582 380.218 554.782H377.752C377.428 554.122 376.978 553.63 376.402 553.306C375.826 552.982 375.16 552.82 374.404 552.82C373.576 552.82 372.838 553.006 372.19 553.378C371.542 553.75 371.032 554.284 370.66 554.98C370.3 555.676 370.12 556.486 370.12 557.41C370.12 558.334 370.3 559.144 370.66 559.84C371.032 560.536 371.542 561.076 372.19 561.46C372.838 561.832 373.576 562.018 374.404 562.018C375.16 562.018 375.826 561.856 376.402 561.532C376.978 561.208 377.428 560.716 377.752 560.056H380.218C379.75 561.256 378.994 562.18 377.95 562.828C376.918 563.476 375.736 563.8 374.404 563.8C373.228 563.8 372.154 563.53 371.182 562.99C370.21 562.438 369.436 561.676 368.86 560.704C368.296 559.732 368.014 558.634 368.014 557.41ZM384.672 552.838V556.51H388.992V558.184H384.672V562.018H389.532V563.692H382.62V551.164H389.532V552.838H384.672ZM405.236 551.182V563.692H403.184V555.124L399.368 563.692H397.946L394.112 555.124V563.692H392.06V551.182H394.274L398.666 560.992L403.04 551.182H405.236ZM409.985 552.838V556.51H414.305V558.184H409.985V562.018H414.845V563.692H407.933V551.164H414.845V552.838H409.985ZM427.65 563.692H425.598L419.424 554.35V563.692H417.372V551.164H419.424L425.598 560.488V551.164H427.65V563.692ZM438.427 551.182V552.856H435.097V563.692H433.045V552.856H429.697V551.182H438.427ZM454.847 563.692L453.299 562.144C452.699 562.744 452.045 563.194 451.337 563.494C450.629 563.782 449.837 563.926 448.961 563.926C448.073 563.926 447.287 563.77 446.603 563.458C445.919 563.146 445.391 562.702 445.019 562.126C444.647 561.538 444.461 560.86 444.461 560.092C444.461 559.228 444.707 558.46 445.199 557.788C445.691 557.104 446.423 556.564 447.395 556.168C447.047 555.748 446.801 555.358 446.657 554.998C446.513 554.626 446.441 554.218 446.441 553.774C446.441 553.222 446.579 552.73 446.855 552.298C447.143 551.866 447.551 551.524 448.079 551.272C448.607 551.02 449.219 550.894 449.915 550.894C450.623 550.894 451.223 551.032 451.715 551.308C452.219 551.572 452.591 551.938 452.831 552.406C453.083 552.874 453.185 553.396 453.137 553.972H451.085C451.097 553.528 450.989 553.186 450.761 552.946C450.533 552.694 450.221 552.568 449.825 552.568C449.429 552.568 449.105 552.688 448.853 552.928C448.613 553.156 448.493 553.438 448.493 553.774C448.493 554.098 448.583 554.422 448.763 554.746C448.955 555.058 449.285 555.466 449.753 555.97L453.065 559.264L454.343 557.158H456.557L454.937 559.93L454.487 560.668L457.529 563.692H454.847ZM448.961 562.18C450.089 562.18 451.085 561.718 451.949 560.794L448.637 557.464C447.221 558.028 446.513 558.88 446.513 560.02C446.513 560.632 446.741 561.148 447.197 561.568C447.653 561.976 448.241 562.18 448.961 562.18ZM470.246 557.266C470.918 557.386 471.488 557.74 471.956 558.328C472.424 558.916 472.658 559.582 472.658 560.326C472.658 560.962 472.49 561.538 472.154 562.054C471.83 562.558 471.356 562.96 470.732 563.26C470.108 563.548 469.382 563.692 468.554 563.692H463.55V551.182H468.32C469.172 551.182 469.904 551.326 470.516 551.614C471.128 551.902 471.59 552.292 471.902 552.784C472.214 553.264 472.37 553.804 472.37 554.404C472.37 555.124 472.178 555.724 471.794 556.204C471.41 556.684 470.894 557.038 470.246 557.266ZM465.602 556.438H468.14C468.812 556.438 469.334 556.288 469.706 555.988C470.09 555.676 470.282 555.232 470.282 554.656C470.282 554.092 470.09 553.654 469.706 553.342C469.334 553.018 468.812 552.856 468.14 552.856H465.602V556.438ZM468.374 562.018C469.07 562.018 469.616 561.85 470.012 561.514C470.408 561.178 470.606 560.71 470.606 560.11C470.606 559.498 470.396 559.012 469.976 558.652C469.556 558.292 468.998 558.112 468.302 558.112H465.602V562.018H468.374ZM476.922 551.182V559.156C476.922 560.104 477.168 560.818 477.66 561.298C478.164 561.778 478.86 562.018 479.748 562.018C480.648 562.018 481.344 561.778 481.836 561.298C482.34 560.818 482.592 560.104 482.592 559.156V551.182H484.644V559.12C484.644 560.14 484.422 561.004 483.978 561.712C483.534 562.42 482.94 562.948 482.196 563.296C481.452 563.644 480.63 563.818 479.73 563.818C478.83 563.818 478.008 563.644 477.264 563.296C476.532 562.948 475.95 562.42 475.518 561.712C475.086 561.004 474.87 560.14 474.87 559.12V551.182H476.922ZM491.402 551.182C492.734 551.182 493.898 551.44 494.894 551.956C495.902 552.46 496.676 553.192 497.216 554.152C497.768 555.1 498.044 556.21 498.044 557.482C498.044 558.754 497.768 559.858 497.216 560.794C496.676 561.73 495.902 562.45 494.894 562.954C493.898 563.446 492.734 563.692 491.402 563.692H487.316V551.182H491.402ZM491.402 562.018C492.866 562.018 493.988 561.622 494.768 560.83C495.548 560.038 495.938 558.922 495.938 557.482C495.938 556.03 495.548 554.896 494.768 554.08C493.988 553.264 492.866 552.856 491.402 552.856H489.368V562.018H491.402ZM509.131 554.782C508.807 554.158 508.357 553.69 507.781 553.378C507.205 553.054 506.539 552.892 505.783 552.892C504.955 552.892 504.217 553.078 503.569 553.45C502.921 553.822 502.411 554.35 502.039 555.034C501.679 555.718 501.499 556.51 501.499 557.41C501.499 558.31 501.679 559.108 502.039 559.804C502.411 560.488 502.921 561.016 503.569 561.388C504.217 561.76 504.955 561.946 505.783 561.946C506.899 561.946 507.805 561.634 508.501 561.01C509.197 560.386 509.623 559.54 509.779 558.472H505.081V556.834H511.975V558.436C511.843 559.408 511.495 560.302 510.931 561.118C510.379 561.934 509.653 562.588 508.753 563.08C507.865 563.56 506.875 563.8 505.783 563.8C504.607 563.8 503.533 563.53 502.561 562.99C501.589 562.438 500.815 561.676 500.239 560.704C499.675 559.732 499.393 558.634 499.393 557.41C499.393 556.186 499.675 555.088 500.239 554.116C500.815 553.144 501.589 552.388 502.561 551.848C503.545 551.296 504.619 551.02 505.783 551.02C507.115 551.02 508.297 551.35 509.329 552.01C510.373 552.658 511.129 553.582 511.597 554.782H509.131ZM516.051 552.838V556.51H520.371V558.184H516.051V562.018H520.911V563.692H513.999V551.164H520.911V552.838H516.051ZM531.521 551.182V552.856H528.191V563.692H526.139V552.856H522.791V551.182H531.521ZM547.941 563.692L546.393 562.144C545.793 562.744 545.139 563.194 544.431 563.494C543.723 563.782 542.931 563.926 542.055 563.926C541.167 563.926 540.381 563.77 539.697 563.458C539.013 563.146 538.485 562.702 538.113 562.126C537.741 561.538 537.555 560.86 537.555 560.092C537.555 559.228 537.801 558.46 538.293 557.788C538.785 557.104 539.517 556.564 540.489 556.168C540.141 555.748 539.895 555.358 539.751 554.998C539.607 554.626 539.535 554.218 539.535 553.774C539.535 553.222 539.673 552.73 539.949 552.298C540.237 551.866 540.645 551.524 541.173 551.272C541.701 551.02 542.313 550.894 543.009 550.894C543.717 550.894 544.317 551.032 544.809 551.308C545.313 551.572 545.685 551.938 545.925 552.406C546.177 552.874 546.279 553.396 546.231 553.972H544.179C544.191 553.528 544.083 553.186 543.855 552.946C543.627 552.694 543.315 552.568 542.919 552.568C542.523 552.568 542.199 552.688 541.947 552.928C541.707 553.156 541.587 553.438 541.587 553.774C541.587 554.098 541.677 554.422 541.857 554.746C542.049 555.058 542.379 555.466 542.847 555.97L546.159 559.264L547.437 557.158H549.651L548.031 559.93L547.581 560.668L550.623 563.692H547.941ZM542.055 562.18C543.183 562.18 544.179 561.718 545.043 560.794L541.731 557.464C540.315 558.028 539.607 558.88 539.607 560.02C539.607 560.632 539.835 561.148 540.291 561.568C540.747 561.976 541.335 562.18 542.055 562.18ZM344.37 590.818C343.53 590.818 342.774 590.674 342.102 590.386C341.43 590.086 340.902 589.666 340.518 589.126C340.134 588.586 339.942 587.956 339.942 587.236H342.138C342.186 587.776 342.396 588.22 342.768 588.568C343.152 588.916 343.686 589.09 344.37 589.09C345.078 589.09 345.63 588.922 346.026 588.586C346.422 588.238 346.62 587.794 346.62 587.254C346.62 586.834 346.494 586.492 346.242 586.228C346.002 585.964 345.696 585.76 345.324 585.616C344.964 585.472 344.46 585.316 343.812 585.148C342.996 584.932 342.33 584.716 341.814 584.5C341.31 584.272 340.878 583.924 340.518 583.456C340.158 582.988 339.978 582.364 339.978 581.584C339.978 580.864 340.158 580.234 340.518 579.694C340.878 579.154 341.382 578.74 342.03 578.452C342.678 578.164 343.428 578.02 344.28 578.02C345.492 578.02 346.482 578.326 347.25 578.938C348.03 579.538 348.462 580.366 348.546 581.422H346.278C346.242 580.966 346.026 580.576 345.63 580.252C345.234 579.928 344.712 579.766 344.064 579.766C343.476 579.766 342.996 579.916 342.624 580.216C342.252 580.516 342.066 580.948 342.066 581.512C342.066 581.896 342.18 582.214 342.408 582.466C342.648 582.706 342.948 582.898 343.308 583.042C343.668 583.186 344.16 583.342 344.784 583.51C345.612 583.738 346.284 583.966 346.8 584.194C347.328 584.422 347.772 584.776 348.132 585.256C348.504 585.724 348.69 586.354 348.69 587.146C348.69 587.782 348.516 588.382 348.168 588.946C347.832 589.51 347.334 589.966 346.674 590.314C346.026 590.65 345.258 590.818 344.37 590.818ZM350.427 584.41C350.427 583.186 350.709 582.088 351.273 581.116C351.849 580.144 352.623 579.388 353.595 578.848C354.579 578.296 355.653 578.02 356.817 578.02C358.149 578.02 359.331 578.35 360.363 579.01C361.407 579.658 362.163 580.582 362.631 581.782H360.165C359.841 581.122 359.391 580.63 358.815 580.306C358.239 579.982 357.573 579.82 356.817 579.82C355.989 579.82 355.251 580.006 354.603 580.378C353.955 580.75 353.445 581.284 353.073 581.98C352.713 582.676 352.533 583.486 352.533 584.41C352.533 585.334 352.713 586.144 353.073 586.84C353.445 587.536 353.955 588.076 354.603 588.46C355.251 588.832 355.989 589.018 356.817 589.018C357.573 589.018 358.239 588.856 358.815 588.532C359.391 588.208 359.841 587.716 360.165 587.056H362.631C362.163 588.256 361.407 589.18 360.363 589.828C359.331 590.476 358.149 590.8 356.817 590.8C355.641 590.8 354.567 590.53 353.595 589.99C352.623 589.438 351.849 588.676 351.273 587.704C350.709 586.732 350.427 585.634 350.427 584.41ZM375.023 578.182V590.692H372.971V585.22H367.085V590.692H365.033V578.182H367.085V583.546H372.971V578.182H375.023ZM379.777 579.838V583.51H384.097V585.184H379.777V589.018H384.637V590.692H377.725V578.164H384.637V579.838H379.777ZM391.25 578.182C392.582 578.182 393.746 578.44 394.742 578.956C395.75 579.46 396.524 580.192 397.064 581.152C397.616 582.1 397.892 583.21 397.892 584.482C397.892 585.754 397.616 586.858 397.064 587.794C396.524 588.73 395.75 589.45 394.742 589.954C393.746 590.446 392.582 590.692 391.25 590.692H387.164V578.182H391.25ZM391.25 589.018C392.714 589.018 393.836 588.622 394.616 587.83C395.396 587.038 395.786 585.922 395.786 584.482C395.786 583.03 395.396 581.896 394.616 581.08C393.836 580.264 392.714 579.856 391.25 579.856H389.216V589.018H391.25ZM401.96 578.182V586.156C401.96 587.104 402.206 587.818 402.698 588.298C403.202 588.778 403.898 589.018 404.786 589.018C405.686 589.018 406.382 588.778 406.874 588.298C407.378 587.818 407.63 587.104 407.63 586.156V578.182H409.682V586.12C409.682 587.14 409.46 588.004 409.016 588.712C408.572 589.42 407.978 589.948 407.234 590.296C406.49 590.644 405.668 590.818 404.768 590.818C403.868 590.818 403.046 590.644 402.302 590.296C401.57 589.948 400.988 589.42 400.556 588.712C400.124 588.004 399.908 587.14 399.908 586.12V578.182H401.96ZM414.406 589.036H418.636V590.692H412.354V578.182H414.406V589.036ZM422.404 579.838V583.51H426.724V585.184H422.404V589.018H427.264V590.692H420.352V578.164H427.264V579.838H422.404ZM433.963 594.04V593.842C435.199 592.57 436.141 591.088 436.789 589.396C437.437 587.704 437.761 585.952 437.761 584.14C437.761 582.256 437.413 580.426 436.717 578.65C436.021 576.874 434.983 575.35 433.603 574.078V573.88H435.727C437.047 575.056 438.043 576.55 438.715 578.362C439.399 580.174 439.741 582.1 439.741 584.14C439.741 586.132 439.423 587.998 438.787 589.738C438.163 591.478 437.263 592.912 436.087 594.04H433.963Z" fill="white"/>
<rect x="180.549" y="751.408" width="157.98" height="83.5039" rx="41.752" fill="#00D563"/>
<path d="M251.402 801.222H243.85L242.73 804.646H235.274L243.562 781.99H251.754L260.01 804.646H252.522L251.402 801.222ZM249.674 795.878L247.626 789.574L245.578 795.878H249.674ZM271.064 781.99C273.432 781.99 275.501 782.47 277.272 783.43C279.064 784.39 280.44 785.723 281.4 787.43C282.36 789.136 282.84 791.078 282.84 793.254C282.84 795.408 282.36 797.35 281.4 799.078C280.44 800.806 279.064 802.171 277.272 803.174C275.501 804.155 273.432 804.646 271.064 804.646H261.624V781.99H271.064ZM270.424 798.31C272.024 798.31 273.293 797.872 274.232 796.998C275.17 796.123 275.64 794.875 275.64 793.254C275.64 791.632 275.17 790.384 274.232 789.51C273.293 788.635 272.024 788.198 270.424 788.198H268.728V798.31H270.424Z" fill="white"/>
<rect x="731.563" y="751.408" width="157.98" height="83.5039" rx="41.752" fill="#00D563"/>
<path d="M802.415 801.222H794.863L793.743 804.646H786.287L794.575 781.99H802.767L811.023 804.646H803.535L802.415 801.222ZM800.687 795.878L798.639 789.574L796.591 795.878H800.687ZM822.077 781.99C824.445 781.99 826.515 782.47 828.285 783.43C830.077 784.39 831.453 785.723 832.413 787.43C833.373 789.136 833.853 791.078 833.853 793.254C833.853 795.408 833.373 797.35 832.413 799.078C831.453 800.806 830.077 802.171 828.285 803.174C826.515 804.155 824.445 804.646 822.077 804.646H812.637V781.99H822.077ZM821.437 798.31C823.037 798.31 824.307 797.872 825.245 796.998C826.184 796.123 826.653 794.875 826.653 793.254C826.653 791.632 826.184 790.384 825.245 789.51C824.307 788.635 823.037 788.198 821.437 788.198H819.741V798.31H821.437Z" fill="white"/>
<rect x="442.345" y="751.408" width="157.98" height="83.5039" rx="41.752" fill="#00D563"/>
<rect x="993.359" y="751.408" width="157.98" height="83.5039" rx="41.752" fill="#00D563"/>
<rect x="731.224" y="496.382" width="419.776" height="108.329" rx="54.1647" fill="#00D563"/>
<path d="M391.937 608.712C391.937 607.883 391.266 607.212 390.437 607.212C389.609 607.212 388.937 607.883 388.937 608.712H391.937ZM258.479 748.468C259.064 749.054 260.014 749.054 260.6 748.468L270.146 738.922C270.732 738.337 270.732 737.387 270.146 736.801C269.56 736.215 268.61 736.215 268.024 736.801L259.539 745.286L251.054 736.801C250.468 736.215 249.518 736.215 248.933 736.801C248.347 737.387 248.347 738.337 248.933 738.922L258.479 748.468ZM261.039 747.408V744.687H258.039V747.408H261.039ZM261.039 741.059V735.617H258.039V741.059H261.039ZM261.039 731.989V726.548H258.039V731.989H261.039ZM261.039 722.92V717.478H258.039V722.92H261.039ZM261.039 713.85V708.408H258.039V713.85H261.039ZM261.039 704.781V702.06H258.039V704.781H261.039ZM261.039 702.06C261.039 701.163 261.092 700.28 261.193 699.412L258.214 699.062C258.098 700.046 258.039 701.046 258.039 702.06H261.039ZM261.879 695.949C262.363 694.229 263.047 692.592 263.904 691.065L261.287 689.597C260.316 691.328 259.54 693.184 258.991 695.136L261.879 695.949ZM265.868 688.13C266.964 686.742 268.221 685.485 269.61 684.389L267.751 682.034C266.178 683.275 264.755 684.699 263.513 686.272L265.868 688.13ZM272.544 682.424C274.072 681.567 275.708 680.883 277.428 680.399L276.616 677.511C274.664 678.061 272.807 678.836 271.076 679.808L272.544 682.424ZM280.891 679.714C281.759 679.612 282.643 679.56 283.539 679.56V676.56C282.526 676.56 281.526 676.619 280.542 676.734L280.891 679.714ZM283.539 679.56H286.648V676.56H283.539V679.56ZM290.793 679.56H297.01V676.56H290.793V679.56ZM301.155 679.56H307.372V676.56H301.155V679.56ZM311.517 679.56H317.735V676.56H311.517V679.56ZM321.88 679.56H328.097V676.56H321.88V679.56ZM332.242 679.56H338.459V676.56H332.242V679.56ZM342.604 679.56H348.821V676.56H342.604V679.56ZM352.966 679.56H359.184V676.56H352.966V679.56ZM363.329 679.56H366.437V676.56H363.329V679.56ZM366.437 679.56C367.451 679.56 368.451 679.5 369.434 679.385L369.085 676.406C368.217 676.507 367.334 676.56 366.437 676.56V679.56ZM373.361 678.608C375.313 678.059 377.169 677.283 378.9 676.311L377.432 673.695C375.905 674.552 374.268 675.236 372.548 675.72L373.361 678.608ZM382.225 674.086C383.798 672.844 385.221 671.421 386.463 669.848L384.108 667.989C383.012 669.378 381.755 670.634 380.367 671.731L382.225 674.086ZM388.689 666.523C389.661 664.791 390.436 662.935 390.986 660.983L388.098 660.17C387.614 661.891 386.93 663.527 386.073 665.054L388.689 666.523ZM391.763 657.057C391.878 656.073 391.937 655.073 391.937 654.06H388.937C388.937 654.956 388.885 655.84 388.783 656.708L391.763 657.057ZM391.937 654.06V651.339H388.937V654.06H391.937ZM391.937 647.711V642.269H388.937V647.711H391.937ZM391.937 638.641V633.2H388.937V638.641H391.937ZM391.937 629.572V624.13H388.937V629.572H391.937ZM391.937 620.502V615.06H388.937V620.502H391.937ZM391.937 611.433V608.712H388.937V611.433H391.937Z" fill="#CECCCC"/>
<path d="M942.612 608.712C942.612 607.883 941.94 607.212 941.112 607.212C940.283 607.212 939.612 607.883 939.612 608.712H942.612ZM809.492 748.468C810.078 749.054 811.028 749.054 811.614 748.468L821.16 738.922C821.745 738.337 821.745 737.387 821.16 736.801C820.574 736.215 819.624 736.215 819.038 736.801L810.553 745.286L802.068 736.801C801.482 736.215 800.532 736.215 799.946 736.801C799.361 737.387 799.361 738.337 799.946 738.922L809.492 748.468ZM812.053 747.408V744.687H809.053V747.408H812.053ZM812.053 741.059V735.617H809.053V741.059H812.053ZM812.053 731.989V726.548H809.053V731.989H812.053ZM812.053 722.92V717.478H809.053V722.92H812.053ZM812.053 713.85V708.408H809.053V713.85H812.053ZM812.053 704.781V702.06H809.053V704.781H812.053ZM812.053 702.06C812.053 701.163 812.105 700.28 812.207 699.412L809.227 699.062C809.112 700.046 809.053 701.046 809.053 702.06H812.053ZM812.892 695.949C813.377 694.229 814.06 692.592 814.917 691.065L812.301 689.597C811.33 691.328 810.554 693.184 810.005 695.136L812.892 695.949ZM816.882 688.13C817.978 686.742 819.235 685.485 820.624 684.389L818.765 682.034C817.192 683.275 815.769 684.699 814.527 686.272L816.882 688.13ZM823.558 682.424C825.085 681.567 826.722 680.883 828.442 680.399L827.629 677.511C825.678 678.061 823.821 678.836 822.09 679.808L823.558 682.424ZM831.905 679.714C832.773 679.612 833.657 679.56 834.553 679.56V676.56C833.54 676.56 832.539 676.619 831.556 676.734L831.905 679.714ZM834.553 679.56H837.649V676.56H834.553V679.56ZM841.777 679.56H847.969V676.56H841.777V679.56ZM852.097 679.56H858.289V676.56H852.097V679.56ZM862.417 679.56H868.609V676.56H862.417V679.56ZM872.736 679.56H878.928V676.56H872.736V679.56ZM883.056 679.56H889.248V676.56H883.056V679.56ZM893.376 679.56H899.568V676.56H893.376V679.56ZM903.696 679.56H909.888V676.56H903.696V679.56ZM914.016 679.56H917.112V676.56H914.016V679.56ZM917.112 679.56C918.125 679.56 919.125 679.5 920.109 679.385L919.76 676.406C918.892 676.507 918.008 676.56 917.112 676.56V679.56ZM924.036 678.608C925.987 678.059 927.844 677.283 929.575 676.311L928.107 673.695C926.58 674.552 924.943 675.236 923.223 675.72L924.036 678.608ZM932.9 674.086C934.473 672.844 935.896 671.421 937.138 669.848L934.783 667.989C933.687 669.378 932.43 670.634 931.041 671.731L932.9 674.086ZM939.364 666.523C940.335 664.791 941.111 662.935 941.66 660.983L938.773 660.17C938.288 661.891 937.605 663.527 936.747 665.054L939.364 666.523ZM942.437 657.057C942.553 656.073 942.612 655.073 942.612 654.06H939.612C939.612 654.956 939.559 655.84 939.458 656.708L942.437 657.057ZM942.612 654.06V651.339H939.612V654.06H942.612ZM942.612 647.711V642.269H939.612V647.711H942.612ZM942.612 638.641V633.2H939.612V638.641H942.612ZM942.612 629.572V624.13H939.612V629.572H942.612ZM942.612 620.502V615.06H939.612V620.502H942.612ZM942.612 611.433V608.712H939.612V611.433H942.612Z" fill="#CECCCC"/>
<path d="M391.937 608.712C391.937 607.883 391.266 607.212 390.437 607.212C389.609 607.212 388.937 607.883 388.937 608.712H391.937ZM520.275 748.468C520.86 749.054 521.81 749.054 522.396 748.468L531.942 738.922C532.528 738.337 532.528 737.387 531.942 736.801C531.356 736.215 530.406 736.215 529.821 736.801L521.335 745.286L512.85 736.801C512.264 736.215 511.314 736.215 510.729 736.801C510.143 737.387 510.143 738.337 510.729 738.922L520.275 748.468ZM388.937 608.712V611.433H391.937V608.712H388.937ZM388.937 615.06V620.502H391.937V615.06H388.937ZM388.937 624.13V629.572H391.937V624.13H388.937ZM388.937 633.2V638.641H391.937V633.2H388.937ZM388.937 642.269V647.711H391.937V642.269H388.937ZM388.937 651.339V654.06H391.937V651.339H388.937ZM388.937 654.06C388.937 655.073 388.996 656.073 389.112 657.057L392.091 656.708C391.99 655.84 391.937 654.956 391.937 654.06H388.937ZM389.889 660.983C390.438 662.935 391.214 664.791 392.185 666.523L394.802 665.054C393.945 663.527 393.261 661.891 392.777 660.17L389.889 660.983ZM394.411 669.848C395.653 671.421 397.076 672.844 398.649 674.086L400.508 671.731C399.119 670.634 397.863 669.378 396.766 667.989L394.411 669.848ZM401.974 676.311C403.705 677.283 405.562 678.059 407.514 678.608L408.327 675.72C406.606 675.236 404.97 674.552 403.443 673.695L401.974 676.311ZM411.44 679.385C412.424 679.5 413.424 679.56 414.437 679.56V676.56C413.541 676.56 412.657 676.507 411.789 676.406L411.44 679.385ZM414.437 679.56H417.546V676.56H414.437V679.56ZM421.691 679.56H427.908V676.56H421.691V679.56ZM432.053 679.56H438.27V676.56H432.053V679.56ZM442.415 679.56H448.633V676.56H442.415V679.56ZM452.778 679.56H458.995V676.56H452.778V679.56ZM463.14 679.56H469.357V676.56H463.14V679.56ZM473.502 679.56H479.719V676.56H473.502V679.56ZM483.864 679.56H490.082V676.56H483.864V679.56ZM494.227 679.56H497.335V676.56H494.227V679.56ZM497.335 679.56C498.232 679.56 499.115 679.612 499.983 679.714L500.332 676.734C499.349 676.619 498.349 676.56 497.335 676.56V679.56ZM503.446 680.399C505.166 680.883 506.803 681.567 508.33 682.424L509.798 679.808C508.067 678.836 506.211 678.061 504.259 677.511L503.446 680.399ZM511.265 684.389C512.653 685.485 513.91 686.742 515.006 688.13L517.361 686.272C516.119 684.699 514.696 683.275 513.123 682.034L511.265 684.389ZM516.971 691.065C517.828 692.592 518.512 694.229 518.996 695.949L521.884 695.136C521.334 693.184 520.559 691.328 519.587 689.597L516.971 691.065ZM519.681 699.412C519.783 700.28 519.835 701.163 519.835 702.06H522.835C522.835 701.046 522.776 700.046 522.661 699.062L519.681 699.412ZM519.835 702.06V704.781H522.835V702.06H519.835ZM519.835 708.408V713.85H522.835V708.408H519.835ZM519.835 717.478V722.92H522.835V717.478H519.835ZM519.835 726.548V731.989H522.835V726.548H519.835ZM519.835 735.617V741.059H522.835V735.617H519.835ZM519.835 744.687V747.408H522.835V744.687H519.835Z" fill="#CECCCC"/>
<path d="M942.612 608.712C942.612 607.883 941.94 607.212 941.112 607.212C940.283 607.212 939.612 607.883 939.612 608.712H942.612ZM1071.29 748.468C1071.87 749.054 1072.82 749.054 1073.41 748.468L1082.96 738.922C1083.54 738.337 1083.54 737.387 1082.96 736.801C1082.37 736.215 1081.42 736.215 1080.83 736.801L1072.35 745.286L1063.86 736.801C1063.28 736.215 1062.33 736.215 1061.74 736.801C1061.16 737.387 1061.16 738.337 1061.74 738.922L1071.29 748.468ZM939.612 608.712V611.433H942.612V608.712H939.612ZM939.612 615.06V620.502H942.612V615.06H939.612ZM939.612 624.13V629.572H942.612V624.13H939.612ZM939.612 633.2V638.641H942.612V633.2H939.612ZM939.612 642.269V647.711H942.612V642.269H939.612ZM939.612 651.339V654.06H942.612V651.339H939.612ZM939.612 654.06C939.612 655.073 939.671 656.073 939.786 657.057L942.766 656.708C942.664 655.84 942.612 654.956 942.612 654.06H939.612ZM940.563 660.983C941.113 662.935 941.888 664.791 942.86 666.523L945.476 665.054C944.619 663.527 943.935 661.891 943.451 660.17L940.563 660.983ZM945.086 669.848C946.328 671.421 947.751 672.844 949.324 674.086L951.183 671.731C949.794 670.634 948.537 669.378 947.441 667.989L945.086 669.848ZM952.649 676.311C954.38 677.283 956.236 678.059 958.188 678.608L959.001 675.72C957.281 675.236 955.644 674.552 954.117 673.695L952.649 676.311ZM962.115 679.385C963.098 679.5 964.098 679.56 965.112 679.56V676.56C964.215 676.56 963.332 676.507 962.464 676.406L962.115 679.385ZM965.112 679.56H968.233V676.56H965.112V679.56ZM972.395 679.56H978.638V676.56H972.395V679.56ZM982.8 679.56H989.042V676.56H982.8V679.56ZM993.204 679.56H999.447V676.56H993.204V679.56ZM1003.61 679.56H1009.85V676.56H1003.61V679.56ZM1014.01 679.56H1020.26V676.56H1014.01V679.56ZM1024.42 679.56H1030.66V676.56H1024.42V679.56ZM1034.82 679.56H1041.07V676.56H1034.82V679.56ZM1045.23 679.56H1048.35V676.56H1045.23V679.56ZM1048.35 679.56C1049.25 679.56 1050.13 679.612 1051 679.714L1051.35 676.734C1050.36 676.619 1049.36 676.56 1048.35 676.56V679.56ZM1054.46 680.399C1056.18 680.883 1057.82 681.567 1059.34 682.424L1060.81 679.808C1059.08 678.836 1057.22 678.061 1055.27 677.511L1054.46 680.399ZM1062.28 684.389C1063.67 685.485 1064.92 686.742 1066.02 688.13L1068.37 686.272C1067.13 684.699 1065.71 683.275 1064.14 682.034L1062.28 684.389ZM1067.98 691.065C1068.84 692.592 1069.53 694.229 1070.01 695.949L1072.9 695.136C1072.35 693.184 1071.57 691.328 1070.6 689.597L1067.98 691.065ZM1070.69 699.412C1070.8 700.28 1070.85 701.163 1070.85 702.06H1073.85C1073.85 701.046 1073.79 700.046 1073.67 699.062L1070.69 699.412ZM1070.85 702.06V704.781H1073.85V702.06H1070.85ZM1070.85 708.408V713.85H1073.85V708.408H1070.85ZM1070.85 717.478V722.92H1073.85V717.478H1070.85ZM1070.85 726.548V731.989H1073.85V726.548H1070.85ZM1070.85 735.617V741.059H1073.85V735.617H1070.85ZM1070.85 744.687V747.408H1073.85V744.687H1070.85Z" fill="#CECCCC"/>
<path d="M667.081 354C667.081 353.172 666.409 352.5 665.581 352.5C664.752 352.5 664.081 353.172 664.081 354H667.081ZM389.377 493.443C389.962 494.029 390.912 494.029 391.498 493.443L401.044 483.897C401.63 483.311 401.63 482.362 401.044 481.776C400.458 481.19 399.508 481.19 398.923 481.776L390.437 490.261L381.952 481.776C381.366 481.19 380.416 481.19 379.831 481.776C379.245 482.362 379.245 483.311 379.831 483.897L389.377 493.443ZM664.081 354V399.191H667.081V354H664.081ZM641.581 421.691H414.437V424.691H641.581V421.691ZM388.937 447.191V492.382H391.937V447.191H388.937ZM414.437 421.691C400.354 421.691 388.937 433.108 388.937 447.191H391.937C391.937 434.765 402.011 424.691 414.437 424.691V421.691ZM664.081 399.191C664.081 411.618 654.007 421.691 641.581 421.691V424.691C655.664 424.691 667.081 413.274 667.081 399.191H664.081Z" fill="#4ECB71"/>
<path d="M667.081 354C667.081 353.172 666.409 352.5 665.581 352.5C664.752 352.5 664.081 353.172 664.081 354H667.081ZM940.051 493.443C940.637 494.029 941.587 494.029 942.172 493.443L951.718 483.897C952.304 483.311 952.304 482.362 951.718 481.776C951.133 481.19 950.183 481.19 949.597 481.776L941.112 490.261L932.627 481.776C932.041 481.19 931.091 481.19 930.505 481.776C929.919 482.362 929.919 483.311 930.505 483.897L940.051 493.443ZM664.081 354V399.191H667.081V354H664.081ZM689.581 424.691H917.112V421.691H689.581V424.691ZM939.612 447.191V492.382H942.612V447.191H939.612ZM917.112 424.691C929.538 424.691 939.612 434.765 939.612 447.191H942.612C942.612 433.108 931.195 421.691 917.112 421.691V424.691ZM664.081 399.191C664.081 413.274 675.497 424.691 689.581 424.691V421.691C677.154 421.691 667.081 411.618 667.081 399.191H664.081Z" fill="#4ECB71"/>
<rect x="460.4" y="392.567" width="153.467" height="63.1922" rx="31.5961" fill="#F2F2F2"/>
<circle cx="480.4" cy="424.163" r="10" fill="#00D563"/>
<path d="M518.913 414.313V417.103H513.363V435.163H509.943V417.103H504.363V414.313H518.913ZM537.527 426.493C537.527 427.113 537.487 427.673 537.407 428.173H524.777C524.877 429.493 525.367 430.553 526.247 431.353C527.127 432.153 528.207 432.553 529.487 432.553C531.327 432.553 532.627 431.783 533.387 430.243H537.077C536.577 431.763 535.667 433.013 534.347 433.993C533.047 434.953 531.427 435.433 529.487 435.433C527.907 435.433 526.487 435.083 525.227 434.383C523.987 433.663 523.007 432.663 522.287 431.383C521.587 430.083 521.237 428.583 521.237 426.883C521.237 425.183 521.577 423.693 522.257 422.413C522.957 421.113 523.927 420.113 525.167 419.413C526.427 418.713 527.867 418.363 529.487 418.363C531.047 418.363 532.437 418.703 533.657 419.383C534.877 420.063 535.827 421.023 536.507 422.263C537.187 423.483 537.527 424.893 537.527 426.493ZM533.957 425.413C533.937 424.153 533.487 423.143 532.607 422.383C531.727 421.623 530.637 421.243 529.337 421.243C528.157 421.243 527.147 421.623 526.307 422.383C525.467 423.123 524.967 424.133 524.807 425.413H533.957ZM546.892 435.433C545.592 435.433 544.422 435.203 543.382 434.743C542.362 434.263 541.552 433.623 540.952 432.823C540.352 432.003 540.032 431.093 539.992 430.093H543.532C543.592 430.793 543.922 431.383 544.522 431.863C545.142 432.323 545.912 432.553 546.832 432.553C547.792 432.553 548.532 432.373 549.052 432.013C549.592 431.633 549.862 431.153 549.862 430.573C549.862 429.953 549.562 429.493 548.962 429.193C548.382 428.893 547.452 428.563 546.172 428.203C544.932 427.863 543.922 427.533 543.142 427.213C542.362 426.893 541.682 426.403 541.102 425.743C540.542 425.083 540.262 424.213 540.262 423.133C540.262 422.253 540.522 421.453 541.042 420.733C541.562 419.993 542.302 419.413 543.262 418.993C544.242 418.573 545.362 418.363 546.622 418.363C548.502 418.363 550.012 418.843 551.152 419.803C552.312 420.743 552.932 422.033 553.012 423.673H549.592C549.532 422.933 549.232 422.343 548.692 421.903C548.152 421.463 547.422 421.243 546.502 421.243C545.602 421.243 544.912 421.413 544.432 421.753C543.952 422.093 543.712 422.543 543.712 423.103C543.712 423.543 543.872 423.913 544.192 424.213C544.512 424.513 544.902 424.753 545.362 424.933C545.822 425.093 546.502 425.303 547.402 425.563C548.602 425.883 549.582 426.213 550.342 426.553C551.122 426.873 551.792 427.353 552.352 427.993C552.912 428.633 553.202 429.483 553.222 430.543C553.222 431.483 552.962 432.323 552.442 433.063C551.922 433.803 551.182 434.383 550.222 434.803C549.282 435.223 548.172 435.433 546.892 435.433ZM560.908 421.423V430.573C560.908 431.193 561.048 431.643 561.328 431.923C561.628 432.183 562.128 432.313 562.828 432.313H564.928V435.163H562.228C560.688 435.163 559.508 434.803 558.688 434.083C557.868 433.363 557.458 432.193 557.458 430.573V421.423H555.508V418.633H557.458V414.523H560.908V418.633H564.928V421.423H560.908ZM574.973 416.413V413.293H581.213V435.163H577.763V416.413H574.973Z" fill="black" fill-opacity="0.8"/>
<rect x="731" y="392.567" width="153.467" height="63.1922" rx="31.5961" fill="#F2F2F2"/>
<circle cx="751" cy="424.163" r="10" fill="#00D563"/>
<path d="M789.513 414.313V417.103H783.963V435.163H780.543V417.103H774.963V414.313H789.513ZM808.127 426.493C808.127 427.113 808.087 427.673 808.007 428.173H795.377C795.477 429.493 795.967 430.553 796.847 431.353C797.727 432.153 798.807 432.553 800.087 432.553C801.927 432.553 803.227 431.783 803.987 430.243H807.677C807.177 431.763 806.267 433.013 804.947 433.993C803.647 434.953 802.027 435.433 800.087 435.433C798.507 435.433 797.087 435.083 795.827 434.383C794.587 433.663 793.607 432.663 792.887 431.383C792.187 430.083 791.837 428.583 791.837 426.883C791.837 425.183 792.177 423.693 792.857 422.413C793.557 421.113 794.527 420.113 795.767 419.413C797.027 418.713 798.467 418.363 800.087 418.363C801.647 418.363 803.037 418.703 804.257 419.383C805.477 420.063 806.427 421.023 807.107 422.263C807.787 423.483 808.127 424.893 808.127 426.493ZM804.557 425.413C804.537 424.153 804.087 423.143 803.207 422.383C802.327 421.623 801.237 421.243 799.937 421.243C798.757 421.243 797.747 421.623 796.907 422.383C796.067 423.123 795.567 424.133 795.407 425.413H804.557ZM817.492 435.433C816.192 435.433 815.022 435.203 813.982 434.743C812.962 434.263 812.152 433.623 811.552 432.823C810.952 432.003 810.632 431.093 810.592 430.093H814.132C814.192 430.793 814.522 431.383 815.122 431.863C815.742 432.323 816.512 432.553 817.432 432.553C818.392 432.553 819.132 432.373 819.652 432.013C820.192 431.633 820.462 431.153 820.462 430.573C820.462 429.953 820.162 429.493 819.562 429.193C818.982 428.893 818.052 428.563 816.772 428.203C815.532 427.863 814.522 427.533 813.742 427.213C812.962 426.893 812.282 426.403 811.702 425.743C811.142 425.083 810.862 424.213 810.862 423.133C810.862 422.253 811.122 421.453 811.642 420.733C812.162 419.993 812.902 419.413 813.862 418.993C814.842 418.573 815.962 418.363 817.222 418.363C819.102 418.363 820.612 418.843 821.752 419.803C822.912 420.743 823.532 422.033 823.612 423.673H820.192C820.132 422.933 819.832 422.343 819.292 421.903C818.752 421.463 818.022 421.243 817.102 421.243C816.202 421.243 815.512 421.413 815.032 421.753C814.552 422.093 814.312 422.543 814.312 423.103C814.312 423.543 814.472 423.913 814.792 424.213C815.112 424.513 815.502 424.753 815.962 424.933C816.422 425.093 817.102 425.303 818.002 425.563C819.202 425.883 820.182 426.213 820.942 426.553C821.722 426.873 822.392 427.353 822.952 427.993C823.512 428.633 823.802 429.483 823.822 430.543C823.822 431.483 823.562 432.323 823.042 433.063C822.522 433.803 821.782 434.383 820.822 434.803C819.882 435.223 818.772 435.433 817.492 435.433ZM831.508 421.423V430.573C831.508 431.193 831.648 431.643 831.928 431.923C832.228 432.183 832.728 432.313 833.428 432.313H835.528V435.163H832.828C831.288 435.163 830.108 434.803 829.288 434.083C828.468 433.363 828.058 432.193 828.058 430.573V421.423H826.108V418.633H828.058V414.523H831.508V418.633H835.528V421.423H831.508ZM847.913 430.513C849.833 428.853 851.343 427.493 852.443 426.433C853.563 425.353 854.493 424.233 855.233 423.073C855.973 421.913 856.343 420.753 856.343 419.593C856.343 418.393 856.053 417.453 855.473 416.773C854.913 416.093 854.023 415.753 852.803 415.753C851.623 415.753 850.703 416.133 850.043 416.893C849.403 417.633 849.063 418.633 849.023 419.893H845.723C845.783 417.613 846.463 415.873 847.763 414.673C849.083 413.453 850.753 412.843 852.773 412.843C854.953 412.843 856.653 413.443 857.873 414.643C859.113 415.843 859.733 417.443 859.733 419.443C859.733 420.883 859.363 422.273 858.623 423.613C857.903 424.933 857.033 426.123 856.013 427.183C855.013 428.223 853.733 429.433 852.173 430.813L850.823 432.013H860.333V434.863H845.753V432.373L847.913 430.513Z" fill="black" fill-opacity="0.8"/>
<path d="M134.079 124H91.0395C77.7847 124 67.0396 134.745 67.0396 148V837.434C67.0396 850.689 77.7847 861.434 91.0396 861.434H134.079" stroke="#CECCCC" stroke-width="3" stroke-miterlimit="0" stroke-linecap="round" stroke-linejoin="bevel"/>
<path d="M903.473 533.79H896.393L895.343 537H888.353L896.123 515.76H903.803L911.543 537H904.523L903.473 533.79ZM901.853 528.78L899.933 522.87L898.013 528.78H901.853ZM921.906 515.76C924.126 515.76 926.066 516.21 927.726 517.11C929.406 518.01 930.696 519.26 931.596 520.86C932.496 522.46 932.946 524.28 932.946 526.32C932.946 528.34 932.496 530.16 931.596 531.78C930.696 533.4 929.406 534.68 927.726 535.62C926.066 536.54 924.126 537 921.906 537H913.056V515.76H921.906ZM921.306 531.06C922.806 531.06 923.996 530.65 924.876 529.83C925.756 529.01 926.196 527.84 926.196 526.32C926.196 524.8 925.756 523.63 924.876 522.81C923.996 521.99 922.806 521.58 921.306 521.58H919.716V531.06H921.306ZM948.759 537.21C946.219 537.21 944.119 536.62 942.459 535.44C940.819 534.24 939.929 532.49 939.789 530.19H946.869C946.969 531.41 947.509 532.02 948.489 532.02C948.849 532.02 949.149 531.94 949.389 531.78C949.649 531.6 949.779 531.33 949.779 530.97C949.779 530.47 949.509 530.07 948.969 529.77C948.429 529.45 947.589 529.09 946.449 528.69C945.089 528.21 943.959 527.74 943.059 527.28C942.179 526.82 941.419 526.15 940.779 525.27C940.139 524.39 939.829 523.26 939.849 521.88C939.849 520.5 940.199 519.33 940.899 518.37C941.619 517.39 942.589 516.65 943.809 516.15C945.049 515.65 946.439 515.4 947.979 515.4C950.579 515.4 952.639 516 954.159 517.2C955.699 518.4 956.509 520.09 956.589 522.27H949.419C949.399 521.67 949.249 521.24 948.969 520.98C948.689 520.72 948.349 520.59 947.949 520.59C947.669 520.59 947.439 520.69 947.259 520.89C947.079 521.07 946.989 521.33 946.989 521.67C946.989 522.15 947.249 522.55 947.769 522.87C948.309 523.17 949.159 523.54 950.319 523.98C951.659 524.48 952.759 524.96 953.619 525.42C954.499 525.88 955.259 526.52 955.899 527.34C956.539 528.16 956.859 529.19 956.859 530.43C956.859 531.73 956.539 532.9 955.899 533.94C955.259 534.96 954.329 535.76 953.109 536.34C951.889 536.92 950.439 537.21 948.759 537.21ZM965.859 521.07V523.68H972.459V528.69H965.859V531.69H973.359V537H959.199V515.76H973.359V521.07H965.859ZM992.549 515.76V521.04H986.909V537H980.249V521.04H974.669V515.76H992.549ZM786.309 567.348C785.133 566.22 784.227 564.786 783.591 563.046C782.967 561.306 782.655 559.44 782.655 557.448C782.655 555.408 782.991 553.482 783.663 551.67C784.347 549.858 785.349 548.364 786.669 547.188H788.793V547.386C787.413 548.658 786.375 550.182 785.679 551.958C784.983 553.734 784.635 555.564 784.635 557.448C784.635 559.26 784.959 561.012 785.607 562.704C786.255 564.396 787.197 565.878 788.433 567.15V567.348H786.309ZM798.175 561.444H792.937L792.037 564H789.895L794.377 551.472H796.753L801.235 564H799.075L798.175 561.444ZM797.599 559.77L795.565 553.956L793.513 559.77H797.599ZM805.217 551.49V559.464C805.217 560.412 805.463 561.126 805.955 561.606C806.459 562.086 807.155 562.326 808.043 562.326C808.943 562.326 809.639 562.086 810.131 561.606C810.635 561.126 810.887 560.412 810.887 559.464V551.49H812.939V559.428C812.939 560.448 812.717 561.312 812.273 562.02C811.829 562.728 811.235 563.256 810.491 563.604C809.747 563.952 808.925 564.126 808.025 564.126C807.125 564.126 806.303 563.952 805.559 563.604C804.827 563.256 804.245 562.728 803.813 562.02C803.381 561.312 803.165 560.448 803.165 559.428V551.49H805.217ZM819.697 551.49C821.029 551.49 822.193 551.748 823.189 552.264C824.197 552.768 824.971 553.5 825.511 554.46C826.063 555.408 826.339 556.518 826.339 557.79C826.339 559.062 826.063 560.166 825.511 561.102C824.971 562.038 824.197 562.758 823.189 563.262C822.193 563.754 821.029 564 819.697 564H815.611V551.49H819.697ZM819.697 562.326C821.161 562.326 822.283 561.93 823.063 561.138C823.843 560.346 824.233 559.23 824.233 557.79C824.233 556.338 823.843 555.204 823.063 554.388C822.283 553.572 821.161 553.164 819.697 553.164H817.663V562.326H819.697ZM830.425 551.49V564H828.373V551.49H830.425ZM835.171 553.146V556.818H839.491V558.492H835.171V562.326H840.031V564H833.119V551.472H840.031V553.146H835.171ZM852.836 564H850.784L844.61 554.658V564H842.558V551.472H844.61L850.784 560.796V551.472H852.836V564ZM854.847 557.718C854.847 556.494 855.129 555.396 855.693 554.424C856.269 553.452 857.043 552.696 858.015 552.156C858.999 551.604 860.073 551.328 861.237 551.328C862.569 551.328 863.751 551.658 864.783 552.318C865.827 552.966 866.583 553.89 867.051 555.09H864.585C864.261 554.43 863.811 553.938 863.235 553.614C862.659 553.29 861.993 553.128 861.237 553.128C860.409 553.128 859.671 553.314 859.023 553.686C858.375 554.058 857.865 554.592 857.493 555.288C857.133 555.984 856.953 556.794 856.953 557.718C856.953 558.642 857.133 559.452 857.493 560.148C857.865 560.844 858.375 561.384 859.023 561.768C859.671 562.14 860.409 562.326 861.237 562.326C861.993 562.326 862.659 562.164 863.235 561.84C863.811 561.516 864.261 561.024 864.585 560.364H867.051C866.583 561.564 865.827 562.488 864.783 563.136C863.751 563.784 862.569 564.108 861.237 564.108C860.061 564.108 858.987 563.838 858.015 563.298C857.043 562.746 856.269 561.984 855.693 561.012C855.129 560.04 854.847 558.942 854.847 557.718ZM871.505 553.146V556.818H875.825V558.492H871.505V562.326H876.365V564H869.453V551.472H876.365V553.146H871.505ZM881.142 561.534L878.964 566.502H877.632L878.91 561.534H881.142ZM896.359 555.216C896.359 555.852 896.209 556.452 895.909 557.016C895.609 557.58 895.129 558.042 894.469 558.402C893.809 558.75 892.963 558.924 891.931 558.924H889.663V564H887.611V551.49H891.931C892.891 551.49 893.701 551.658 894.361 551.994C895.033 552.318 895.531 552.762 895.855 553.326C896.191 553.89 896.359 554.52 896.359 555.216ZM891.931 557.25C892.711 557.25 893.293 557.076 893.677 556.728C894.061 556.368 894.253 555.864 894.253 555.216C894.253 553.848 893.479 553.164 891.931 553.164H889.663V557.25H891.931ZM900.368 562.344H904.598V564H898.316V551.49H900.368V562.344ZM913.856 561.444H908.618L907.718 564H905.576L910.058 551.472H912.434L916.916 564H914.756L913.856 561.444ZM913.28 559.77L911.246 553.956L909.194 559.77H913.28ZM918.181 557.718C918.181 556.494 918.463 555.396 919.027 554.424C919.603 553.452 920.377 552.696 921.349 552.156C922.333 551.604 923.407 551.328 924.571 551.328C925.903 551.328 927.085 551.658 928.117 552.318C929.161 552.966 929.917 553.89 930.385 555.09H927.919C927.595 554.43 927.145 553.938 926.569 553.614C925.993 553.29 925.327 553.128 924.571 553.128C923.743 553.128 923.005 553.314 922.357 553.686C921.709 554.058 921.199 554.592 920.827 555.288C920.467 555.984 920.287 556.794 920.287 557.718C920.287 558.642 920.467 559.452 920.827 560.148C921.199 560.844 921.709 561.384 922.357 561.768C923.005 562.14 923.743 562.326 924.571 562.326C925.327 562.326 925.993 562.164 926.569 561.84C927.145 561.516 927.595 561.024 927.919 560.364H930.385C929.917 561.564 929.161 562.488 928.117 563.136C927.085 563.784 925.903 564.108 924.571 564.108C923.395 564.108 922.321 563.838 921.349 563.298C920.377 562.746 919.603 561.984 919.027 561.012C918.463 560.04 918.181 558.942 918.181 557.718ZM934.839 553.146V556.818H939.159V558.492H934.839V562.326H939.699V564H932.787V551.472H939.699V553.146H934.839ZM955.402 551.49V564H953.35V555.432L949.534 564H948.112L944.278 555.432V564H942.226V551.49H944.44L948.832 561.3L953.206 551.49H955.402ZM960.151 553.146V556.818H964.471V558.492H960.151V562.326H965.011V564H958.099V551.472H965.011V553.146H960.151ZM977.817 564H975.765L969.591 554.658V564H967.539V551.472H969.591L975.765 560.796V551.472H977.817V564ZM988.594 551.49V553.164H985.264V564H983.212V553.164H979.864V551.49H988.594ZM1005.01 564L1003.47 562.452C1002.87 563.052 1002.21 563.502 1001.5 563.802C1000.8 564.09 1000 564.234 999.127 564.234C998.239 564.234 997.453 564.078 996.769 563.766C996.085 563.454 995.557 563.01 995.185 562.434C994.813 561.846 994.627 561.168 994.627 560.4C994.627 559.536 994.873 558.768 995.365 558.096C995.857 557.412 996.589 556.872 997.561 556.476C997.213 556.056 996.967 555.666 996.823 555.306C996.679 554.934 996.607 554.526 996.607 554.082C996.607 553.53 996.745 553.038 997.021 552.606C997.309 552.174 997.717 551.832 998.245 551.58C998.773 551.328 999.385 551.202 1000.08 551.202C1000.79 551.202 1001.39 551.34 1001.88 551.616C1002.39 551.88 1002.76 552.246 1003 552.714C1003.25 553.182 1003.35 553.704 1003.3 554.28H1001.25C1001.26 553.836 1001.16 553.494 1000.93 553.254C1000.7 553.002 1000.39 552.876 999.991 552.876C999.595 552.876 999.271 552.996 999.019 553.236C998.779 553.464 998.659 553.746 998.659 554.082C998.659 554.406 998.749 554.73 998.929 555.054C999.121 555.366 999.451 555.774 999.919 556.278L1003.23 559.572L1004.51 557.466H1006.72L1005.1 560.238L1004.65 560.976L1007.7 564H1005.01ZM999.127 562.488C1000.26 562.488 1001.25 562.026 1002.12 561.102L998.803 557.772C997.387 558.336 996.679 559.188 996.679 560.328C996.679 560.94 996.907 561.456 997.363 561.876C997.819 562.284 998.407 562.488 999.127 562.488ZM1020.41 557.574C1021.08 557.694 1021.65 558.048 1022.12 558.636C1022.59 559.224 1022.82 559.89 1022.82 560.634C1022.82 561.27 1022.66 561.846 1022.32 562.362C1022 562.866 1021.52 563.268 1020.9 563.568C1020.27 563.856 1019.55 564 1018.72 564H1013.72V551.49H1018.49C1019.34 551.49 1020.07 551.634 1020.68 551.922C1021.29 552.21 1021.76 552.6 1022.07 553.092C1022.38 553.572 1022.54 554.112 1022.54 554.712C1022.54 555.432 1022.34 556.032 1021.96 556.512C1021.58 556.992 1021.06 557.346 1020.41 557.574ZM1015.77 556.746H1018.31C1018.98 556.746 1019.5 556.596 1019.87 556.296C1020.26 555.984 1020.45 555.54 1020.45 554.964C1020.45 554.4 1020.26 553.962 1019.87 553.65C1019.5 553.326 1018.98 553.164 1018.31 553.164H1015.77V556.746ZM1018.54 562.326C1019.24 562.326 1019.78 562.158 1020.18 561.822C1020.57 561.486 1020.77 561.018 1020.77 560.418C1020.77 559.806 1020.56 559.32 1020.14 558.96C1019.72 558.6 1019.16 558.42 1018.47 558.42H1015.77V562.326H1018.54ZM1027.09 551.49V559.464C1027.09 560.412 1027.33 561.126 1027.83 561.606C1028.33 562.086 1029.03 562.326 1029.91 562.326C1030.81 562.326 1031.51 562.086 1032 561.606C1032.51 561.126 1032.76 560.412 1032.76 559.464V551.49H1034.81V559.428C1034.81 560.448 1034.59 561.312 1034.14 562.02C1033.7 562.728 1033.11 563.256 1032.36 563.604C1031.62 563.952 1030.8 564.126 1029.9 564.126C1029 564.126 1028.17 563.952 1027.43 563.604C1026.7 563.256 1026.12 562.728 1025.68 562.02C1025.25 561.312 1025.04 560.448 1025.04 559.428V551.49H1027.09ZM1041.57 551.49C1042.9 551.49 1044.06 551.748 1045.06 552.264C1046.07 552.768 1046.84 553.5 1047.38 554.46C1047.93 555.408 1048.21 556.518 1048.21 557.79C1048.21 559.062 1047.93 560.166 1047.38 561.102C1046.84 562.038 1046.07 562.758 1045.06 563.262C1044.06 563.754 1042.9 564 1041.57 564H1037.48V551.49H1041.57ZM1041.57 562.326C1043.03 562.326 1044.15 561.93 1044.93 561.138C1045.71 560.346 1046.1 559.23 1046.1 557.79C1046.1 556.338 1045.71 555.204 1044.93 554.388C1044.15 553.572 1043.03 553.164 1041.57 553.164H1039.53V562.326H1041.57ZM1059.3 555.09C1058.97 554.466 1058.52 553.998 1057.95 553.686C1057.37 553.362 1056.71 553.2 1055.95 553.2C1055.12 553.2 1054.38 553.386 1053.74 553.758C1053.09 554.13 1052.58 554.658 1052.21 555.342C1051.85 556.026 1051.67 556.818 1051.67 557.718C1051.67 558.618 1051.85 559.416 1052.21 560.112C1052.58 560.796 1053.09 561.324 1053.74 561.696C1054.38 562.068 1055.12 562.254 1055.95 562.254C1057.07 562.254 1057.97 561.942 1058.67 561.318C1059.36 560.694 1059.79 559.848 1059.95 558.78H1055.25V557.142H1062.14V558.744C1062.01 559.716 1061.66 560.61 1061.1 561.426C1060.55 562.242 1059.82 562.896 1058.92 563.388C1058.03 563.868 1057.04 564.108 1055.95 564.108C1054.77 564.108 1053.7 563.838 1052.73 563.298C1051.76 562.746 1050.98 561.984 1050.41 561.012C1049.84 560.04 1049.56 558.942 1049.56 557.718C1049.56 556.494 1049.84 555.396 1050.41 554.424C1050.98 553.452 1051.76 552.696 1052.73 552.156C1053.71 551.604 1054.79 551.328 1055.95 551.328C1057.28 551.328 1058.46 551.658 1059.5 552.318C1060.54 552.966 1061.3 553.89 1061.76 555.09H1059.3ZM1066.22 553.146V556.818H1070.54V558.492H1066.22V562.326H1071.08V564H1064.17V551.472H1071.08V553.146H1066.22ZM1081.69 551.49V553.164H1078.36V564H1076.31V553.164H1072.96V551.49H1081.69ZM1098.11 564L1096.56 562.452C1095.96 563.052 1095.31 563.502 1094.6 563.802C1093.89 564.09 1093.1 564.234 1092.22 564.234C1091.33 564.234 1090.55 564.078 1089.86 563.766C1089.18 563.454 1088.65 563.01 1088.28 562.434C1087.91 561.846 1087.72 561.168 1087.72 560.4C1087.72 559.536 1087.97 558.768 1088.46 558.096C1088.95 557.412 1089.68 556.872 1090.66 556.476C1090.31 556.056 1090.06 555.666 1089.92 555.306C1089.77 554.934 1089.7 554.526 1089.7 554.082C1089.7 553.53 1089.84 553.038 1090.12 552.606C1090.4 552.174 1090.81 551.832 1091.34 551.58C1091.87 551.328 1092.48 551.202 1093.18 551.202C1093.88 551.202 1094.48 551.34 1094.98 551.616C1095.48 551.88 1095.85 552.246 1096.09 552.714C1096.34 553.182 1096.45 553.704 1096.4 554.28H1094.35C1094.36 553.836 1094.25 553.494 1094.02 553.254C1093.79 553.002 1093.48 552.876 1093.09 552.876C1092.69 552.876 1092.37 552.996 1092.11 553.236C1091.87 553.464 1091.75 553.746 1091.75 554.082C1091.75 554.406 1091.84 554.73 1092.02 555.054C1092.22 555.366 1092.55 555.774 1093.01 556.278L1096.33 559.572L1097.6 557.466H1099.82L1098.2 560.238L1097.75 560.976L1100.79 564H1098.11ZM1092.22 562.488C1093.35 562.488 1094.35 562.026 1095.21 561.102L1091.9 557.772C1090.48 558.336 1089.77 559.188 1089.77 560.328C1089.77 560.94 1090 561.456 1090.46 561.876C1090.91 562.284 1091.5 562.488 1092.22 562.488ZM894.537 591.126C893.697 591.126 892.941 590.982 892.269 590.694C891.597 590.394 891.069 589.974 890.685 589.434C890.301 588.894 890.109 588.264 890.109 587.544H892.305C892.353 588.084 892.563 588.528 892.935 588.876C893.319 589.224 893.853 589.398 894.537 589.398C895.245 589.398 895.797 589.23 896.193 588.894C896.589 588.546 896.787 588.102 896.787 587.562C896.787 587.142 896.661 586.8 896.409 586.536C896.169 586.272 895.863 586.068 895.491 585.924C895.131 585.78 894.627 585.624 893.979 585.456C893.163 585.24 892.497 585.024 891.981 584.808C891.477 584.58 891.045 584.232 890.685 583.764C890.325 583.296 890.145 582.672 890.145 581.892C890.145 581.172 890.325 580.542 890.685 580.002C891.045 579.462 891.549 579.048 892.197 578.76C892.845 578.472 893.595 578.328 894.447 578.328C895.659 578.328 896.649 578.634 897.417 579.246C898.197 579.846 898.629 580.674 898.713 581.73H896.445C896.409 581.274 896.193 580.884 895.797 580.56C895.401 580.236 894.879 580.074 894.231 580.074C893.643 580.074 893.163 580.224 892.791 580.524C892.419 580.824 892.233 581.256 892.233 581.82C892.233 582.204 892.347 582.522 892.575 582.774C892.815 583.014 893.115 583.206 893.475 583.35C893.835 583.494 894.327 583.65 894.951 583.818C895.779 584.046 896.451 584.274 896.967 584.502C897.495 584.73 897.939 585.084 898.299 585.564C898.671 586.032 898.857 586.662 898.857 587.454C898.857 588.09 898.683 588.69 898.335 589.254C897.999 589.818 897.501 590.274 896.841 590.622C896.193 590.958 895.425 591.126 894.537 591.126ZM900.594 584.718C900.594 583.494 900.876 582.396 901.44 581.424C902.016 580.452 902.79 579.696 903.762 579.156C904.746 578.604 905.82 578.328 906.984 578.328C908.316 578.328 909.498 578.658 910.53 579.318C911.574 579.966 912.33 580.89 912.798 582.09H910.332C910.008 581.43 909.558 580.938 908.982 580.614C908.406 580.29 907.74 580.128 906.984 580.128C906.156 580.128 905.418 580.314 904.77 580.686C904.122 581.058 903.612 581.592 903.24 582.288C902.88 582.984 902.7 583.794 902.7 584.718C902.7 585.642 902.88 586.452 903.24 587.148C903.612 587.844 904.122 588.384 904.77 588.768C905.418 589.14 906.156 589.326 906.984 589.326C907.74 589.326 908.406 589.164 908.982 588.84C909.558 588.516 910.008 588.024 910.332 587.364H912.798C912.33 588.564 911.574 589.488 910.53 590.136C909.498 590.784 908.316 591.108 906.984 591.108C905.808 591.108 904.734 590.838 903.762 590.298C902.79 589.746 902.016 588.984 901.44 588.012C900.876 587.04 900.594 585.942 900.594 584.718ZM925.19 578.49V591H923.138V585.528H917.252V591H915.2V578.49H917.252V583.854H923.138V578.49H925.19ZM929.943 580.146V583.818H934.263V585.492H929.943V589.326H934.803V591H927.891V578.472H934.803V580.146H929.943ZM941.417 578.49C942.749 578.49 943.913 578.748 944.909 579.264C945.917 579.768 946.691 580.5 947.231 581.46C947.783 582.408 948.059 583.518 948.059 584.79C948.059 586.062 947.783 587.166 947.231 588.102C946.691 589.038 945.917 589.758 944.909 590.262C943.913 590.754 942.749 591 941.417 591H937.331V578.49H941.417ZM941.417 589.326C942.881 589.326 944.003 588.93 944.783 588.138C945.563 587.346 945.953 586.23 945.953 584.79C945.953 583.338 945.563 582.204 944.783 581.388C944.003 580.572 942.881 580.164 941.417 580.164H939.383V589.326H941.417ZM952.127 578.49V586.464C952.127 587.412 952.373 588.126 952.865 588.606C953.369 589.086 954.065 589.326 954.953 589.326C955.853 589.326 956.549 589.086 957.041 588.606C957.545 588.126 957.797 587.412 957.797 586.464V578.49H959.849V586.428C959.849 587.448 959.627 588.312 959.183 589.02C958.739 589.728 958.145 590.256 957.401 590.604C956.657 590.952 955.835 591.126 954.935 591.126C954.035 591.126 953.213 590.952 952.469 590.604C951.737 590.256 951.155 589.728 950.723 589.02C950.291 588.312 950.075 587.448 950.075 586.428V578.49H952.127ZM964.572 589.344H968.802V591H962.52V578.49H964.572V589.344ZM972.57 580.146V583.818H976.89V585.492H972.57V589.326H977.43V591H970.518V578.472H977.43V580.146H972.57ZM984.13 594.348V594.15C985.366 592.878 986.308 591.396 986.956 589.704C987.604 588.012 987.928 586.26 987.928 584.448C987.928 582.564 987.58 580.734 986.884 578.958C986.188 577.182 985.15 575.658 983.77 574.386V574.188H985.894C987.214 575.364 988.21 576.858 988.882 578.67C989.566 580.482 989.908 582.408 989.908 584.448C989.908 586.44 989.59 588.306 988.954 590.046C988.33 591.786 987.43 593.22 986.254 594.348H984.13Z" fill="white"/>
<path d="M515.606 801.222H508.054L506.934 804.646H499.478L507.766 781.99H515.958L524.214 804.646H516.726L515.606 801.222ZM513.878 795.878L511.83 789.574L509.782 795.878H513.878ZM535.268 781.99C537.636 781.99 539.705 782.47 541.476 783.43C543.268 784.39 544.644 785.723 545.604 787.43C546.564 789.136 547.044 791.078 547.044 793.254C547.044 795.408 546.564 797.35 545.604 799.078C544.644 800.806 543.268 802.171 541.476 803.174C539.705 804.155 537.636 804.646 535.268 804.646H525.828V781.99H535.268ZM534.628 798.31C536.228 798.31 537.497 797.872 538.436 796.998C539.374 796.123 539.844 794.875 539.844 793.254C539.844 791.632 539.374 790.384 538.436 789.51C537.497 788.635 536.228 788.198 534.628 788.198H532.932V798.31H534.628Z" fill="white"/>
<path d="M1066.62 801.222H1059.07L1057.95 804.646H1050.49L1058.78 781.99H1066.97L1075.23 804.646H1067.74L1066.62 801.222ZM1064.89 795.878L1062.84 789.574L1060.8 795.878H1064.89ZM1086.28 781.99C1088.65 781.99 1090.72 782.47 1092.49 783.43C1094.28 784.39 1095.66 785.723 1096.62 787.43C1097.58 789.136 1098.06 791.078 1098.06 793.254C1098.06 795.408 1097.58 797.35 1096.62 799.078C1095.66 800.806 1094.28 802.171 1092.49 803.174C1090.72 804.155 1088.65 804.646 1086.28 804.646H1076.84V781.99H1086.28ZM1085.64 798.31C1087.24 798.31 1088.51 797.872 1089.45 796.998C1090.39 796.123 1090.86 794.875 1090.86 793.254C1090.86 791.632 1090.39 790.384 1089.45 789.51C1088.51 788.635 1087.24 788.198 1085.64 788.198H1083.95V798.31H1085.64Z" fill="white"/>
<path d="M368.222 33.8594H357.646C357.452 32.491 357.058 31.2756 356.462 30.2131C355.867 29.1345 355.102 28.2169 354.168 27.4602C353.235 26.7036 352.156 26.1241 350.932 25.7216C349.725 25.3191 348.413 25.1179 346.996 25.1179C344.437 25.1179 342.207 25.7538 340.307 27.0256C338.408 28.2812 336.935 30.1165 335.888 32.5312C334.842 34.9299 334.319 37.8437 334.319 41.2727C334.319 44.7983 334.842 47.7604 335.888 50.1591C336.951 52.5578 338.432 54.3688 340.332 55.5923C342.231 56.8158 344.429 57.4276 346.924 57.4276C348.325 57.4276 349.62 57.2424 350.812 56.8722C352.019 56.5019 353.09 55.9626 354.023 55.2543C354.957 54.5298 355.73 53.6525 356.342 52.6222C356.969 51.5919 357.404 50.4167 357.646 49.0966L368.222 49.1449C367.949 51.4148 367.264 53.6042 366.17 55.7131C365.091 57.8059 363.634 59.6813 361.799 61.3395C359.98 62.9815 357.807 64.2855 355.279 65.2514C352.768 66.2012 349.926 66.6761 346.755 66.6761C342.344 66.6761 338.4 65.678 334.923 63.6818C331.461 61.6856 328.725 58.7959 326.712 55.0128C324.716 51.2296 323.718 46.6496 323.718 41.2727C323.718 35.8797 324.732 31.2917 326.761 27.5085C328.789 23.7254 331.542 20.8437 335.019 18.8636C338.496 16.8674 342.408 15.8693 346.755 15.8693C349.62 15.8693 352.277 16.2718 354.724 17.0767C357.187 17.8816 359.368 19.0568 361.268 20.6023C363.167 22.1316 364.713 24.0071 365.904 26.2287C367.111 28.4503 367.884 30.9938 368.222 33.8594ZM386.104 66.7003C383.737 66.7003 381.628 66.2898 379.777 65.4688C377.926 64.6316 376.461 63.4001 375.382 61.7741C374.32 60.1321 373.788 58.0876 373.788 55.6406C373.788 53.58 374.167 51.8494 374.923 50.4489C375.68 49.0483 376.71 47.9214 378.014 47.0682C379.318 46.215 380.799 45.571 382.457 45.1364C384.132 44.7017 385.886 44.3958 387.722 44.2188C389.879 43.9934 391.617 43.7841 392.937 43.5909C394.258 43.3816 395.215 43.0758 395.811 42.6733C396.407 42.2708 396.705 41.6752 396.705 40.8864V40.7415C396.705 39.2121 396.222 38.0289 395.256 37.1918C394.306 36.3546 392.954 35.9361 391.199 35.9361C389.348 35.9361 387.874 36.3466 386.78 37.1676C385.685 37.9725 384.961 38.9867 384.607 40.2102L375.092 39.4375C375.575 37.1837 376.525 35.2358 377.942 33.5938C379.358 31.9356 381.186 30.6638 383.423 29.7784C385.677 28.8769 388.285 28.4261 391.247 28.4261C393.308 28.4261 395.28 28.6676 397.163 29.1506C399.063 29.6335 400.745 30.3821 402.21 31.3963C403.691 32.4105 404.858 33.7145 405.712 35.3082C406.565 36.8859 406.991 38.7775 406.991 40.983V66H397.236V60.8565H396.946C396.35 62.0156 395.553 63.0379 394.555 63.9233C393.557 64.7926 392.358 65.4768 390.957 65.9759C389.557 66.4588 387.939 66.7003 386.104 66.7003ZM389.05 59.6009C390.563 59.6009 391.899 59.303 393.058 58.7074C394.217 58.0956 395.127 57.2746 395.787 56.2443C396.447 55.214 396.777 54.0469 396.777 52.7429V48.8068C396.455 49.0161 396.012 49.2093 395.449 49.3864C394.901 49.5473 394.282 49.7003 393.589 49.8452C392.897 49.974 392.205 50.0947 391.513 50.2074C390.821 50.304 390.193 50.3925 389.629 50.473C388.422 50.6501 387.367 50.9318 386.466 51.3182C385.564 51.7045 384.864 52.2277 384.365 52.8878C383.866 53.5317 383.616 54.3366 383.616 55.3026C383.616 56.7031 384.124 57.7737 385.138 58.5142C386.168 59.2386 387.472 59.6009 389.05 59.6009ZM414.972 66V28.9091H424.776V35.4531H425.211C425.984 33.2798 427.272 31.5653 429.075 30.3097C430.878 29.054 433.035 28.4261 435.546 28.4261C438.09 28.4261 440.255 29.062 442.042 30.3338C443.829 31.5895 445.02 33.2959 445.616 35.4531H446.002C446.759 33.3281 448.127 31.6297 450.107 30.358C452.103 29.0701 454.462 28.4261 457.183 28.4261C460.644 28.4261 463.453 29.5289 465.61 31.7344C467.783 33.9238 468.87 37.0308 468.87 41.0554V66H458.607V43.0838C458.607 41.0232 458.06 39.4777 456.965 38.4474C455.87 37.4171 454.502 36.902 452.86 36.902C450.993 36.902 449.536 37.4976 448.489 38.6889C447.443 39.8641 446.92 41.4176 446.92 43.3494V66H436.947V42.8665C436.947 41.0473 436.424 39.5985 435.377 38.5199C434.347 37.4413 432.986 36.902 431.296 36.902C430.153 36.902 429.123 37.1918 428.205 37.7713C427.304 38.3348 426.587 39.1316 426.056 40.1619C425.525 41.1761 425.259 42.3674 425.259 43.7358V66H414.972ZM476.996 79.9091V28.9091H487.138V35.1392H487.597C488.047 34.1411 488.699 33.1269 489.553 32.0966C490.422 31.0502 491.549 30.1809 492.933 29.4886C494.334 28.7803 496.072 28.4261 498.149 28.4261C500.854 28.4261 503.349 29.1345 505.635 30.5511C507.921 31.9517 509.748 34.0687 511.116 36.902C512.485 39.7192 513.169 43.2528 513.169 47.5028C513.169 51.6402 512.501 55.1335 511.165 57.983C509.845 60.8163 508.042 62.9654 505.756 64.4304C503.486 65.8793 500.942 66.6037 498.125 66.6037C496.129 66.6037 494.43 66.2737 493.03 65.6136C491.645 64.9536 490.51 64.1245 489.625 63.1264C488.74 62.1122 488.063 61.09 487.597 60.0597H487.283V79.9091H476.996ZM487.065 47.4545C487.065 49.66 487.371 51.5838 487.983 53.2259C488.595 54.8679 489.48 56.1477 490.639 57.0653C491.798 57.9669 493.207 58.4176 494.865 58.4176C496.539 58.4176 497.956 57.9588 499.115 57.0412C500.274 56.1075 501.151 54.8196 501.747 53.1776C502.359 51.5194 502.665 49.6117 502.665 47.4545C502.665 45.3134 502.367 43.4299 501.771 41.804C501.176 40.178 500.298 38.9062 499.139 37.9886C497.98 37.071 496.555 36.6122 494.865 36.6122C493.191 36.6122 491.774 37.0549 490.615 37.9403C489.472 38.8258 488.595 40.0814 487.983 41.7074C487.371 43.3333 487.065 45.2491 487.065 47.4545ZM530.604 66.7003C528.237 66.7003 526.128 66.2898 524.277 65.4688C522.426 64.6316 520.961 63.4001 519.882 61.7741C518.82 60.1321 518.288 58.0876 518.288 55.6406C518.288 53.58 518.667 51.8494 519.423 50.4489C520.18 49.0483 521.21 47.9214 522.514 47.0682C523.818 46.215 525.299 45.571 526.957 45.1364C528.632 44.7017 530.386 44.3958 532.222 44.2188C534.379 43.9934 536.117 43.7841 537.437 43.5909C538.758 43.3816 539.715 43.0758 540.311 42.6733C540.907 42.2708 541.205 41.6752 541.205 40.8864V40.7415C541.205 39.2121 540.722 38.0289 539.756 37.1918C538.806 36.3546 537.454 35.9361 535.699 35.9361C533.848 35.9361 532.374 36.3466 531.28 37.1676C530.185 37.9725 529.461 38.9867 529.107 40.2102L519.592 39.4375C520.075 37.1837 521.025 35.2358 522.442 33.5938C523.858 31.9356 525.686 30.6638 527.923 29.7784C530.177 28.8769 532.785 28.4261 535.747 28.4261C537.808 28.4261 539.78 28.6676 541.663 29.1506C543.563 29.6335 545.245 30.3821 546.71 31.3963C548.191 32.4105 549.358 33.7145 550.212 35.3082C551.065 36.8859 551.491 38.7775 551.491 40.983V66H541.736V60.8565H541.446C540.85 62.0156 540.053 63.0379 539.055 63.9233C538.057 64.7926 536.858 65.4768 535.457 65.9759C534.057 66.4588 532.439 66.7003 530.604 66.7003ZM533.55 59.6009C535.063 59.6009 536.399 59.303 537.558 58.7074C538.717 58.0956 539.627 57.2746 540.287 56.2443C540.947 55.214 541.277 54.0469 541.277 52.7429V48.8068C540.955 49.0161 540.512 49.2093 539.949 49.3864C539.401 49.5473 538.782 49.7003 538.089 49.8452C537.397 49.974 536.705 50.0947 536.013 50.2074C535.321 50.304 534.693 50.3925 534.129 50.473C532.922 50.6501 531.867 50.9318 530.966 51.3182C530.064 51.7045 529.364 52.2277 528.865 52.8878C528.366 53.5317 528.116 54.3366 528.116 55.3026C528.116 56.7031 528.624 57.7737 529.638 58.5142C530.668 59.2386 531.972 59.6009 533.55 59.6009ZM559.472 66V28.9091H569.759V66H559.472ZM564.64 24.1278C563.111 24.1278 561.799 23.6207 560.704 22.6065C559.625 21.5762 559.086 20.3447 559.086 18.9119C559.086 17.4953 559.625 16.2798 560.704 15.2656C561.799 14.2353 563.111 13.7202 564.64 13.7202C566.169 13.7202 567.473 14.2353 568.552 15.2656C569.647 16.2798 570.194 17.4953 570.194 18.9119C570.194 20.3447 569.647 21.5762 568.552 22.6065C567.473 23.6207 566.169 24.1278 564.64 24.1278ZM594.71 80.6818C591.377 80.6818 588.52 80.223 586.137 79.3054C583.771 78.4039 581.887 77.1723 580.487 75.6108C579.086 74.0492 578.177 72.2945 577.758 70.3466L587.272 69.0668C587.562 69.8073 588.021 70.4995 588.649 71.1435C589.277 71.7874 590.106 72.3026 591.136 72.6889C592.182 73.0914 593.454 73.2926 594.951 73.2926C597.189 73.2926 599.032 72.7453 600.481 71.6506C601.946 70.572 602.679 68.7609 602.679 66.2173V59.4318H602.244C601.793 60.4621 601.117 61.4361 600.216 62.3537C599.314 63.2713 598.155 64.0199 596.738 64.5994C595.322 65.179 593.631 65.4688 591.667 65.4688C588.882 65.4688 586.347 64.8248 584.061 63.5369C581.791 62.233 579.98 60.2448 578.627 57.5724C577.291 54.884 576.623 51.4872 576.623 47.3821C576.623 43.1804 577.307 39.6709 578.676 36.8537C580.044 34.0365 581.863 31.9276 584.133 30.527C586.419 29.1264 588.922 28.4261 591.643 28.4261C593.72 28.4261 595.458 28.7803 596.859 29.4886C598.26 30.1809 599.386 31.0502 600.24 32.0966C601.109 33.1269 601.777 34.1411 602.244 35.1392H602.63V28.9091H612.845V66.3622C612.845 69.5175 612.072 72.1577 610.527 74.2827C608.981 76.4077 606.84 78.0014 604.103 79.0639C601.383 80.1425 598.252 80.6818 594.71 80.6818ZM594.927 57.7415C596.585 57.7415 597.986 57.331 599.129 56.5099C600.288 55.6728 601.173 54.4815 601.785 52.9361C602.413 51.3745 602.727 49.5071 602.727 47.3338C602.727 45.1605 602.421 43.277 601.809 41.6832C601.198 40.0734 600.312 38.8258 599.153 37.9403C597.994 37.0549 596.585 36.6122 594.927 36.6122C593.237 36.6122 591.812 37.071 590.653 37.9886C589.494 38.8902 588.617 40.1458 588.021 41.7557C587.425 43.3655 587.127 45.2249 587.127 47.3338C587.127 49.4749 587.425 51.3262 588.021 52.8878C588.633 54.4332 589.51 55.6326 590.653 56.4858C591.812 57.3229 593.237 57.7415 594.927 57.7415ZM631.318 44.5568V66H621.031V28.9091H630.835V35.4531H631.27C632.091 33.2959 633.467 31.5895 635.399 30.3338C637.331 29.062 639.673 28.4261 642.426 28.4261C645.002 28.4261 647.247 28.9896 649.163 30.1165C651.079 31.2434 652.568 32.8532 653.63 34.946C654.693 37.0227 655.224 39.5019 655.224 42.3835V66H644.937V44.2188C644.953 41.9489 644.374 40.178 643.198 38.9062C642.023 37.6184 640.405 36.9744 638.345 36.9744C636.96 36.9744 635.737 37.2723 634.674 37.8679C633.628 38.4635 632.807 39.3329 632.211 40.4759C631.632 41.6027 631.334 42.9631 631.318 44.5568ZM679.263 66V16.5455H698.774C702.525 16.5455 705.721 17.2618 708.361 18.6946C711.001 20.1113 713.014 22.0833 714.398 24.6108C715.799 27.1222 716.499 30.0199 716.499 33.304C716.499 36.5881 715.791 39.4858 714.374 41.9972C712.957 44.5085 710.905 46.4645 708.216 47.8651C705.544 49.2656 702.308 49.9659 698.509 49.9659H686.073V41.5866H696.819C698.831 41.5866 700.489 41.2405 701.793 40.5483C703.113 39.84 704.095 38.866 704.739 37.6264C705.399 36.3707 705.729 34.9299 705.729 33.304C705.729 31.6619 705.399 30.2292 704.739 29.0057C704.095 27.7661 703.113 26.8082 701.793 26.1321C700.473 25.4399 698.799 25.0938 696.77 25.0938H689.719V66H679.263ZM723.097 66V28.9091H733.07V35.3807H733.457C734.133 33.0786 735.268 31.34 736.861 30.1648C738.455 28.9735 740.29 28.3778 742.367 28.3778C742.882 28.3778 743.438 28.41 744.033 28.4744C744.629 28.5388 745.152 28.6274 745.603 28.7401V37.8679C745.12 37.723 744.452 37.5942 743.599 37.4815C742.745 37.3688 741.965 37.3125 741.256 37.3125C739.743 37.3125 738.391 37.6425 737.2 38.3026C736.024 38.9465 735.091 39.848 734.398 41.0071C733.722 42.1662 733.384 43.5024 733.384 45.0156V66H723.097ZM765.953 66.7244C762.203 66.7244 758.959 65.9276 756.222 64.3338C753.501 62.724 751.4 60.4863 749.919 57.6207C748.438 54.7391 747.698 51.3987 747.698 47.5994C747.698 43.768 748.438 40.4195 749.919 37.554C751.4 34.6723 753.501 32.4347 756.222 30.8409C758.959 29.2311 762.203 28.4261 765.953 28.4261C769.704 28.4261 772.94 29.2311 775.661 30.8409C778.398 32.4347 780.506 34.6723 781.988 37.554C783.469 40.4195 784.209 43.768 784.209 47.5994C784.209 51.3987 783.469 54.7391 781.988 57.6207C780.506 60.4863 778.398 62.724 775.661 64.3338C772.94 65.9276 769.704 66.7244 765.953 66.7244ZM766.002 58.7557C767.708 58.7557 769.133 58.2727 770.276 57.3068C771.419 56.3248 772.28 54.9886 772.86 53.2983C773.455 51.608 773.753 49.6842 773.753 47.527C773.753 45.3698 773.455 43.446 772.86 41.7557C772.28 40.0653 771.419 38.7292 770.276 37.7472C769.133 36.7652 767.708 36.2741 766.002 36.2741C764.279 36.2741 762.83 36.7652 761.655 37.7472C760.496 38.7292 759.619 40.0653 759.023 41.7557C758.444 43.446 758.154 45.3698 758.154 47.527C758.154 49.6842 758.444 51.608 759.023 53.2983C759.619 54.9886 760.496 56.3248 761.655 57.3068C762.83 58.2727 764.279 58.7557 766.002 58.7557ZM807.657 66.7244C803.857 66.7244 800.589 65.9195 797.853 64.3097C795.132 62.6837 793.039 60.4299 791.574 57.5483C790.125 54.6667 789.401 51.3504 789.401 47.5994C789.401 43.8002 790.133 40.4678 791.598 37.6023C793.079 34.7206 795.18 32.4749 797.901 30.8651C800.622 29.2391 803.857 28.4261 807.608 28.4261C810.844 28.4261 813.677 29.0137 816.108 30.1889C818.539 31.3641 820.463 33.0142 821.88 35.1392C823.296 37.2642 824.077 39.7595 824.222 42.625H814.515C814.241 40.7737 813.516 39.2846 812.341 38.1577C811.182 37.0147 809.661 36.4432 807.777 36.4432C806.184 36.4432 804.791 36.8778 803.6 37.7472C802.425 38.6004 801.507 39.848 800.847 41.4901C800.187 43.1321 799.857 45.1203 799.857 47.4545C799.857 49.821 800.179 51.8333 800.823 53.4915C801.483 55.1496 802.408 56.4134 803.6 57.2827C804.791 58.152 806.184 58.5866 807.777 58.5866C808.953 58.5866 810.007 58.3452 810.941 57.8622C811.89 57.3793 812.671 56.679 813.283 55.7614C813.911 54.8277 814.321 53.7088 814.515 52.4048H824.222C824.061 55.2382 823.288 57.7334 821.904 59.8906C820.535 62.0317 818.644 63.706 816.229 64.9134C813.814 66.1207 810.957 66.7244 807.657 66.7244ZM847.712 66.7244C843.896 66.7244 840.612 65.9517 837.859 64.4062C835.123 62.8447 833.014 60.6392 831.533 57.7898C830.052 54.9242 829.311 51.5355 829.311 47.6236C829.311 43.8082 830.052 40.4598 831.533 37.5781C833.014 34.6965 835.098 32.4508 837.787 30.8409C840.491 29.2311 843.663 28.4261 847.301 28.4261C849.748 28.4261 852.026 28.8205 854.135 29.6094C856.26 30.3821 858.111 31.5492 859.689 33.1108C861.283 34.6723 862.522 36.6364 863.408 39.0028C864.293 41.3532 864.736 44.1061 864.736 47.2614V50.0866H833.416V43.7116H855.053C855.053 42.2306 854.731 40.9186 854.087 39.7756C853.443 38.6326 852.549 37.7391 851.406 37.0952C850.279 36.4351 848.967 36.1051 847.47 36.1051C845.909 36.1051 844.524 36.4673 843.317 37.1918C842.125 37.9001 841.192 38.858 840.516 40.0653C839.839 41.2566 839.493 42.5848 839.477 44.0497V50.1108C839.477 51.946 839.815 53.5317 840.491 54.8679C841.184 56.2041 842.158 57.2344 843.413 57.9588C844.669 58.6832 846.158 59.0455 847.881 59.0455C849.024 59.0455 850.07 58.8845 851.02 58.5625C851.97 58.2405 852.783 57.7576 853.459 57.1136C854.135 56.4697 854.65 55.6809 855.004 54.7472L864.518 55.375C864.035 57.661 863.045 59.6572 861.548 61.3636C860.067 63.054 858.151 64.3741 855.801 65.3239C853.467 66.2576 850.77 66.7244 847.712 66.7244ZM902.31 39.4858L892.892 40.0653C892.731 39.2604 892.385 38.536 891.854 37.892C891.322 37.232 890.622 36.7088 889.753 36.3224C888.9 35.92 887.877 35.7188 886.686 35.7188C885.092 35.7188 883.748 36.0568 882.653 36.733C881.559 37.393 881.011 38.2784 881.011 39.3892C881.011 40.2746 881.366 41.0232 882.074 41.6349C882.782 42.2467 883.998 42.7377 885.72 43.108L892.433 44.4602C896.039 45.2008 898.728 46.392 900.499 48.0341C902.269 49.6761 903.155 51.8333 903.155 54.5057C903.155 56.9366 902.438 59.0696 901.006 60.9048C899.589 62.7401 897.641 64.1728 895.162 65.2031C892.699 66.2173 889.857 66.7244 886.638 66.7244C881.728 66.7244 877.816 65.7022 874.902 63.6577C872.004 61.5971 870.306 58.7959 869.807 55.2543L879.925 54.723C880.231 56.2202 880.971 57.3632 882.146 58.152C883.321 58.9247 884.827 59.3111 886.662 59.3111C888.465 59.3111 889.914 58.965 891.008 58.2727C892.119 57.5644 892.683 56.6548 892.699 55.544C892.683 54.6103 892.288 53.8456 891.516 53.25C890.743 52.6383 889.552 52.1714 887.942 51.8494L881.518 50.5696C877.896 49.8452 875.2 48.5895 873.429 46.8026C871.674 45.0156 870.797 42.7377 870.797 39.9688C870.797 37.5862 871.441 35.5336 872.729 33.8111C874.033 32.0885 875.86 30.7604 878.21 29.8267C880.577 28.893 883.346 28.4261 886.517 28.4261C891.202 28.4261 894.888 29.4162 897.577 31.3963C900.281 33.3764 901.859 36.0729 902.31 39.4858ZM940.493 39.4858L931.076 40.0653C930.915 39.2604 930.569 38.536 930.037 37.892C929.506 37.232 928.806 36.7088 927.936 36.3224C927.083 35.92 926.061 35.7188 924.87 35.7188C923.276 35.7188 921.932 36.0568 920.837 36.733C919.742 37.393 919.195 38.2784 919.195 39.3892C919.195 40.2746 919.549 41.0232 920.257 41.6349C920.966 42.2467 922.181 42.7377 923.904 43.108L930.617 44.4602C934.223 45.2008 936.911 46.392 938.682 48.0341C940.453 49.6761 941.338 51.8333 941.338 54.5057C941.338 56.9366 940.622 59.0696 939.189 60.9048C937.773 62.7401 935.825 64.1728 933.345 65.2031C930.882 66.2173 928.041 66.7244 924.821 66.7244C919.911 66.7244 915.999 65.7022 913.086 63.6577C910.188 61.5971 908.489 58.7959 907.99 55.2543L918.108 54.723C918.414 56.2202 919.155 57.3632 920.33 58.152C921.505 58.9247 923.01 59.3111 924.845 59.3111C926.649 59.3111 928.097 58.965 929.192 58.2727C930.303 57.5644 930.866 56.6548 930.882 55.544C930.866 54.6103 930.472 53.8456 929.699 53.25C928.926 52.6383 927.735 52.1714 926.125 51.8494L919.702 50.5696C916.08 49.8452 913.383 48.5895 911.613 46.8026C909.858 45.0156 908.98 42.7377 908.98 39.9688C908.98 37.5862 909.624 35.5336 910.912 33.8111C912.216 32.0885 914.043 30.7604 916.394 29.8267C918.76 28.893 921.529 28.4261 924.701 28.4261C929.385 28.4261 933.072 29.4162 935.76 31.3963C938.465 33.3764 940.042 36.0729 940.493 39.4858Z" fill="#00D563"/>
</svg>
